{"glyphs":{"0":{"ha":764,"x_min":48,"x_max":716,"o":"m 384 44 l 384 44 q 500 91 451 44 q 574 229 548 139 q 600 444 600 319 l 600 444 q 585 631 600 549 q 541 770 570 713 q 472 857 513 827 q 380 887 431 887 l 380 887 q 264 839 313 887 q 189 702 215 792 q 163 486 163 613 l 163 486 q 178 300 163 382 q 222 160 194 217 q 292 74 251 103 q 384 44 333 44 z m 382 944 l 382 944 q 558 884 483 944 q 674 717 633 824 q 716 467 716 610 l 716 467 q 674 215 716 324 q 558 47 633 107 q 382 -14 483 -14 l 382 -14 q 207 46 283 -14 q 90 214 132 106 q 48 464 48 322 l 48 464 q 90 715 48 607 q 207 884 132 824 q 382 944 283 944 z "},"1":{"ha":764,"x_min":118,"x_max":672,"o":"m 185 28 l 381 65 l 381 867 l 413 817 l 127 741 l 118 768 l 468 944 l 487 944 l 487 65 l 672 28 l 672 0 l 185 0 l 185 28 z "},"2":{"ha":764,"x_min":66,"x_max":692,"o":"m 594 101 l 563 85 l 668 255 l 692 255 l 649 -13 l 638 -13 l 558 0 l 79 0 l 79 17 l 344 333 q 448 472 410 412 q 502 579 486 531 q 518 668 518 626 l 518 668 q 469 805 518 753 q 339 856 421 856 l 339 856 q 240 837 286 856 q 158 775 193 819 q 105 656 124 732 l 105 656 l 66 661 q 177 872 94 799 q 378 944 260 944 l 378 944 q 510 914 453 944 q 599 827 567 883 q 631 697 631 772 l 631 697 q 620 615 631 655 q 585 530 610 575 q 514 428 560 485 q 397 297 468 372 l 397 297 l 156 44 l 176 101 l 594 101 z "},"3":{"ha":764,"x_min":85,"x_max":664,"o":"m 295 463 l 240 447 l 224 490 q 384 557 326 522 q 465 633 441 592 q 488 721 488 674 l 488 721 q 452 822 488 781 q 347 864 415 864 l 347 864 q 221 822 272 864 q 148 681 169 779 l 148 681 l 110 686 q 160 827 125 769 q 250 915 196 885 q 376 944 305 944 l 376 944 q 492 921 444 944 q 565 855 540 897 q 590 756 590 813 l 590 756 q 567 664 590 708 q 499 584 544 621 q 388 519 453 548 l 388 519 l 386 524 q 535 509 473 534 q 631 431 597 485 q 664 299 664 377 l 664 299 q 609 140 664 211 q 460 28 555 69 q 247 -14 366 -14 l 247 -14 q 155 -3 190 -14 q 102 27 119 8 q 85 69 85 47 l 85 69 q 103 109 85 94 q 148 125 121 125 l 148 125 q 180 117 165 125 q 212 96 196 108 q 248 72 228 84 q 290 51 267 59 q 344 42 314 42 l 344 42 q 443 69 395 42 q 523 149 492 96 q 555 281 555 203 l 555 281 q 522 407 555 359 q 431 470 489 455 q 295 463 372 485 l 295 463 z "},"4":{"ha":764,"x_min":9,"x_max":747,"o":"m 464 944 l 524 944 l 524 61 l 634 26 l 634 0 l 300 0 l 300 26 l 419 61 l 419 831 l 482 860 l 104 352 l 89 376 l 619 376 l 747 395 l 710 283 l 9 283 l 9 304 l 464 944 z "},"5":{"ha":764,"x_min":74,"x_max":685,"o":"m 234 -14 l 234 -14 q 141 -2 176 -14 q 90 30 106 10 q 74 69 74 49 l 74 69 q 92 114 74 98 q 133 129 110 129 l 133 129 q 164 121 149 129 q 195 101 179 113 q 230 77 211 90 q 271 57 249 65 q 322 49 294 49 l 322 49 q 433 77 381 49 q 518 158 485 104 q 551 289 551 211 l 551 289 q 534 379 551 336 q 474 455 517 422 q 351 510 431 489 q 144 534 271 531 l 144 534 l 253 931 l 508 931 l 685 957 l 646 829 l 249 829 l 287 850 l 205 567 l 201 642 q 379 616 304 635 q 505 567 454 597 q 585 499 556 538 q 627 416 615 460 q 640 322 640 372 l 640 322 q 609 187 640 249 q 523 81 578 126 q 394 11 468 35 q 234 -14 320 -14 z "},"6":{"ha":764,"x_min":87,"x_max":694,"o":"m 605 963 l 605 963 l 632 926 q 471 859 542 897 q 349 774 401 822 q 262 667 297 726 q 211 535 228 608 q 194 376 194 463 l 194 376 q 217 205 194 281 q 285 84 239 128 q 402 40 331 40 l 402 40 q 507 66 464 40 q 573 139 550 92 q 595 253 595 187 l 595 253 q 550 406 595 351 q 417 460 506 460 l 417 460 q 352 454 385 460 q 289 434 320 447 q 230 404 258 422 q 177 364 201 386 l 177 364 l 140 378 q 232 455 190 424 q 310 503 274 485 q 382 528 347 521 q 451 536 416 536 l 451 536 q 575 508 520 536 q 662 425 630 480 q 694 288 694 369 l 694 288 q 657 134 694 203 q 553 26 620 66 q 397 -14 487 -14 l 397 -14 q 229 37 299 -14 q 123 174 160 88 q 87 363 87 260 l 87 363 q 103 513 87 441 q 156 649 119 585 q 252 770 192 714 q 400 876 313 827 q 605 963 487 924 z "},"7":{"ha":764,"x_min":90,"x_max":705,"o":"m 638 829 l 155 829 l 184 848 l 114 690 l 90 690 l 98 944 l 109 944 l 192 931 l 705 931 l 705 917 l 371 0 l 248 0 l 629 847 l 638 829 z "},"8":{"ha":764,"x_min":74,"x_max":690,"o":"m 394 944 l 394 944 q 527 917 469 944 q 616 840 584 889 q 648 727 648 791 l 648 727 q 587 585 648 647 q 422 489 526 524 l 422 489 l 385 515 q 510 594 467 547 q 553 718 553 642 l 553 718 q 533 807 553 768 q 475 868 513 846 q 385 891 438 891 l 385 891 q 257 846 306 891 q 209 735 209 801 l 209 735 q 235 644 209 680 q 304 583 261 608 q 398 539 347 559 q 501 497 449 519 q 595 442 552 474 q 664 362 638 410 q 690 240 690 313 l 690 240 q 645 104 690 161 q 531 17 601 47 q 385 -14 462 -14 l 385 -14 q 229 14 300 -14 q 116 94 158 41 q 74 222 74 147 l 74 222 q 97 323 74 279 q 157 399 119 366 q 243 457 195 432 q 340 501 290 481 l 340 501 l 360 469 q 260 409 299 442 q 201 331 220 376 q 182 223 182 286 l 182 223 q 207 126 182 167 q 277 62 231 85 q 385 40 322 40 l 385 40 q 496 63 450 40 q 567 127 542 87 q 592 217 592 167 l 592 217 q 567 313 592 275 q 498 377 541 351 q 405 423 456 403 q 303 466 354 444 q 209 517 252 488 q 141 593 167 547 q 115 706 115 638 l 115 706 q 151 830 115 776 q 249 914 186 883 q 394 944 312 944 z "},"9":{"ha":764,"x_min":69,"x_max":676,"o":"m 168 -33 l 168 -33 l 141 4 q 299 94 230 50 q 419 186 369 139 q 503 289 470 234 q 552 408 536 343 q 568 554 568 474 l 568 554 q 545 727 568 651 q 476 849 522 804 q 359 893 430 893 l 359 893 q 257 867 299 893 q 192 794 215 841 q 170 685 170 747 l 170 685 q 194 574 170 617 q 260 510 219 531 q 352 490 301 490 l 352 490 q 410 495 380 490 q 470 511 440 501 q 530 539 501 522 q 583 578 558 556 l 583 578 l 623 565 q 528 488 572 518 q 448 441 485 458 q 379 418 411 424 q 317 411 347 411 l 317 411 q 189 441 245 411 q 101 527 133 471 q 69 660 69 583 l 69 660 q 106 808 69 744 q 211 908 143 872 q 370 944 278 944 l 370 944 q 539 893 471 944 q 641 757 607 842 q 676 567 676 671 l 676 567 q 659 431 676 496 q 605 305 642 365 q 509 188 568 244 q 365 76 450 131 q 168 -33 281 22 z "}," ":{"ha":308,"x_min":null,"x_max":null,"o":""}," ":{"ha":308,"x_min":null,"x_max":null,"o":""},"A":{"ha":955,"x_min":-10,"x_max":965,"o":"m 703 348 l 244 348 l 244 411 l 703 411 l 703 348 z m 490 944 l 863 65 l 965 27 l 965 0 l 625 0 l 625 27 l 745 63 l 424 830 l 471 830 l 170 63 l 283 27 l 283 0 l -10 0 l -10 27 l 97 63 l 457 944 l 490 944 z "},"B":{"ha":868,"x_min":59,"x_max":807,"o":"m 438 865 l 233 865 l 233 931 l 464 931 q 630 902 566 931 q 723 823 693 873 q 752 711 752 774 l 752 711 q 696 566 752 625 q 543 498 640 507 l 543 498 l 545 508 q 737 439 667 501 q 807 281 807 376 l 807 281 q 772 136 807 200 q 661 36 736 73 q 466 0 586 0 l 466 0 l 233 0 l 233 65 l 459 65 q 582 87 531 65 q 661 154 633 108 q 689 270 689 199 l 689 270 q 665 369 689 326 q 592 437 642 413 q 465 461 543 461 l 465 461 l 233 461 l 233 526 l 455 526 q 591 570 541 526 q 641 702 641 614 l 641 702 q 619 787 641 751 q 551 844 597 824 q 438 865 506 865 l 438 865 z m 280 0 l 59 0 l 59 27 l 169 63 l 169 867 l 59 903 l 59 931 l 280 931 l 280 0 z "},"C":{"ha":959,"x_min":65,"x_max":900,"o":"m 591 49 l 591 49 q 696 57 646 49 q 797 85 746 66 l 797 85 l 765 59 l 861 246 l 898 246 l 875 40 q 751 2 828 17 q 585 -14 673 -14 l 585 -14 q 374 18 469 -14 q 209 111 278 50 q 103 259 140 172 q 65 457 65 347 l 65 457 q 130 715 65 605 q 317 884 195 824 q 611 944 440 944 l 611 944 q 697 939 654 944 q 798 920 739 934 l 798 920 l 760 913 l 847 971 l 860 971 l 900 653 l 868 647 l 756 854 l 783 826 q 678 869 725 858 q 578 881 632 881 l 578 881 q 407 855 481 881 q 283 780 333 828 q 209 661 234 731 q 184 503 184 591 l 184 503 q 215 310 184 394 q 300 167 245 226 q 429 79 355 109 q 591 49 503 49 z "},"D":{"ha":1038,"x_min":59,"x_max":972,"o":"m 851 478 l 851 478 q 730 770 851 675 q 396 865 608 865 l 396 865 l 210 865 l 210 931 l 430 931 q 732 883 612 931 q 913 738 853 835 q 972 493 972 640 l 972 493 q 901 227 972 337 q 708 58 831 117 q 431 0 585 0 l 431 0 l 210 0 l 210 65 l 411 65 q 642 108 543 65 q 796 241 741 150 q 851 478 851 332 z m 280 0 l 59 0 l 59 27 l 169 63 l 169 867 l 59 903 l 59 931 l 280 931 l 280 0 z "},"E":{"ha":859,"x_min":59,"x_max":809,"o":"m 563 670 l 614 670 l 614 488 l 614 306 l 563 306 l 547 456 l 210 456 l 210 521 l 547 521 l 563 670 z m 744 965 l 790 668 l 757 662 l 642 880 l 681 865 l 210 865 l 210 931 l 656 931 l 733 965 l 744 965 z m 686 65 l 655 47 l 781 265 l 809 257 l 759 -41 l 748 -41 l 668 0 l 210 0 l 210 65 l 686 65 z m 280 0 l 59 0 l 59 27 l 169 63 l 169 867 l 59 903 l 59 931 l 280 931 l 280 0 z "},"F":{"ha":793,"x_min":59,"x_max":766,"o":"m 567 649 l 618 649 l 618 467 l 618 285 l 567 285 l 551 434 l 215 434 l 215 499 l 551 499 l 567 649 z m 635 931 l 713 965 l 721 965 l 766 668 l 733 662 l 619 880 l 712 865 l 190 865 l 190 931 l 635 931 z m 59 931 l 280 931 l 280 63 l 390 27 l 390 0 l 59 0 l 59 27 l 169 63 l 169 867 l 59 903 l 59 931 z "},"G":{"ha":1017,"x_min":65,"x_max":985,"o":"m 897 353 l 897 123 l 908 57 l 908 57 q 814 19 865 35 q 704 -5 762 3 q 585 -14 647 -14 l 585 -14 q 375 18 471 -14 q 210 111 280 50 q 103 259 141 172 q 65 457 65 347 l 65 457 q 129 715 65 605 q 312 884 192 824 q 601 944 432 944 l 601 944 q 694 939 650 944 q 793 919 738 933 l 793 919 l 747 912 l 837 971 l 849 971 l 890 653 l 858 647 l 736 870 l 806 805 q 694 862 750 844 q 568 881 638 881 l 568 881 q 401 855 473 881 q 281 780 329 829 q 208 661 233 731 q 184 504 184 592 l 184 504 q 235 257 184 359 q 376 102 287 155 q 581 49 466 49 l 581 49 q 676 57 628 49 q 762 82 723 66 q 822 120 801 99 l 822 120 l 785 40 l 785 349 l 655 389 l 655 416 l 985 416 l 985 389 l 897 353 z "},"H":{"ha":1083,"x_min":59,"x_max":1024,"o":"m 280 867 l 280 63 l 390 27 l 390 0 l 59 0 l 59 27 l 169 63 l 169 867 l 59 903 l 59 931 l 390 931 l 390 903 l 280 867 z m 914 867 l 914 63 l 1024 27 l 1024 0 l 693 0 l 693 27 l 803 63 l 803 867 l 693 903 l 693 931 l 1024 931 l 1024 903 l 914 867 z m 872 442 l 210 442 l 210 507 l 872 507 l 872 442 z "},"I":{"ha":449,"x_min":59,"x_max":390,"o":"m 280 63 l 390 27 l 390 0 l 59 0 l 59 27 l 169 63 l 169 867 l 59 903 l 59 931 l 390 931 l 390 903 l 280 867 l 280 63 z "},"J":{"ha":586,"x_min":8,"x_max":546,"o":"m 437 867 l 439 299 q 414 166 439 224 q 345 68 389 108 q 244 7 301 28 q 123 -14 188 -14 l 123 -14 q 64 -5 90 -14 q 23 21 38 4 q 8 61 8 38 l 8 61 q 23 101 8 84 q 67 118 37 118 l 67 118 q 94 108 79 118 q 127 86 109 99 q 164 64 144 74 q 207 54 184 54 l 207 54 q 291 96 256 54 q 326 240 326 138 l 326 240 l 326 867 l 216 903 l 216 931 l 546 931 l 546 903 l 437 867 z "},"K":{"ha":983,"x_min":59,"x_max":993,"o":"m 447 522 l 886 66 l 993 27 l 993 0 l 633 0 l 633 27 l 738 64 l 375 449 l 241 449 l 241 513 l 383 513 l 724 871 l 616 903 l 616 931 l 917 931 l 917 903 l 811 867 l 424 481 l 447 522 z m 390 903 l 280 867 l 280 63 l 390 27 l 390 0 l 59 0 l 59 27 l 169 63 l 169 867 l 59 903 l 59 931 l 390 931 l 390 903 z "},"L":{"ha":811,"x_min":59,"x_max":786,"o":"m 786 272 l 730 -41 l 715 -41 l 633 0 l 210 0 l 210 65 l 719 65 l 620 45 l 757 279 l 786 272 z m 390 903 l 280 867 l 280 0 l 59 0 l 59 27 l 169 63 l 169 867 l 59 903 l 59 931 l 390 931 l 390 903 z "},"M":{"ha":1326,"x_min":36,"x_max":1290,"o":"m 1120 867 l 1181 63 l 1290 27 l 1290 0 l 962 0 l 962 27 l 1071 63 l 1017 831 l 1027 829 l 655 -13 l 626 -13 l 249 821 l 258 823 l 213 63 l 322 27 l 322 0 l 36 0 l 36 27 l 146 63 l 206 864 l 92 903 l 92 931 l 323 931 l 674 142 l 658 142 l 1010 931 l 1230 931 l 1230 903 l 1120 867 z "},"N":{"ha":1042,"x_min":57,"x_max":992,"o":"m 60 27 l 170 63 l 170 856 l 57 903 l 57 931 l 275 931 l 849 173 l 816 109 l 816 867 l 697 903 l 697 931 l 992 931 l 992 903 l 883 867 l 883 -13 l 853 -13 l 214 829 l 237 854 l 237 63 l 356 27 l 356 0 l 60 0 l 60 27 z "},"O":{"ha":1059,"x_min":65,"x_max":994,"o":"m 528 944 l 528 944 q 715 909 630 944 q 863 811 800 874 q 959 660 925 747 q 994 467 994 572 l 994 467 q 960 273 994 361 q 863 121 926 185 q 716 21 801 56 q 531 -14 632 -14 l 531 -14 q 344 21 429 -14 q 197 120 259 56 q 100 271 134 183 q 65 464 65 359 l 65 464 q 99 657 65 569 q 196 810 133 745 q 343 909 258 874 q 528 944 428 944 z m 535 50 l 535 50 q 715 98 640 50 q 832 235 791 147 q 873 444 873 324 l 873 444 q 828 681 873 583 q 705 829 783 778 q 524 881 626 881 l 524 881 q 344 832 419 881 q 227 695 268 784 q 186 486 186 607 l 186 486 q 231 250 186 348 q 355 101 276 153 q 535 50 434 50 z "},"P":{"ha":819,"x_min":59,"x_max":785,"o":"m 667 668 l 667 668 q 640 775 667 731 q 550 842 613 819 q 379 865 487 865 l 379 865 l 176 865 l 185 931 l 439 931 q 639 897 563 931 q 750 806 715 863 q 785 676 785 748 l 785 676 q 749 541 785 603 q 637 442 713 479 q 439 405 560 405 l 439 405 l 185 405 l 176 470 l 456 470 q 564 493 517 470 q 640 559 612 515 q 667 668 667 603 z m 59 931 l 280 931 l 280 63 l 390 27 l 390 0 l 59 0 l 59 27 l 169 63 l 169 867 l 59 903 l 59 931 z "},"Q":{"ha":1059,"x_min":65,"x_max":1033,"o":"m 598 -173 l 598 -173 l 293 41 q 158 165 208 101 q 87 303 108 229 q 65 464 65 376 l 65 464 q 99 657 65 569 q 196 810 133 745 q 343 909 258 874 q 528 944 428 944 l 528 944 q 715 909 630 944 q 863 811 800 874 q 959 660 925 747 q 994 467 994 572 l 994 467 q 958 271 994 361 q 858 116 923 181 q 701 20 792 51 q 500 0 610 -11 l 500 0 l 460 26 l 728 -133 q 812 -180 776 -162 q 879 -208 847 -198 q 948 -220 911 -217 q 1033 -219 984 -222 l 1033 -219 l 1033 -243 q 981 -257 1010 -250 q 918 -268 952 -264 q 844 -273 884 -273 l 844 -273 q 785 -269 810 -273 q 734 -256 759 -266 q 677 -226 709 -246 q 598 -173 645 -206 z m 535 50 l 535 50 q 715 98 640 50 q 832 235 791 147 q 873 444 873 324 l 873 444 q 828 681 873 583 q 705 829 783 778 q 524 881 626 881 l 524 881 q 344 832 419 881 q 227 695 268 784 q 186 486 186 607 l 186 486 q 231 250 186 348 q 355 101 276 153 q 535 50 434 50 z "},"R":{"ha":861,"x_min":59,"x_max":865,"o":"m 183 503 l 428 503 q 572 550 515 503 q 629 685 629 596 l 629 685 q 603 782 629 742 q 517 844 577 822 q 356 865 457 865 l 356 865 l 183 865 l 185 931 l 425 931 q 611 899 540 931 q 715 814 682 867 q 747 697 747 761 l 747 697 q 720 589 747 636 q 642 509 694 541 q 515 466 590 478 l 515 466 l 515 471 q 590 453 560 468 q 640 407 619 438 q 681 321 661 375 l 681 321 l 748 137 q 781 69 765 90 q 816 44 796 49 q 865 39 835 39 l 865 39 l 865 0 q 764 -3 802 -5 q 704 10 726 -2 q 667 46 681 22 q 637 113 652 71 l 637 113 l 572 295 q 535 382 552 351 q 495 425 519 413 q 432 438 472 438 l 432 438 l 185 438 l 183 503 z m 59 931 l 280 931 l 280 63 l 390 27 l 390 0 l 59 0 l 59 27 l 169 63 l 169 867 l 59 903 l 59 931 z "},"S":{"ha":741,"x_min":57,"x_max":674,"o":"m 608 887 l 608 887 l 507 914 l 592 971 l 603 971 l 647 665 l 616 659 l 496 874 l 520 842 q 447 878 484 867 q 366 889 410 889 l 366 889 q 227 847 276 889 q 178 734 178 804 l 178 734 q 197 656 178 688 q 249 601 216 624 q 325 563 283 579 q 414 529 367 546 l 414 529 q 506 493 460 513 q 590 444 552 473 q 651 372 628 415 q 674 264 674 328 l 674 264 q 632 113 674 174 q 516 18 590 51 q 344 -14 442 -14 l 344 -14 q 226 -5 278 -14 q 117 28 174 5 l 117 28 l 57 268 l 97 268 l 261 28 l 146 101 q 243 59 200 72 q 334 45 285 45 l 334 45 q 465 65 410 45 q 549 125 519 85 q 578 226 578 165 l 578 226 q 554 315 578 280 q 490 374 530 351 q 404 414 451 397 q 311 449 357 431 l 311 449 q 225 486 265 466 q 155 535 185 507 q 108 602 125 563 q 91 696 91 641 l 91 696 q 127 828 91 772 q 229 914 163 883 q 385 944 295 944 l 385 944 q 500 931 447 944 q 608 887 553 917 z "},"T":{"ha":901,"x_min":30,"x_max":872,"o":"m 395 63 l 395 888 l 506 888 l 506 63 l 616 27 l 616 0 l 285 0 l 285 27 l 395 63 z m 746 878 l 810 865 l 92 865 l 156 878 l 62 680 l 30 686 l 58 978 l 70 978 l 168 919 l 108 931 l 794 931 l 733 919 l 831 978 l 844 978 l 872 686 l 840 680 l 746 878 z "},"U":{"ha":1040,"x_min":38,"x_max":1001,"o":"m 825 340 l 825 340 l 825 867 l 715 903 l 715 931 l 1001 931 l 1001 903 l 892 867 l 892 353 q 849 155 892 237 q 725 29 806 72 q 526 -14 643 -14 l 526 -14 q 320 30 405 -14 q 191 161 235 74 q 147 377 147 249 l 147 377 l 147 867 l 38 903 l 38 931 l 368 931 l 368 903 l 258 867 l 258 371 q 290 203 258 270 q 385 104 322 137 q 542 71 448 71 l 542 71 q 697 102 634 71 q 792 194 760 134 q 825 340 825 254 z "},"V":{"ha":927,"x_min":-13,"x_max":934,"o":"m 459 -14 l 90 866 l -13 903 l -13 931 l 327 931 l 327 903 l 207 867 l 524 101 l 478 101 l 760 867 l 647 903 l 647 931 l 934 931 l 934 903 l 828 867 l 492 -14 l 459 -14 z "},"W":{"ha":1299,"x_min":-6,"x_max":1301,"o":"m 631 797 l 675 821 l 351 -14 l 318 -14 l 97 866 l -6 903 l -6 931 l 331 931 l 331 903 l 211 867 l 387 156 l 360 156 l 658 944 l 692 944 l 1018 128 l 963 103 l 1135 867 l 1016 903 l 1016 931 l 1301 931 l 1301 903 l 1201 867 l 990 -14 l 957 -14 l 631 797 z "},"X":{"ha":963,"x_min":6,"x_max":966,"o":"m 507 472 l 482 451 l 186 63 l 299 27 l 299 0 l 6 0 l 6 27 l 113 63 l 448 490 l 475 513 l 737 867 l 624 903 l 624 931 l 917 931 l 917 903 l 810 867 l 507 472 z m 614 27 l 734 63 l 456 435 l 438 453 l 133 866 l 31 903 l 31 931 l 383 931 l 383 903 l 263 867 l 508 533 l 526 515 l 863 65 l 966 27 l 966 0 l 614 0 l 614 27 z "},"Y":{"ha":922,"x_min":-8,"x_max":915,"o":"m 421 403 l 95 866 l -8 903 l -8 931 l 349 931 l 349 903 l 233 867 l 534 433 l 490 435 l 731 867 l 617 903 l 617 931 l 915 931 l 915 903 l 808 867 l 532 408 l 532 63 l 642 27 l 642 0 l 311 0 l 311 27 l 421 63 l 421 403 z "},"Z":{"ha":863,"x_min":47,"x_max":823,"o":"m 196 931 l 794 931 l 794 917 l 210 48 l 201 65 l 696 65 l 792 245 l 823 240 l 781 -34 l 769 -34 l 692 0 l 72 0 l 72 14 l 651 883 l 660 865 l 197 865 l 76 665 l 47 672 l 99 972 l 113 972 l 196 931 z "},"À":{"ha":955,"x_min":-10,"x_max":965,"o":"m 703 348 l 244 348 l 244 411 l 703 411 l 703 348 z m 490 944 l 863 65 l 965 27 l 965 0 l 625 0 l 625 27 l 745 63 l 424 830 l 471 830 l 170 63 l 283 27 l 283 0 l -10 0 l -10 27 l 97 63 l 457 944 l 490 944 z m 426 1192 l 498 1025 l 458 1025 l 272 1179 l 272 1192 l 426 1192 z "},"Á":{"ha":955,"x_min":-10,"x_max":965,"o":"m 703 348 l 244 348 l 244 411 l 703 411 l 703 348 z m 490 944 l 863 65 l 965 27 l 965 0 l 625 0 l 625 27 l 745 63 l 424 830 l 471 830 l 170 63 l 283 27 l 283 0 l -10 0 l -10 27 l 97 63 l 457 944 l 490 944 z m 488 1025 l 448 1025 l 520 1192 l 674 1192 l 674 1179 l 488 1025 z "},"Â":{"ha":955,"x_min":-10,"x_max":965,"o":"m 703 348 l 244 348 l 244 411 l 703 411 l 703 348 z m 490 944 l 863 65 l 965 27 l 965 0 l 625 0 l 625 27 l 745 63 l 424 830 l 471 830 l 170 63 l 283 27 l 283 0 l -10 0 l -10 27 l 97 63 l 457 944 l 490 944 z m 619 1025 l 465 1115 l 481 1115 l 326 1025 l 274 1025 l 420 1192 l 526 1192 l 672 1025 l 619 1025 z "},"Ã":{"ha":955,"x_min":-10,"x_max":965,"o":"m 703 348 l 244 348 l 244 411 l 703 411 l 703 348 z m 490 944 l 863 65 l 965 27 l 965 0 l 625 0 l 625 27 l 745 63 l 424 830 l 471 830 l 170 63 l 283 27 l 283 0 l -10 0 l -10 27 l 97 63 l 457 944 l 490 944 z m 616 1192 l 660 1192 q 634 1084 647 1122 q 601 1033 620 1047 q 551 1019 582 1019 l 551 1019 q 503 1032 526 1019 q 459 1061 481 1044 q 419 1090 438 1078 q 385 1103 401 1103 l 385 1103 q 365 1097 374 1103 q 348 1075 356 1092 q 330 1025 340 1058 l 330 1025 l 285 1025 q 313 1132 299 1095 q 345 1183 326 1169 q 394 1197 365 1197 l 394 1197 q 442 1185 419 1197 q 486 1156 465 1172 q 526 1126 508 1139 q 561 1114 545 1114 l 561 1114 q 581 1119 572 1114 q 598 1142 590 1125 q 616 1192 607 1159 l 616 1192 z "},"Ä":{"ha":955,"x_min":-10,"x_max":965,"o":"m 703 348 l 244 348 l 244 411 l 703 411 l 703 348 z m 490 944 l 863 65 l 965 27 l 965 0 l 625 0 l 625 27 l 745 63 l 424 830 l 471 830 l 170 63 l 283 27 l 283 0 l -10 0 l -10 27 l 97 63 l 457 944 l 490 944 z m 347 1033 l 347 1033 q 292 1055 313 1033 q 271 1108 271 1077 l 271 1108 q 292 1162 271 1140 q 347 1184 313 1184 l 347 1184 q 402 1162 381 1184 q 424 1108 424 1140 l 424 1108 q 402 1055 424 1077 q 347 1033 381 1033 z m 599 1033 l 599 1033 q 543 1055 565 1033 q 522 1108 522 1077 l 522 1108 q 543 1162 522 1140 q 599 1184 565 1184 l 599 1184 q 654 1162 633 1184 q 675 1108 675 1140 l 675 1108 q 654 1055 675 1077 q 599 1033 633 1033 z "},"Å":{"ha":955,"x_min":-10,"x_max":965,"o":"m 703 348 l 244 348 l 244 411 l 703 411 l 703 348 z m 490 944 l 863 65 l 965 27 l 965 0 l 625 0 l 625 27 l 745 63 l 424 830 l 471 830 l 170 63 l 283 27 l 283 0 l -10 0 l -10 27 l 97 63 l 457 944 l 490 944 z m 473 1230 l 473 1230 q 561 1195 526 1230 q 596 1108 596 1161 l 596 1108 q 561 1021 596 1056 q 473 987 526 987 l 473 987 q 385 1021 420 987 q 350 1108 350 1056 l 350 1108 q 385 1195 350 1161 q 473 1230 420 1230 z m 473 1029 l 473 1029 q 529 1051 507 1029 q 551 1108 551 1074 l 551 1108 q 529 1165 551 1143 q 473 1188 507 1188 l 473 1188 q 417 1165 439 1188 q 395 1108 395 1143 l 395 1108 q 417 1051 395 1074 q 473 1029 439 1029 z "},"Ā":{"ha":955,"x_min":-10,"x_max":965,"o":"m 703 348 l 244 348 l 244 411 l 703 411 l 703 348 z m 490 944 l 863 65 l 965 27 l 965 0 l 625 0 l 625 27 l 745 63 l 424 830 l 471 830 l 170 63 l 283 27 l 283 0 l -10 0 l -10 27 l 97 63 l 457 944 l 490 944 z m 647 1072 l 299 1072 l 299 1145 l 647 1145 l 647 1072 z "},"Ă":{"ha":955,"x_min":-10,"x_max":965,"o":"m 703 348 l 244 348 l 244 411 l 703 411 l 703 348 z m 490 944 l 863 65 l 965 27 l 965 0 l 625 0 l 625 27 l 745 63 l 424 830 l 471 830 l 170 63 l 283 27 l 283 0 l -10 0 l -10 27 l 97 63 l 457 944 l 490 944 z m 473 1106 l 473 1106 q 564 1127 526 1106 q 614 1192 601 1147 l 614 1192 l 660 1192 q 620 1089 644 1126 q 561 1036 597 1051 q 473 1020 525 1020 l 473 1020 q 385 1036 421 1020 q 326 1089 349 1051 q 286 1192 302 1126 l 286 1192 l 332 1192 q 382 1127 344 1147 q 473 1106 420 1106 z "},"Ą":{"ha":955,"x_min":-10,"x_max":965,"o":"m 703 348 l 244 348 l 244 411 l 703 411 l 703 348 z m 490 944 l 863 65 l 965 27 l 965 0 l 625 0 l 625 27 l 745 63 l 424 830 l 471 830 l 170 63 l 283 27 l 283 0 l -10 0 l -10 27 l 97 63 l 457 944 l 490 944 z m 835 32 l 774 -92 q 744 -167 752 -135 q 736 -225 736 -199 l 736 -225 q 757 -280 736 -260 q 811 -299 778 -299 l 811 -299 q 858 -286 833 -299 q 918 -237 883 -274 l 918 -237 l 938 -257 q 885 -321 912 -297 q 832 -357 859 -345 q 773 -368 804 -368 l 773 -368 q 689 -337 722 -368 q 655 -251 655 -306 l 655 -251 q 660 -205 655 -228 q 679 -153 665 -182 q 719 -86 693 -124 l 719 -86 l 799 32 l 835 32 z "},"Ǻ":{"ha":955,"x_min":-10,"x_max":965,"o":"m 703 348 l 244 348 l 244 411 l 703 411 l 703 348 z m 490 944 l 863 65 l 965 27 l 965 0 l 625 0 l 625 27 l 745 63 l 424 830 l 471 830 l 170 63 l 283 27 l 283 0 l -10 0 l -10 27 l 97 63 l 457 944 l 490 944 z m 473 1230 l 473 1230 q 561 1195 526 1230 q 596 1108 596 1161 l 596 1108 q 561 1021 596 1056 q 473 987 526 987 l 473 987 q 385 1021 420 987 q 350 1108 350 1056 l 350 1108 q 385 1195 350 1161 q 473 1230 420 1230 z m 473 1029 l 473 1029 q 529 1051 507 1029 q 551 1108 551 1074 l 551 1108 q 529 1165 551 1143 q 473 1188 507 1188 l 473 1188 q 417 1165 439 1188 q 395 1108 395 1143 l 395 1108 q 417 1051 395 1074 q 473 1029 439 1029 z m 488 1286 l 448 1286 l 520 1453 l 674 1453 l 674 1440 l 488 1286 z "},"Ȁ":{"ha":955,"x_min":-10,"x_max":965,"o":"m 703 348 l 244 348 l 244 411 l 703 411 l 703 348 z m 490 944 l 863 65 l 965 27 l 965 0 l 625 0 l 625 27 l 745 63 l 424 830 l 471 830 l 170 63 l 283 27 l 283 0 l -10 0 l -10 27 l 97 63 l 457 944 l 490 944 z m 305 1192 l 409 1025 l 364 1025 l 144 1181 l 144 1192 l 305 1192 z m 532 1192 l 576 1025 l 539 1025 l 385 1181 l 385 1192 l 532 1192 z "},"Ȃ":{"ha":955,"x_min":-10,"x_max":965,"o":"m 703 348 l 244 348 l 244 411 l 703 411 l 703 348 z m 490 944 l 863 65 l 965 27 l 965 0 l 625 0 l 625 27 l 745 63 l 424 830 l 471 830 l 170 63 l 283 27 l 283 0 l -10 0 l -10 27 l 97 63 l 457 944 l 490 944 z m 473 1110 l 473 1110 q 382 1090 420 1110 q 332 1025 344 1069 l 332 1025 l 286 1025 q 326 1128 302 1090 q 386 1181 350 1165 q 473 1197 422 1197 l 473 1197 q 560 1181 525 1197 q 620 1128 596 1165 q 660 1025 644 1090 l 660 1025 l 614 1025 q 564 1090 601 1069 q 473 1110 526 1110 z "},"Ạ":{"ha":955,"x_min":-10,"x_max":965,"o":"m 703 348 l 244 348 l 244 411 l 703 411 l 703 348 z m 490 944 l 863 65 l 965 27 l 965 0 l 625 0 l 625 27 l 745 63 l 424 830 l 471 830 l 170 63 l 283 27 l 283 0 l -10 0 l -10 27 l 97 63 l 457 944 l 490 944 z m 479 -258 l 479 -258 q 420 -235 443 -258 q 397 -177 397 -211 l 397 -177 q 420 -119 397 -142 q 479 -96 443 -96 l 479 -96 q 539 -119 516 -96 q 561 -177 561 -142 l 561 -177 q 539 -235 561 -211 q 479 -258 516 -258 z "},"Ả":{"ha":955,"x_min":-10,"x_max":965,"o":"m 703 348 l 244 348 l 244 411 l 703 411 l 703 348 z m 490 944 l 863 65 l 965 27 l 965 0 l 625 0 l 625 27 l 745 63 l 424 830 l 471 830 l 170 63 l 283 27 l 283 0 l -10 0 l -10 27 l 97 63 l 457 944 l 490 944 z m 372 1153 l 372 1153 l 389 1247 q 486 1231 447 1242 q 547 1203 524 1219 q 580 1168 570 1188 q 590 1126 590 1149 l 590 1126 q 578 1074 590 1098 q 532 1031 567 1049 q 426 1002 497 1013 l 426 1002 l 419 1042 q 473 1055 454 1048 q 500 1073 492 1063 q 507 1098 507 1083 l 507 1098 q 497 1122 507 1112 q 457 1140 486 1133 q 372 1153 428 1148 z "},"Ấ":{"ha":955,"x_min":-10,"x_max":965,"o":"m 703 348 l 244 348 l 244 411 l 703 411 l 703 348 z m 490 944 l 863 65 l 965 27 l 965 0 l 625 0 l 625 27 l 745 63 l 424 830 l 471 830 l 170 63 l 283 27 l 283 0 l -10 0 l -10 27 l 97 63 l 457 944 l 490 944 z m 673 1129 l 633 1129 l 695 1279 l 851 1279 l 851 1269 l 673 1129 z m 619 1025 l 465 1115 l 481 1115 l 326 1025 l 274 1025 l 420 1192 l 526 1192 l 672 1025 l 619 1025 z "},"Ầ":{"ha":955,"x_min":-10,"x_max":965,"o":"m 703 348 l 244 348 l 244 411 l 703 411 l 703 348 z m 490 944 l 863 65 l 965 27 l 965 0 l 625 0 l 625 27 l 745 63 l 424 830 l 471 830 l 170 63 l 283 27 l 283 0 l -10 0 l -10 27 l 97 63 l 457 944 l 490 944 z m 251 1279 l 313 1129 l 273 1129 l 94 1269 l 94 1279 l 251 1279 z m 465 1115 l 481 1115 l 326 1025 l 274 1025 l 420 1192 l 526 1192 l 672 1025 l 619 1025 l 465 1115 z "},"Ẩ":{"ha":955,"x_min":-10,"x_max":965,"o":"m 703 348 l 244 348 l 244 411 l 703 411 l 703 348 z m 490 944 l 863 65 l 965 27 l 965 0 l 625 0 l 625 27 l 745 63 l 424 830 l 471 830 l 170 63 l 283 27 l 283 0 l -10 0 l -10 27 l 97 63 l 457 944 l 490 944 z m 465 1115 l 481 1115 l 326 1025 l 274 1025 l 420 1192 l 526 1192 l 672 1025 l 619 1025 l 465 1115 z m 643 1125 l 638 1160 q 704 1181 689 1169 q 719 1208 719 1192 l 719 1208 q 709 1229 719 1220 q 672 1245 699 1238 q 592 1256 644 1252 l 592 1256 l 608 1340 q 700 1326 663 1336 q 758 1302 736 1316 q 789 1271 779 1288 q 798 1233 798 1253 l 798 1233 q 785 1185 798 1206 q 739 1148 772 1163 q 643 1125 706 1133 l 643 1125 z "},"Ẫ":{"ha":955,"x_min":-10,"x_max":965,"o":"m 703 348 l 244 348 l 244 411 l 703 411 l 703 348 z m 490 944 l 863 65 l 965 27 l 965 0 l 625 0 l 625 27 l 745 63 l 424 830 l 471 830 l 170 63 l 283 27 l 283 0 l -10 0 l -10 27 l 97 63 l 457 944 l 490 944 z m 465 1062 l 481 1062 l 334 993 l 281 993 l 419 1129 l 526 1129 l 665 993 l 612 993 l 465 1062 z m 340 1160 l 340 1160 l 299 1160 q 335 1231 319 1203 q 370 1271 351 1258 q 417 1283 390 1283 l 417 1283 q 449 1276 433 1283 q 483 1261 466 1269 q 517 1245 501 1252 q 548 1238 533 1238 l 548 1238 q 582 1248 569 1238 q 606 1282 594 1257 l 606 1282 l 647 1282 q 611 1211 628 1238 q 576 1171 595 1184 q 528 1158 557 1158 l 528 1158 q 495 1165 513 1158 q 461 1181 478 1172 q 428 1197 444 1190 q 398 1203 413 1203 l 398 1203 q 364 1194 376 1203 q 340 1160 351 1185 z "},"Ậ":{"ha":955,"x_min":-10,"x_max":965,"o":"m 703 348 l 244 348 l 244 411 l 703 411 l 703 348 z m 490 944 l 863 65 l 965 27 l 965 0 l 625 0 l 625 27 l 745 63 l 424 830 l 471 830 l 170 63 l 283 27 l 283 0 l -10 0 l -10 27 l 97 63 l 457 944 l 490 944 z m 619 1025 l 465 1115 l 481 1115 l 326 1025 l 274 1025 l 420 1192 l 526 1192 l 672 1025 l 619 1025 z m 479 -258 l 479 -258 q 420 -235 443 -258 q 397 -177 397 -211 l 397 -177 q 420 -119 397 -142 q 479 -96 443 -96 l 479 -96 q 539 -119 516 -96 q 561 -177 561 -142 l 561 -177 q 539 -235 561 -211 q 479 -258 516 -258 z "},"Ắ":{"ha":955,"x_min":-10,"x_max":965,"o":"m 703 348 l 244 348 l 244 411 l 703 411 l 703 348 z m 490 944 l 863 65 l 965 27 l 965 0 l 625 0 l 625 27 l 745 63 l 424 830 l 471 830 l 170 63 l 283 27 l 283 0 l -10 0 l -10 27 l 97 63 l 457 944 l 490 944 z m 485 1119 l 448 1119 l 506 1282 l 645 1282 l 645 1270 l 485 1119 z m 473 1073 l 473 1073 q 564 1090 532 1073 q 608 1143 596 1108 l 608 1143 l 645 1143 q 611 1058 633 1092 q 556 1008 590 1024 q 473 992 522 992 l 473 992 q 390 1008 424 992 q 335 1058 356 1024 q 301 1143 313 1092 l 301 1143 l 338 1143 q 382 1090 350 1108 q 473 1073 414 1073 z "},"Ằ":{"ha":955,"x_min":-10,"x_max":965,"o":"m 703 348 l 244 348 l 244 411 l 703 411 l 703 348 z m 490 944 l 863 65 l 965 27 l 965 0 l 625 0 l 625 27 l 745 63 l 424 830 l 471 830 l 170 63 l 283 27 l 283 0 l -10 0 l -10 27 l 97 63 l 457 944 l 490 944 z m 440 1282 l 498 1119 l 461 1119 l 301 1270 l 301 1282 l 440 1282 z m 473 1073 l 473 1073 q 564 1090 532 1073 q 608 1143 596 1108 l 608 1143 l 645 1143 q 611 1058 633 1091 q 556 1008 590 1024 q 473 992 522 992 l 473 992 q 390 1008 424 992 q 334 1058 356 1024 q 301 1143 313 1091 l 301 1143 l 338 1143 q 382 1090 350 1108 q 473 1073 414 1073 z "},"Ẳ":{"ha":955,"x_min":-10,"x_max":965,"o":"m 703 348 l 244 348 l 244 411 l 703 411 l 703 348 z m 490 944 l 863 65 l 965 27 l 965 0 l 625 0 l 625 27 l 745 63 l 424 830 l 471 830 l 170 63 l 283 27 l 283 0 l -10 0 l -10 27 l 97 63 l 457 944 l 490 944 z m 473 1073 l 473 1073 q 564 1088 532 1073 q 608 1135 597 1103 l 608 1135 l 645 1135 q 612 1054 634 1086 q 556 1007 590 1022 q 473 992 522 992 l 473 992 q 390 1007 424 992 q 334 1054 356 1022 q 301 1135 313 1086 l 301 1135 l 338 1135 q 382 1088 349 1103 q 473 1073 414 1073 z m 435 1108 l 433 1141 q 500 1152 483 1144 q 517 1178 517 1160 l 517 1178 q 510 1196 517 1188 q 480 1211 503 1204 q 408 1222 456 1217 l 408 1222 l 418 1303 q 524 1283 487 1298 q 575 1247 560 1268 q 589 1203 589 1226 l 589 1203 q 575 1151 589 1172 q 528 1119 562 1130 q 435 1108 494 1108 l 435 1108 z "},"Ẵ":{"ha":955,"x_min":-10,"x_max":965,"o":"m 703 348 l 244 348 l 244 411 l 703 411 l 703 348 z m 490 944 l 863 65 l 965 27 l 965 0 l 625 0 l 625 27 l 745 63 l 424 830 l 471 830 l 170 63 l 283 27 l 283 0 l -10 0 l -10 27 l 97 63 l 457 944 l 490 944 z m 473 1073 l 473 1073 q 564 1088 532 1073 q 608 1135 597 1103 l 608 1135 l 645 1135 q 612 1054 634 1086 q 556 1007 590 1022 q 473 992 522 992 l 473 992 q 390 1007 424 992 q 334 1054 356 1022 q 301 1135 313 1086 l 301 1135 l 338 1135 q 382 1088 349 1103 q 473 1073 414 1073 z m 340 1160 l 340 1160 l 299 1160 q 335 1231 319 1203 q 370 1271 351 1258 q 417 1283 390 1283 l 417 1283 q 449 1276 433 1283 q 483 1261 466 1269 q 517 1245 501 1252 q 548 1238 533 1238 l 548 1238 q 582 1248 569 1238 q 606 1282 594 1257 l 606 1282 l 647 1282 q 611 1211 628 1238 q 576 1171 595 1184 q 528 1158 557 1158 l 528 1158 q 495 1165 513 1158 q 461 1181 478 1172 q 428 1197 444 1190 q 398 1203 413 1203 l 398 1203 q 364 1194 376 1203 q 340 1160 351 1185 z "},"Ặ":{"ha":955,"x_min":-10,"x_max":965,"o":"m 703 348 l 244 348 l 244 411 l 703 411 l 703 348 z m 490 944 l 863 65 l 965 27 l 965 0 l 625 0 l 625 27 l 745 63 l 424 830 l 471 830 l 170 63 l 283 27 l 283 0 l -10 0 l -10 27 l 97 63 l 457 944 l 490 944 z m 473 1106 l 473 1106 q 564 1127 526 1106 q 614 1192 601 1147 l 614 1192 l 660 1192 q 620 1089 644 1126 q 561 1036 597 1051 q 473 1020 525 1020 l 473 1020 q 385 1036 421 1020 q 326 1089 349 1051 q 286 1192 302 1126 l 286 1192 l 332 1192 q 382 1127 344 1147 q 473 1106 420 1106 z m 479 -258 l 479 -258 q 420 -235 443 -258 q 397 -177 397 -211 l 397 -177 q 420 -119 397 -142 q 479 -96 443 -96 l 479 -96 q 539 -119 516 -96 q 561 -177 561 -142 l 561 -177 q 539 -235 561 -211 q 479 -258 516 -258 z "},"Æ":{"ha":1331,"x_min":-17,"x_max":1281,"o":"m 699 348 l 310 348 l 310 411 l 699 411 l 699 348 z m 90 63 l 602 931 l 662 931 l 662 903 l 167 63 l 280 27 l 280 0 l -17 0 l -17 27 l 90 63 z m 587 864 l 467 903 l 467 931 l 615 931 l 587 864 z m 1034 670 l 1085 670 l 1085 488 l 1085 306 l 1034 306 l 1019 456 l 682 456 l 682 521 l 1019 521 l 1034 670 z m 1216 965 l 1261 668 l 1228 662 l 1114 880 l 1152 865 l 682 865 l 682 931 l 1127 931 l 1205 965 l 1216 965 z m 1158 65 l 1126 47 l 1252 265 l 1281 257 l 1231 -41 l 1219 -41 l 1140 0 l 682 0 l 682 65 l 1158 65 z m 751 0 l 531 0 l 531 27 l 640 63 l 640 931 l 751 931 l 751 0 z "},"Ǽ":{"ha":1331,"x_min":-17,"x_max":1281,"o":"m 699 348 l 310 348 l 310 411 l 699 411 l 699 348 z m 90 63 l 602 931 l 662 931 l 662 903 l 167 63 l 280 27 l 280 0 l -17 0 l -17 27 l 90 63 z m 587 864 l 467 903 l 467 931 l 615 931 l 587 864 z m 1034 670 l 1085 670 l 1085 488 l 1085 306 l 1034 306 l 1019 456 l 682 456 l 682 521 l 1019 521 l 1034 670 z m 1216 965 l 1261 668 l 1228 662 l 1114 880 l 1152 865 l 682 865 l 682 931 l 1127 931 l 1205 965 l 1216 965 z m 1158 65 l 1126 47 l 1252 265 l 1281 257 l 1231 -41 l 1219 -41 l 1140 0 l 682 0 l 682 65 l 1158 65 z m 751 0 l 531 0 l 531 27 l 640 63 l 640 931 l 751 931 l 751 0 z m 711 1025 l 671 1025 l 743 1192 l 897 1192 l 897 1179 l 711 1025 z "},"Ç":{"ha":959,"x_min":65,"x_max":900,"o":"m 591 49 l 591 49 q 696 57 646 49 q 797 85 746 66 l 797 85 l 765 59 l 861 246 l 898 246 l 875 40 q 751 2 828 17 q 585 -14 673 -14 l 585 -14 q 374 18 469 -14 q 209 111 278 50 q 103 259 140 172 q 65 457 65 347 l 65 457 q 130 715 65 605 q 317 884 195 824 q 611 944 440 944 l 611 944 q 697 939 654 944 q 798 920 739 934 l 798 920 l 760 913 l 847 971 l 860 971 l 900 653 l 868 647 l 756 854 l 783 826 q 678 869 725 858 q 578 881 632 881 l 578 881 q 407 855 481 881 q 283 780 333 828 q 209 661 234 731 q 184 503 184 591 l 184 503 q 215 310 184 394 q 300 167 245 226 q 429 79 355 109 q 591 49 503 49 z m 462 -368 l 462 -368 q 389 -350 411 -368 q 367 -310 367 -332 l 367 -310 q 378 -284 367 -294 q 404 -275 388 -275 l 404 -275 q 436 -286 424 -275 q 462 -308 449 -297 q 499 -319 475 -319 l 499 -319 q 552 -300 531 -319 q 572 -250 572 -281 l 572 -250 q 557 -207 572 -224 q 506 -177 541 -189 q 410 -159 470 -166 l 410 -159 l 410 -147 l 551 35 l 604 35 l 467 -153 l 465 -87 q 568 -117 531 -98 q 621 -161 606 -136 q 637 -216 637 -186 l 637 -216 q 611 -295 637 -261 q 546 -349 586 -330 q 462 -368 506 -368 z "},"Ć":{"ha":959,"x_min":65,"x_max":900,"o":"m 591 49 l 591 49 q 696 57 646 49 q 797 85 746 66 l 797 85 l 765 59 l 861 246 l 898 246 l 875 40 q 751 2 828 17 q 585 -14 673 -14 l 585 -14 q 374 18 469 -14 q 209 111 278 50 q 103 259 140 172 q 65 457 65 347 l 65 457 q 130 715 65 605 q 317 884 195 824 q 611 944 440 944 l 611 944 q 697 939 654 944 q 798 920 739 934 l 798 920 l 760 913 l 847 971 l 860 971 l 900 653 l 868 647 l 756 854 l 783 826 q 678 869 725 858 q 578 881 632 881 l 578 881 q 407 855 481 881 q 283 780 333 828 q 209 661 234 731 q 184 503 184 591 l 184 503 q 215 310 184 394 q 300 167 245 226 q 429 79 355 109 q 591 49 503 49 z m 559 1025 l 519 1025 l 591 1192 l 745 1192 l 745 1179 l 559 1025 z "},"Ĉ":{"ha":959,"x_min":65,"x_max":900,"o":"m 591 49 l 591 49 q 696 57 646 49 q 797 85 746 66 l 797 85 l 765 59 l 861 246 l 898 246 l 875 40 q 751 2 828 17 q 585 -14 673 -14 l 585 -14 q 374 18 469 -14 q 209 111 278 50 q 103 259 140 172 q 65 457 65 347 l 65 457 q 130 715 65 605 q 317 884 195 824 q 611 944 440 944 l 611 944 q 697 939 654 944 q 798 920 739 934 l 798 920 l 760 913 l 847 971 l 860 971 l 900 653 l 868 647 l 756 854 l 783 826 q 678 869 725 858 q 578 881 632 881 l 578 881 q 407 855 481 881 q 283 780 333 828 q 209 661 234 731 q 184 503 184 591 l 184 503 q 215 310 184 394 q 300 167 245 226 q 429 79 355 109 q 591 49 503 49 z m 690 1025 l 535 1115 l 552 1115 l 397 1025 l 345 1025 l 491 1192 l 597 1192 l 742 1025 l 690 1025 z "},"Ċ":{"ha":959,"x_min":65,"x_max":900,"o":"m 591 49 l 591 49 q 696 57 646 49 q 797 85 746 66 l 797 85 l 765 59 l 861 246 l 898 246 l 875 40 q 751 2 828 17 q 585 -14 673 -14 l 585 -14 q 374 18 469 -14 q 209 111 278 50 q 103 259 140 172 q 65 457 65 347 l 65 457 q 130 715 65 605 q 317 884 195 824 q 611 944 440 944 l 611 944 q 697 939 654 944 q 798 920 739 934 l 798 920 l 760 913 l 847 971 l 860 971 l 900 653 l 868 647 l 756 854 l 783 826 q 678 869 725 858 q 578 881 632 881 l 578 881 q 407 855 481 881 q 283 780 333 828 q 209 661 234 731 q 184 503 184 591 l 184 503 q 215 310 184 394 q 300 167 245 226 q 429 79 355 109 q 591 49 503 49 z m 544 1027 l 544 1027 q 485 1051 508 1027 q 462 1108 462 1074 l 462 1108 q 485 1166 462 1143 q 544 1190 508 1190 l 544 1190 q 603 1166 581 1190 q 626 1108 626 1143 l 626 1108 q 603 1051 626 1074 q 544 1027 581 1027 z "},"Č":{"ha":959,"x_min":65,"x_max":900,"o":"m 591 49 l 591 49 q 696 57 646 49 q 797 85 746 66 l 797 85 l 765 59 l 861 246 l 898 246 l 875 40 q 751 2 828 17 q 585 -14 673 -14 l 585 -14 q 374 18 469 -14 q 209 111 278 50 q 103 259 140 172 q 65 457 65 347 l 65 457 q 130 715 65 605 q 317 884 195 824 q 611 944 440 944 l 611 944 q 697 939 654 944 q 798 920 739 934 l 798 920 l 760 913 l 847 971 l 860 971 l 900 653 l 868 647 l 756 854 l 783 826 q 678 869 725 858 q 578 881 632 881 l 578 881 q 407 855 481 881 q 283 780 333 828 q 209 661 234 731 q 184 503 184 591 l 184 503 q 215 310 184 394 q 300 167 245 226 q 429 79 355 109 q 591 49 503 49 z m 397 1192 l 552 1101 l 535 1101 l 690 1192 l 742 1192 l 597 1025 l 491 1025 l 345 1192 l 397 1192 z "},"Ď":{"ha":1038,"x_min":59,"x_max":972,"o":"m 851 478 l 851 478 q 730 770 851 675 q 396 865 608 865 l 396 865 l 210 865 l 210 931 l 430 931 q 732 883 612 931 q 913 738 853 835 q 972 493 972 640 l 972 493 q 901 227 972 337 q 708 58 831 117 q 431 0 585 0 l 431 0 l 210 0 l 210 65 l 411 65 q 642 108 543 65 q 796 241 741 150 q 851 478 851 332 z m 280 0 l 59 0 l 59 27 l 169 63 l 169 867 l 59 903 l 59 931 l 280 931 l 280 0 z m 375 1192 l 530 1101 l 513 1101 l 668 1192 l 720 1192 l 574 1025 l 469 1025 l 323 1192 l 375 1192 z "},"Đ":{"ha":1040,"x_min":60,"x_max":974,"o":"m 507 440 l 60 440 l 60 506 l 507 506 l 507 440 z m 853 478 l 853 478 q 731 770 853 675 q 397 865 609 865 l 397 865 l 212 865 l 212 931 l 431 931 q 734 883 613 931 q 914 738 854 835 q 974 493 974 640 l 974 493 q 903 227 974 337 q 709 58 832 117 q 433 0 587 0 l 433 0 l 212 0 l 212 65 l 413 65 q 643 108 544 65 q 798 241 742 150 q 853 478 853 332 z m 281 0 l 60 0 l 60 27 l 170 63 l 170 867 l 60 903 l 60 931 l 281 931 l 281 0 z "},"È":{"ha":859,"x_min":59,"x_max":809,"o":"m 563 670 l 614 670 l 614 488 l 614 306 l 563 306 l 547 456 l 210 456 l 210 521 l 547 521 l 563 670 z m 744 965 l 790 668 l 757 662 l 642 880 l 681 865 l 210 865 l 210 931 l 656 931 l 733 965 l 744 965 z m 686 65 l 655 47 l 781 265 l 809 257 l 759 -41 l 748 -41 l 668 0 l 210 0 l 210 65 l 686 65 z m 280 0 l 59 0 l 59 27 l 169 63 l 169 867 l 59 903 l 59 931 l 280 931 l 280 0 z m 394 1192 l 467 1025 l 426 1025 l 240 1179 l 240 1192 l 394 1192 z "},"É":{"ha":859,"x_min":59,"x_max":809,"o":"m 563 670 l 614 670 l 614 488 l 614 306 l 563 306 l 547 456 l 210 456 l 210 521 l 547 521 l 563 670 z m 744 965 l 790 668 l 757 662 l 642 880 l 681 865 l 210 865 l 210 931 l 656 931 l 733 965 l 744 965 z m 686 65 l 655 47 l 781 265 l 809 257 l 759 -41 l 748 -41 l 668 0 l 210 0 l 210 65 l 686 65 z m 280 0 l 59 0 l 59 27 l 169 63 l 169 867 l 59 903 l 59 931 l 280 931 l 280 0 z m 457 1025 l 417 1025 l 489 1192 l 643 1192 l 643 1179 l 457 1025 z "},"Ê":{"ha":859,"x_min":59,"x_max":809,"o":"m 563 670 l 614 670 l 614 488 l 614 306 l 563 306 l 547 456 l 210 456 l 210 521 l 547 521 l 563 670 z m 744 965 l 790 668 l 757 662 l 642 880 l 681 865 l 210 865 l 210 931 l 656 931 l 733 965 l 744 965 z m 686 65 l 655 47 l 781 265 l 809 257 l 759 -41 l 748 -41 l 668 0 l 210 0 l 210 65 l 686 65 z m 280 0 l 59 0 l 59 27 l 169 63 l 169 867 l 59 903 l 59 931 l 280 931 l 280 0 z m 588 1025 l 433 1115 l 450 1115 l 295 1025 l 243 1025 l 389 1192 l 494 1192 l 640 1025 l 588 1025 z "},"Ë":{"ha":859,"x_min":59,"x_max":809,"o":"m 563 670 l 614 670 l 614 488 l 614 306 l 563 306 l 547 456 l 210 456 l 210 521 l 547 521 l 563 670 z m 744 965 l 790 668 l 757 662 l 642 880 l 681 865 l 210 865 l 210 931 l 656 931 l 733 965 l 744 965 z m 686 65 l 655 47 l 781 265 l 809 257 l 759 -41 l 748 -41 l 668 0 l 210 0 l 210 65 l 686 65 z m 280 0 l 59 0 l 59 27 l 169 63 l 169 867 l 59 903 l 59 931 l 280 931 l 280 0 z m 316 1033 l 316 1033 q 261 1055 282 1033 q 240 1108 240 1077 l 240 1108 q 261 1162 240 1140 q 316 1184 282 1184 l 316 1184 q 371 1162 350 1184 q 392 1108 392 1140 l 392 1108 q 371 1055 392 1077 q 316 1033 350 1033 z m 567 1033 l 567 1033 q 512 1055 533 1033 q 491 1108 491 1077 l 491 1108 q 512 1162 491 1140 q 567 1184 533 1184 l 567 1184 q 623 1162 601 1184 q 644 1108 644 1140 l 644 1108 q 623 1055 644 1077 q 567 1033 601 1033 z "},"Ē":{"ha":859,"x_min":59,"x_max":809,"o":"m 563 670 l 614 670 l 614 488 l 614 306 l 563 306 l 547 456 l 210 456 l 210 521 l 547 521 l 563 670 z m 744 965 l 790 668 l 757 662 l 642 880 l 681 865 l 210 865 l 210 931 l 656 931 l 733 965 l 744 965 z m 686 65 l 655 47 l 781 265 l 809 257 l 759 -41 l 748 -41 l 668 0 l 210 0 l 210 65 l 686 65 z m 280 0 l 59 0 l 59 27 l 169 63 l 169 867 l 59 903 l 59 931 l 280 931 l 280 0 z m 615 1072 l 268 1072 l 268 1145 l 615 1145 l 615 1072 z "},"Ĕ":{"ha":859,"x_min":59,"x_max":809,"o":"m 563 670 l 614 670 l 614 488 l 614 306 l 563 306 l 547 456 l 210 456 l 210 521 l 547 521 l 563 670 z m 744 965 l 790 668 l 757 662 l 642 880 l 681 865 l 210 865 l 210 931 l 656 931 l 733 965 l 744 965 z m 686 65 l 655 47 l 781 265 l 809 257 l 759 -41 l 748 -41 l 668 0 l 210 0 l 210 65 l 686 65 z m 280 0 l 59 0 l 59 27 l 169 63 l 169 867 l 59 903 l 59 931 l 280 931 l 280 0 z m 442 1106 l 442 1106 q 533 1127 495 1106 q 583 1192 570 1147 l 583 1192 l 628 1192 q 589 1089 613 1126 q 530 1036 565 1051 q 442 1020 494 1020 l 442 1020 q 354 1036 390 1020 q 294 1089 318 1051 q 255 1192 271 1126 l 255 1192 l 301 1192 q 351 1127 313 1147 q 442 1106 389 1106 z "},"Ė":{"ha":859,"x_min":59,"x_max":809,"o":"m 563 670 l 614 670 l 614 488 l 614 306 l 563 306 l 547 456 l 210 456 l 210 521 l 547 521 l 563 670 z m 744 965 l 790 668 l 757 662 l 642 880 l 681 865 l 210 865 l 210 931 l 656 931 l 733 965 l 744 965 z m 686 65 l 655 47 l 781 265 l 809 257 l 759 -41 l 748 -41 l 668 0 l 210 0 l 210 65 l 686 65 z m 280 0 l 59 0 l 59 27 l 169 63 l 169 867 l 59 903 l 59 931 l 280 931 l 280 0 z m 442 1027 l 442 1027 q 383 1051 406 1027 q 360 1108 360 1074 l 360 1108 q 383 1166 360 1143 q 442 1190 406 1190 l 442 1190 q 501 1166 478 1190 q 524 1108 524 1143 l 524 1108 q 501 1051 524 1074 q 442 1027 478 1027 z "},"Ę":{"ha":859,"x_min":59,"x_max":809,"o":"m 563 670 l 614 670 l 614 488 l 614 306 l 563 306 l 547 456 l 210 456 l 210 521 l 547 521 l 563 670 z m 744 965 l 790 668 l 757 662 l 642 880 l 681 865 l 210 865 l 210 931 l 656 931 l 733 965 l 744 965 z m 686 65 l 655 47 l 781 265 l 809 257 l 759 -41 l 748 -41 l 668 0 l 210 0 l 210 65 l 686 65 z m 280 0 l 59 0 l 59 27 l 169 63 l 169 867 l 59 903 l 59 931 l 280 931 l 280 0 z m 681 32 l 619 -92 q 597 -144 605 -121 q 585 -188 588 -168 q 581 -225 581 -208 l 581 -225 q 602 -280 581 -260 q 656 -299 624 -299 l 656 -299 q 703 -286 678 -299 q 763 -237 728 -274 l 763 -237 l 783 -257 q 731 -321 757 -297 q 677 -357 704 -345 q 618 -368 649 -368 l 618 -368 q 534 -337 567 -368 q 500 -251 500 -306 l 500 -251 q 505 -205 500 -228 q 524 -153 510 -182 q 564 -86 538 -124 l 564 -86 l 644 32 l 681 32 z "},"Ě":{"ha":859,"x_min":59,"x_max":809,"o":"m 563 670 l 614 670 l 614 488 l 614 306 l 563 306 l 547 456 l 210 456 l 210 521 l 547 521 l 563 670 z m 744 965 l 790 668 l 757 662 l 642 880 l 681 865 l 210 865 l 210 931 l 656 931 l 733 965 l 744 965 z m 686 65 l 655 47 l 781 265 l 809 257 l 759 -41 l 748 -41 l 668 0 l 210 0 l 210 65 l 686 65 z m 280 0 l 59 0 l 59 27 l 169 63 l 169 867 l 59 903 l 59 931 l 280 931 l 280 0 z m 295 1192 l 450 1101 l 433 1101 l 588 1192 l 640 1192 l 494 1025 l 389 1025 l 243 1192 l 295 1192 z "},"Ȅ":{"ha":859,"x_min":59,"x_max":809,"o":"m 563 670 l 614 670 l 614 488 l 614 306 l 563 306 l 547 456 l 210 456 l 210 521 l 547 521 l 563 670 z m 744 965 l 790 668 l 757 662 l 642 880 l 681 865 l 210 865 l 210 931 l 656 931 l 733 965 l 744 965 z m 686 65 l 655 47 l 781 265 l 809 257 l 759 -41 l 748 -41 l 668 0 l 210 0 l 210 65 l 686 65 z m 280 0 l 59 0 l 59 27 l 169 63 l 169 867 l 59 903 l 59 931 l 280 931 l 280 0 z m 274 1192 l 378 1025 l 333 1025 l 113 1181 l 113 1192 l 274 1192 z m 501 1192 l 544 1025 l 508 1025 l 354 1181 l 354 1192 l 501 1192 z "},"Ȇ":{"ha":859,"x_min":59,"x_max":809,"o":"m 563 670 l 614 670 l 614 488 l 614 306 l 563 306 l 547 456 l 210 456 l 210 521 l 547 521 l 563 670 z m 744 965 l 790 668 l 757 662 l 642 880 l 681 865 l 210 865 l 210 931 l 656 931 l 733 965 l 744 965 z m 686 65 l 655 47 l 781 265 l 809 257 l 759 -41 l 748 -41 l 668 0 l 210 0 l 210 65 l 686 65 z m 280 0 l 59 0 l 59 27 l 169 63 l 169 867 l 59 903 l 59 931 l 280 931 l 280 0 z m 442 1110 l 442 1110 q 351 1090 389 1110 q 301 1025 313 1069 l 301 1025 l 255 1025 q 295 1128 271 1090 q 355 1181 319 1165 q 442 1197 390 1197 l 442 1197 q 529 1181 494 1197 q 589 1128 565 1165 q 628 1025 613 1090 l 628 1025 l 583 1025 q 533 1090 570 1069 q 442 1110 495 1110 z "},"Ẹ":{"ha":859,"x_min":59,"x_max":809,"o":"m 563 670 l 614 670 l 614 488 l 614 306 l 563 306 l 547 456 l 210 456 l 210 521 l 547 521 l 563 670 z m 744 965 l 790 668 l 757 662 l 642 880 l 681 865 l 210 865 l 210 931 l 656 931 l 733 965 l 744 965 z m 686 65 l 655 47 l 781 265 l 809 257 l 759 -41 l 748 -41 l 668 0 l 210 0 l 210 65 l 686 65 z m 280 0 l 59 0 l 59 27 l 169 63 l 169 867 l 59 903 l 59 931 l 280 931 l 280 0 z m 463 -258 l 463 -258 q 403 -235 426 -258 q 381 -177 381 -211 l 381 -177 q 403 -119 381 -142 q 463 -96 426 -96 l 463 -96 q 522 -119 499 -96 q 544 -177 544 -142 l 544 -177 q 522 -235 544 -211 q 463 -258 499 -258 z "},"Ẻ":{"ha":859,"x_min":59,"x_max":809,"o":"m 563 670 l 614 670 l 614 488 l 614 306 l 563 306 l 547 456 l 210 456 l 210 521 l 547 521 l 563 670 z m 744 965 l 790 668 l 757 662 l 642 880 l 681 865 l 210 865 l 210 931 l 656 931 l 733 965 l 744 965 z m 686 65 l 655 47 l 781 265 l 809 257 l 759 -41 l 748 -41 l 668 0 l 210 0 l 210 65 l 686 65 z m 280 0 l 59 0 l 59 27 l 169 63 l 169 867 l 59 903 l 59 931 l 280 931 l 280 0 z m 340 1153 l 340 1153 l 358 1247 q 455 1231 416 1242 q 516 1203 493 1219 q 549 1168 539 1188 q 558 1126 558 1149 l 558 1126 q 547 1074 558 1098 q 500 1031 535 1049 q 394 1002 465 1013 l 394 1002 l 388 1042 q 442 1055 423 1048 q 468 1073 461 1063 q 476 1098 476 1083 l 476 1098 q 465 1122 476 1112 q 426 1140 455 1133 q 340 1153 397 1148 z "},"Ẽ":{"ha":859,"x_min":59,"x_max":809,"o":"m 563 670 l 614 670 l 614 488 l 614 306 l 563 306 l 547 456 l 210 456 l 210 521 l 547 521 l 563 670 z m 744 965 l 790 668 l 757 662 l 642 880 l 681 865 l 210 865 l 210 931 l 656 931 l 733 965 l 744 965 z m 686 65 l 655 47 l 781 265 l 809 257 l 759 -41 l 748 -41 l 668 0 l 210 0 l 210 65 l 686 65 z m 280 0 l 59 0 l 59 27 l 169 63 l 169 867 l 59 903 l 59 931 l 280 931 l 280 0 z m 585 1192 l 629 1192 q 602 1084 616 1122 q 570 1033 589 1047 q 520 1019 551 1019 l 520 1019 q 472 1032 495 1019 q 428 1061 449 1044 q 388 1090 407 1078 q 353 1103 369 1103 l 353 1103 q 334 1097 343 1103 q 317 1075 325 1092 q 299 1025 308 1058 l 299 1025 l 254 1025 q 282 1132 268 1095 q 314 1183 295 1169 q 363 1197 333 1197 l 363 1197 q 411 1185 388 1197 q 455 1156 434 1172 q 495 1126 476 1139 q 530 1114 514 1114 l 530 1114 q 549 1119 540 1114 q 567 1142 558 1125 q 585 1192 576 1159 l 585 1192 z "},"Ế":{"ha":859,"x_min":59,"x_max":820,"o":"m 563 670 l 614 670 l 614 488 l 614 306 l 563 306 l 547 456 l 210 456 l 210 521 l 547 521 l 563 670 z m 744 965 l 790 668 l 757 662 l 642 880 l 681 865 l 210 865 l 210 931 l 656 931 l 733 965 l 744 965 z m 686 65 l 655 47 l 781 265 l 809 257 l 759 -41 l 748 -41 l 668 0 l 210 0 l 210 65 l 686 65 z m 280 0 l 59 0 l 59 27 l 169 63 l 169 867 l 59 903 l 59 931 l 280 931 l 280 0 z m 642 1129 l 601 1129 l 664 1279 l 820 1279 l 820 1269 l 642 1129 z m 588 1025 l 433 1115 l 450 1115 l 295 1025 l 243 1025 l 389 1192 l 494 1192 l 640 1025 l 588 1025 z "},"Ề":{"ha":859,"x_min":59,"x_max":809,"o":"m 563 670 l 614 670 l 614 488 l 614 306 l 563 306 l 547 456 l 210 456 l 210 521 l 547 521 l 563 670 z m 744 965 l 790 668 l 757 662 l 642 880 l 681 865 l 210 865 l 210 931 l 656 931 l 733 965 l 744 965 z m 686 65 l 655 47 l 781 265 l 809 257 l 759 -41 l 748 -41 l 668 0 l 210 0 l 210 65 l 686 65 z m 280 0 l 59 0 l 59 27 l 169 63 l 169 867 l 59 903 l 59 931 l 280 931 l 280 0 z m 219 1279 l 282 1129 l 242 1129 l 63 1269 l 63 1279 l 219 1279 z m 433 1115 l 450 1115 l 295 1025 l 243 1025 l 389 1192 l 494 1192 l 640 1025 l 588 1025 l 433 1115 z "},"Ể":{"ha":859,"x_min":59,"x_max":809,"o":"m 563 670 l 614 670 l 614 488 l 614 306 l 563 306 l 547 456 l 210 456 l 210 521 l 547 521 l 563 670 z m 744 965 l 790 668 l 757 662 l 642 880 l 681 865 l 210 865 l 210 931 l 656 931 l 733 965 l 744 965 z m 686 65 l 655 47 l 781 265 l 809 257 l 759 -41 l 748 -41 l 668 0 l 210 0 l 210 65 l 686 65 z m 280 0 l 59 0 l 59 27 l 169 63 l 169 867 l 59 903 l 59 931 l 280 931 l 280 0 z m 433 1115 l 450 1115 l 295 1025 l 243 1025 l 389 1192 l 494 1192 l 640 1025 l 588 1025 l 433 1115 z m 612 1125 l 606 1160 q 673 1181 658 1169 q 688 1208 688 1192 l 688 1208 q 678 1229 688 1220 q 641 1245 668 1238 q 560 1256 613 1252 l 560 1256 l 577 1340 q 668 1326 632 1336 q 726 1302 705 1316 q 757 1271 748 1288 q 767 1233 767 1253 l 767 1233 q 754 1185 767 1206 q 708 1148 741 1163 q 612 1125 674 1133 l 612 1125 z "},"Ễ":{"ha":859,"x_min":59,"x_max":809,"o":"m 563 670 l 614 670 l 614 488 l 614 306 l 563 306 l 547 456 l 210 456 l 210 521 l 547 521 l 563 670 z m 744 965 l 790 668 l 757 662 l 642 880 l 681 865 l 210 865 l 210 931 l 656 931 l 733 965 l 744 965 z m 686 65 l 655 47 l 781 265 l 809 257 l 759 -41 l 748 -41 l 668 0 l 210 0 l 210 65 l 686 65 z m 280 0 l 59 0 l 59 27 l 169 63 l 169 867 l 59 903 l 59 931 l 280 931 l 280 0 z m 433 1062 l 450 1062 l 303 993 l 250 993 l 388 1129 l 495 1129 l 633 993 l 581 993 l 433 1062 z m 308 1160 l 308 1160 l 268 1160 q 303 1231 288 1203 q 339 1271 319 1258 q 386 1283 358 1283 l 386 1283 q 418 1276 401 1283 q 452 1261 435 1269 q 486 1245 469 1252 q 517 1238 502 1238 l 517 1238 q 551 1248 538 1238 q 575 1282 563 1257 l 575 1282 l 615 1282 q 580 1211 597 1238 q 545 1171 564 1184 q 497 1158 526 1158 l 497 1158 q 464 1165 481 1158 q 430 1181 447 1172 q 397 1197 413 1190 q 367 1203 381 1203 l 367 1203 q 333 1194 345 1203 q 308 1160 320 1185 z "},"Ệ":{"ha":859,"x_min":59,"x_max":809,"o":"m 563 670 l 614 670 l 614 488 l 614 306 l 563 306 l 547 456 l 210 456 l 210 521 l 547 521 l 563 670 z m 744 965 l 790 668 l 757 662 l 642 880 l 681 865 l 210 865 l 210 931 l 656 931 l 733 965 l 744 965 z m 686 65 l 655 47 l 781 265 l 809 257 l 759 -41 l 748 -41 l 668 0 l 210 0 l 210 65 l 686 65 z m 280 0 l 59 0 l 59 27 l 169 63 l 169 867 l 59 903 l 59 931 l 280 931 l 280 0 z m 588 1025 l 433 1115 l 450 1115 l 295 1025 l 243 1025 l 389 1192 l 494 1192 l 640 1025 l 588 1025 z m 463 -258 l 463 -258 q 403 -235 426 -258 q 381 -177 381 -211 l 381 -177 q 403 -119 381 -142 q 463 -96 426 -96 l 463 -96 q 522 -119 499 -96 q 544 -177 544 -142 l 544 -177 q 522 -235 544 -211 q 463 -258 499 -258 z "},"Ĝ":{"ha":1017,"x_min":65,"x_max":985,"o":"m 897 353 l 897 123 l 908 57 l 908 57 q 814 19 865 35 q 704 -5 762 3 q 585 -14 647 -14 l 585 -14 q 375 18 471 -14 q 210 111 280 50 q 103 259 141 172 q 65 457 65 347 l 65 457 q 129 715 65 605 q 312 884 192 824 q 601 944 432 944 l 601 944 q 694 939 650 944 q 793 919 738 933 l 793 919 l 747 912 l 837 971 l 849 971 l 890 653 l 858 647 l 736 870 l 806 805 q 694 862 750 844 q 568 881 638 881 l 568 881 q 401 855 473 881 q 281 780 329 829 q 208 661 233 731 q 184 504 184 592 l 184 504 q 235 257 184 359 q 376 102 287 155 q 581 49 466 49 l 581 49 q 676 57 628 49 q 762 82 723 66 q 822 120 801 99 l 822 120 l 785 40 l 785 349 l 655 389 l 655 416 l 985 416 l 985 389 l 897 353 z m 696 1025 l 541 1115 l 558 1115 l 403 1025 l 351 1025 l 497 1192 l 602 1192 l 748 1025 l 696 1025 z "},"Ğ":{"ha":1017,"x_min":65,"x_max":985,"o":"m 897 353 l 897 123 l 908 57 l 908 57 q 814 19 865 35 q 704 -5 762 3 q 585 -14 647 -14 l 585 -14 q 375 18 471 -14 q 210 111 280 50 q 103 259 141 172 q 65 457 65 347 l 65 457 q 129 715 65 605 q 312 884 192 824 q 601 944 432 944 l 601 944 q 694 939 650 944 q 793 919 738 933 l 793 919 l 747 912 l 837 971 l 849 971 l 890 653 l 858 647 l 736 870 l 806 805 q 694 862 750 844 q 568 881 638 881 l 568 881 q 401 855 473 881 q 281 780 329 829 q 208 661 233 731 q 184 504 184 592 l 184 504 q 235 257 184 359 q 376 102 287 155 q 581 49 466 49 l 581 49 q 676 57 628 49 q 762 82 723 66 q 822 120 801 99 l 822 120 l 785 40 l 785 349 l 655 389 l 655 416 l 985 416 l 985 389 l 897 353 z m 549 1106 l 549 1106 q 640 1127 603 1106 q 690 1192 678 1147 l 690 1192 l 736 1192 q 697 1089 720 1126 q 637 1036 673 1051 q 549 1020 601 1020 l 549 1020 q 461 1036 497 1020 q 402 1089 426 1051 q 363 1192 378 1126 l 363 1192 l 408 1192 q 459 1127 421 1147 q 549 1106 497 1106 z "},"Ġ":{"ha":1017,"x_min":65,"x_max":985,"o":"m 897 353 l 897 123 l 908 57 l 908 57 q 814 19 865 35 q 704 -5 762 3 q 585 -14 647 -14 l 585 -14 q 375 18 471 -14 q 210 111 280 50 q 103 259 141 172 q 65 457 65 347 l 65 457 q 129 715 65 605 q 312 884 192 824 q 601 944 432 944 l 601 944 q 694 939 650 944 q 793 919 738 933 l 793 919 l 747 912 l 837 971 l 849 971 l 890 653 l 858 647 l 736 870 l 806 805 q 694 862 750 844 q 568 881 638 881 l 568 881 q 401 855 473 881 q 281 780 329 829 q 208 661 233 731 q 184 504 184 592 l 184 504 q 235 257 184 359 q 376 102 287 155 q 581 49 466 49 l 581 49 q 676 57 628 49 q 762 82 723 66 q 822 120 801 99 l 822 120 l 785 40 l 785 349 l 655 389 l 655 416 l 985 416 l 985 389 l 897 353 z m 549 1027 l 549 1027 q 490 1051 513 1027 q 467 1108 467 1074 l 467 1108 q 490 1166 467 1143 q 549 1190 513 1190 l 549 1190 q 609 1166 586 1190 q 631 1108 631 1143 l 631 1108 q 609 1051 631 1074 q 549 1027 586 1027 z "},"Ģ":{"ha":1017,"x_min":65,"x_max":985,"o":"m 897 353 l 897 123 l 908 57 l 908 57 q 814 19 865 35 q 704 -5 762 3 q 585 -14 647 -14 l 585 -14 q 375 18 471 -14 q 210 111 280 50 q 103 259 141 172 q 65 457 65 347 l 65 457 q 129 715 65 605 q 312 884 192 824 q 601 944 432 944 l 601 944 q 694 939 650 944 q 793 919 738 933 l 793 919 l 747 912 l 837 971 l 849 971 l 890 653 l 858 647 l 736 870 l 806 805 q 694 862 750 844 q 568 881 638 881 l 568 881 q 401 855 473 881 q 281 780 329 829 q 208 661 233 731 q 184 504 184 592 l 184 504 q 235 257 184 359 q 376 102 287 155 q 581 49 466 49 l 581 49 q 676 57 628 49 q 762 82 723 66 q 822 120 801 99 l 822 120 l 785 40 l 785 349 l 655 389 l 655 416 l 985 416 l 985 389 l 897 353 z m 626 1085 l 626 1085 q 609 1034 626 1056 q 551 1011 592 1011 l 551 1011 q 495 1031 519 1011 q 471 1094 471 1051 l 471 1094 q 483 1143 471 1118 q 527 1185 496 1167 q 614 1205 558 1202 l 614 1205 l 619 1169 q 563 1158 579 1167 q 547 1133 547 1149 l 547 1133 q 559 1115 547 1122 q 586 1104 571 1108 q 614 1095 602 1099 q 626 1085 626 1091 z "},"Ǧ":{"ha":1017,"x_min":65,"x_max":985,"o":"m 897 353 l 897 123 l 908 57 l 908 57 q 814 19 865 35 q 704 -5 762 3 q 585 -14 647 -14 l 585 -14 q 375 18 471 -14 q 210 111 280 50 q 103 259 141 172 q 65 457 65 347 l 65 457 q 129 715 65 605 q 312 884 192 824 q 601 944 432 944 l 601 944 q 694 939 650 944 q 793 919 738 933 l 793 919 l 747 912 l 837 971 l 849 971 l 890 653 l 858 647 l 736 870 l 806 805 q 694 862 750 844 q 568 881 638 881 l 568 881 q 401 855 473 881 q 281 780 329 829 q 208 661 233 731 q 184 504 184 592 l 184 504 q 235 257 184 359 q 376 102 287 155 q 581 49 466 49 l 581 49 q 676 57 628 49 q 762 82 723 66 q 822 120 801 99 l 822 120 l 785 40 l 785 349 l 655 389 l 655 416 l 985 416 l 985 389 l 897 353 z m 403 1192 l 558 1101 l 541 1101 l 696 1192 l 748 1192 l 602 1025 l 497 1025 l 351 1192 l 403 1192 z "},"Ĥ":{"ha":1083,"x_min":59,"x_max":1024,"o":"m 280 867 l 280 63 l 390 27 l 390 0 l 59 0 l 59 27 l 169 63 l 169 867 l 59 903 l 59 931 l 390 931 l 390 903 l 280 867 z m 914 867 l 914 63 l 1024 27 l 1024 0 l 693 0 l 693 27 l 803 63 l 803 867 l 693 903 l 693 931 l 1024 931 l 1024 903 l 914 867 z m 872 442 l 210 442 l 210 507 l 872 507 l 872 442 z m 688 1025 l 533 1115 l 549 1115 l 394 1025 l 342 1025 l 488 1192 l 594 1192 l 740 1025 l 688 1025 z "},"Ħ":{"ha":1084,"x_min":60,"x_max":1024,"o":"m 281 867 l 281 63 l 390 27 l 390 0 l 60 0 l 60 27 l 169 63 l 169 867 l 60 903 l 60 931 l 390 931 l 390 903 l 281 867 z m 915 867 l 915 63 l 1024 27 l 1024 0 l 694 0 l 694 27 l 803 63 l 803 867 l 694 903 l 694 931 l 1024 931 l 1024 903 l 915 867 z m 1024 663 l 60 663 l 60 728 l 1024 728 l 1024 663 z m 873 442 l 211 442 l 211 507 l 873 507 l 873 442 z "},"Ì":{"ha":449,"x_min":23,"x_max":390,"o":"m 280 63 l 390 27 l 390 0 l 59 0 l 59 27 l 169 63 l 169 867 l 59 903 l 59 931 l 390 931 l 390 903 l 280 867 l 280 63 z m 177 1192 l 249 1025 l 209 1025 l 23 1179 l 23 1192 l 177 1192 z "},"Í":{"ha":449,"x_min":59,"x_max":426,"o":"m 280 63 l 390 27 l 390 0 l 59 0 l 59 27 l 169 63 l 169 867 l 59 903 l 59 931 l 390 931 l 390 903 l 280 867 l 280 63 z m 240 1025 l 199 1025 l 272 1192 l 426 1192 l 426 1179 l 240 1025 z "},"Î":{"ha":449,"x_min":26,"x_max":423,"o":"m 280 63 l 390 27 l 390 0 l 59 0 l 59 27 l 169 63 l 169 867 l 59 903 l 59 931 l 390 931 l 390 903 l 280 867 l 280 63 z m 371 1025 l 216 1115 l 233 1115 l 78 1025 l 26 1025 l 172 1192 l 277 1192 l 423 1025 l 371 1025 z "},"Ï":{"ha":449,"x_min":22,"x_max":426,"o":"m 280 63 l 390 27 l 390 0 l 59 0 l 59 27 l 169 63 l 169 867 l 59 903 l 59 931 l 390 931 l 390 903 l 280 867 l 280 63 z m 99 1033 l 99 1033 q 43 1055 65 1033 q 22 1108 22 1077 l 22 1108 q 43 1162 22 1140 q 99 1184 65 1184 l 99 1184 q 154 1162 133 1184 q 175 1108 175 1140 l 175 1108 q 154 1055 175 1077 q 99 1033 133 1033 z m 350 1033 l 350 1033 q 295 1055 316 1033 q 274 1108 274 1077 l 274 1108 q 295 1162 274 1140 q 350 1184 316 1184 l 350 1184 q 405 1162 384 1184 q 426 1108 426 1140 l 426 1108 q 405 1055 426 1077 q 350 1033 384 1033 z "},"Ī":{"ha":449,"x_min":51,"x_max":398,"o":"m 280 63 l 390 27 l 390 0 l 59 0 l 59 27 l 169 63 l 169 867 l 59 903 l 59 931 l 390 931 l 390 903 l 280 867 l 280 63 z m 398 1072 l 51 1072 l 51 1145 l 398 1145 l 398 1072 z "},"Ĭ":{"ha":449,"x_min":38,"x_max":411,"o":"m 280 63 l 390 27 l 390 0 l 59 0 l 59 27 l 169 63 l 169 867 l 59 903 l 59 931 l 390 931 l 390 903 l 280 867 l 280 63 z m 224 1106 l 224 1106 q 315 1127 278 1106 q 365 1192 353 1147 l 365 1192 l 411 1192 q 372 1089 395 1126 q 312 1036 348 1051 q 224 1020 276 1020 l 224 1020 q 136 1036 172 1020 q 77 1089 101 1051 q 38 1192 53 1126 l 38 1192 l 83 1192 q 134 1127 96 1147 q 224 1106 172 1106 z "},"Ĩ":{"ha":449,"x_min":37,"x_max":412,"o":"m 280 63 l 390 27 l 390 0 l 59 0 l 59 27 l 169 63 l 169 867 l 59 903 l 59 931 l 390 931 l 390 903 l 280 867 l 280 63 z m 367 1192 l 412 1192 q 385 1084 399 1122 q 352 1033 372 1047 q 303 1019 333 1019 l 303 1019 q 255 1032 278 1019 q 211 1061 232 1044 q 171 1090 190 1078 q 136 1103 152 1103 l 136 1103 q 117 1097 126 1103 q 99 1075 108 1092 q 81 1025 91 1058 l 81 1025 l 37 1025 q 64 1132 51 1095 q 97 1183 78 1169 q 146 1197 116 1197 l 146 1197 q 194 1185 171 1197 q 238 1156 217 1172 q 278 1126 259 1139 q 313 1114 297 1114 l 313 1114 q 332 1119 323 1114 q 350 1142 341 1125 q 367 1192 358 1159 l 367 1192 z "},"Į":{"ha":449,"x_min":59,"x_max":390,"o":"m 280 63 l 390 27 l 390 0 l 59 0 l 59 27 l 169 63 l 169 867 l 59 903 l 59 931 l 390 931 l 390 903 l 280 867 l 280 63 z m 267 32 l 205 -92 q 183 -144 191 -121 q 171 -188 174 -168 q 167 -225 167 -208 l 167 -225 q 189 -280 167 -260 q 242 -299 210 -299 l 242 -299 q 289 -286 265 -299 q 349 -237 314 -274 l 349 -237 l 369 -257 q 317 -321 343 -297 q 263 -357 290 -345 q 204 -368 235 -368 l 204 -368 q 120 -337 153 -368 q 86 -251 86 -306 l 86 -251 q 91 -205 86 -228 q 110 -153 97 -182 q 150 -86 124 -124 l 150 -86 l 230 32 l 267 32 z "},"İ":{"ha":449,"x_min":59,"x_max":390,"o":"m 280 63 l 390 27 l 390 0 l 59 0 l 59 27 l 169 63 l 169 867 l 59 903 l 59 931 l 390 931 l 390 903 l 280 867 l 280 63 z m 224 1027 l 224 1027 q 165 1051 188 1027 q 142 1108 142 1074 l 142 1108 q 165 1166 142 1143 q 224 1190 188 1190 l 224 1190 q 284 1166 261 1190 q 306 1108 306 1143 l 306 1108 q 284 1051 306 1074 q 224 1027 261 1027 z "},"Ȉ":{"ha":449,"x_min":-104,"x_max":390,"o":"m 280 63 l 390 27 l 390 0 l 59 0 l 59 27 l 169 63 l 169 867 l 59 903 l 59 931 l 390 931 l 390 903 l 280 867 l 280 63 z m 56 1192 l 160 1025 l 115 1025 l -104 1181 l -104 1192 l 56 1192 z m 283 1192 l 327 1025 l 290 1025 l 137 1181 l 137 1192 l 283 1192 z "},"Ȋ":{"ha":449,"x_min":38,"x_max":411,"o":"m 280 63 l 390 27 l 390 0 l 59 0 l 59 27 l 169 63 l 169 867 l 59 903 l 59 931 l 390 931 l 390 903 l 280 867 l 280 63 z m 224 1110 l 224 1110 q 134 1090 172 1110 q 83 1025 96 1069 l 83 1025 l 38 1025 q 77 1128 53 1090 q 137 1181 101 1165 q 224 1197 173 1197 l 224 1197 q 312 1181 276 1197 q 371 1128 347 1165 q 411 1025 395 1090 l 411 1025 l 365 1025 q 315 1090 353 1069 q 224 1110 278 1110 z "},"Ỉ":{"ha":449,"x_min":59,"x_max":390,"o":"m 280 63 l 390 27 l 390 0 l 59 0 l 59 27 l 169 63 l 169 867 l 59 903 l 59 931 l 390 931 l 390 903 l 280 867 l 280 63 z m 123 1153 l 123 1153 l 140 1247 q 237 1231 199 1242 q 299 1203 276 1219 q 331 1168 322 1188 q 341 1126 341 1149 l 341 1126 q 330 1074 341 1098 q 283 1031 318 1049 q 177 1002 248 1013 l 177 1002 l 170 1042 q 225 1055 206 1048 q 251 1073 244 1063 q 258 1098 258 1083 l 258 1098 q 248 1122 258 1112 q 208 1140 238 1133 q 123 1153 179 1148 z "},"Ị":{"ha":449,"x_min":59,"x_max":390,"o":"m 280 63 l 390 27 l 390 0 l 59 0 l 59 27 l 169 63 l 169 867 l 59 903 l 59 931 l 390 931 l 390 903 l 280 867 l 280 63 z m 224 -258 l 224 -258 q 165 -235 188 -258 q 142 -177 142 -211 l 142 -177 q 165 -119 142 -142 q 224 -96 188 -96 l 224 -96 q 284 -119 261 -96 q 306 -177 306 -142 l 306 -177 q 284 -235 306 -211 q 224 -258 261 -258 z "},"Ĵ":{"ha":586,"x_min":8,"x_max":580,"o":"m 437 867 l 439 299 q 414 166 439 224 q 345 68 389 108 q 244 7 301 28 q 123 -14 188 -14 l 123 -14 q 64 -5 90 -14 q 23 21 38 4 q 8 61 8 38 l 8 61 q 23 101 8 84 q 67 118 37 118 l 67 118 q 94 108 79 118 q 127 86 109 99 q 164 64 144 74 q 207 54 184 54 l 207 54 q 291 96 256 54 q 326 240 326 138 l 326 240 l 326 867 l 216 903 l 216 931 l 546 931 l 546 903 l 437 867 z m 528 1025 l 373 1115 l 390 1115 l 235 1025 l 183 1025 l 328 1192 l 434 1192 l 580 1025 l 528 1025 z "},"Ķ":{"ha":983,"x_min":59,"x_max":993,"o":"m 447 522 l 886 66 l 993 27 l 993 0 l 633 0 l 633 27 l 738 64 l 375 449 l 241 449 l 241 513 l 383 513 l 724 871 l 616 903 l 616 931 l 917 931 l 917 903 l 811 867 l 424 481 l 447 522 z m 390 903 l 280 867 l 280 63 l 390 27 l 390 0 l 59 0 l 59 27 l 169 63 l 169 867 l 59 903 l 59 931 l 390 931 l 390 903 z m 432 -368 l 417 -322 q 493 -290 472 -306 q 513 -249 513 -274 l 513 -249 q 499 -216 513 -228 q 467 -194 485 -203 q 435 -176 449 -185 q 421 -157 421 -167 l 421 -157 q 444 -98 421 -122 q 507 -75 468 -75 l 507 -75 q 573 -103 546 -75 q 599 -183 599 -131 l 599 -183 q 585 -261 599 -225 q 535 -325 572 -297 q 432 -368 499 -352 l 432 -368 z "},"Ĺ":{"ha":811,"x_min":59,"x_max":786,"o":"m 786 272 l 730 -41 l 715 -41 l 633 0 l 210 0 l 210 65 l 719 65 l 620 45 l 757 279 l 786 272 z m 390 903 l 280 867 l 280 0 l 59 0 l 59 27 l 169 63 l 169 867 l 59 903 l 59 931 l 390 931 l 390 903 z m 240 1025 l 199 1025 l 272 1192 l 426 1192 l 426 1179 l 240 1025 z "},"Ļ":{"ha":811,"x_min":59,"x_max":786,"o":"m 786 272 l 730 -41 l 715 -41 l 633 0 l 210 0 l 210 65 l 719 65 l 620 45 l 757 279 l 786 272 z m 390 903 l 280 867 l 280 0 l 59 0 l 59 27 l 169 63 l 169 867 l 59 903 l 59 931 l 390 931 l 390 903 z m 347 -368 l 333 -322 q 408 -290 388 -306 q 428 -249 428 -274 l 428 -249 q 415 -216 428 -228 q 382 -194 401 -203 q 350 -176 364 -185 q 336 -157 336 -167 l 336 -157 q 360 -98 336 -122 q 422 -75 383 -75 l 422 -75 q 488 -103 461 -75 q 515 -183 515 -131 l 515 -183 q 501 -261 515 -225 q 451 -325 487 -297 q 347 -368 415 -352 l 347 -368 z "},"Ł":{"ha":841,"x_min":51,"x_max":816,"o":"m 272 414 l 216 394 l 51 296 l 51 372 l 216 470 l 272 490 l 517 636 l 517 560 l 272 414 z m 816 272 l 760 -41 l 745 -41 l 663 0 l 240 0 l 240 65 l 749 65 l 650 45 l 787 279 l 816 272 z m 419 903 l 310 867 l 310 0 l 89 0 l 89 27 l 199 63 l 199 867 l 89 903 l 89 931 l 419 931 l 419 903 z "},"Ľ":{"ha":813,"x_min":59,"x_max":786,"o":"m 786 272 l 730 -41 l 715 -41 l 633 0 l 210 0 l 210 65 l 719 65 l 620 45 l 757 279 l 786 272 z m 390 903 l 280 867 l 280 0 l 59 0 l 59 27 l 169 63 l 169 867 l 59 903 l 59 931 l 390 931 l 390 903 z m 575 679 l 531 679 l 562 930 l 693 930 l 693 916 l 575 679 z "},"Ŀ":{"ha":813,"x_min":59,"x_max":786,"o":"m 786 272 l 730 -41 l 715 -41 l 633 0 l 210 0 l 210 65 l 719 65 l 620 45 l 757 279 l 786 272 z m 390 903 l 280 867 l 280 0 l 59 0 l 59 27 l 169 63 l 169 867 l 59 903 l 59 931 l 390 931 l 390 903 z m 628 406 l 628 406 q 569 430 592 406 q 547 488 547 453 l 547 488 q 569 545 547 522 q 628 569 592 569 l 628 569 q 688 545 665 569 q 710 488 710 522 l 710 488 q 688 430 710 453 q 628 406 665 406 z "},"Ñ":{"ha":1042,"x_min":57,"x_max":992,"o":"m 60 27 l 170 63 l 170 856 l 57 903 l 57 931 l 275 931 l 849 173 l 816 109 l 816 867 l 697 903 l 697 931 l 992 931 l 992 903 l 883 867 l 883 -13 l 853 -13 l 214 829 l 237 854 l 237 63 l 356 27 l 356 0 l 60 0 l 60 27 z m 677 1192 l 722 1192 q 695 1084 708 1122 q 662 1033 681 1047 q 613 1019 643 1019 l 613 1019 q 565 1032 588 1019 q 520 1061 542 1044 q 481 1090 499 1078 q 446 1103 462 1103 l 446 1103 q 426 1097 435 1103 q 409 1075 417 1092 q 391 1025 401 1058 l 391 1025 l 347 1025 q 374 1132 360 1095 q 407 1183 388 1169 q 456 1197 426 1197 l 456 1197 q 503 1185 481 1197 q 548 1156 526 1172 q 588 1126 569 1139 q 622 1114 606 1114 l 622 1114 q 642 1119 633 1114 q 659 1142 651 1125 q 677 1192 668 1159 l 677 1192 z "},"Ń":{"ha":1042,"x_min":57,"x_max":992,"o":"m 60 27 l 170 63 l 170 856 l 57 903 l 57 931 l 275 931 l 849 173 l 816 109 l 816 867 l 697 903 l 697 931 l 992 931 l 992 903 l 883 867 l 883 -13 l 853 -13 l 214 829 l 237 854 l 237 63 l 356 27 l 356 0 l 60 0 l 60 27 z m 549 1025 l 509 1025 l 581 1192 l 735 1192 l 735 1179 l 549 1025 z "},"Ņ":{"ha":1042,"x_min":57,"x_max":992,"o":"m 60 27 l 170 63 l 170 856 l 57 903 l 57 931 l 275 931 l 849 173 l 816 109 l 816 867 l 697 903 l 697 931 l 992 931 l 992 903 l 883 867 l 883 -13 l 853 -13 l 214 829 l 237 854 l 237 63 l 356 27 l 356 0 l 60 0 l 60 27 z m 468 -368 l 453 -322 q 529 -290 508 -306 q 549 -249 549 -274 l 549 -249 q 535 -216 549 -228 q 503 -194 522 -203 q 471 -176 485 -185 q 457 -157 457 -167 l 457 -157 q 481 -98 457 -122 q 543 -75 504 -75 l 543 -75 q 609 -103 582 -75 q 635 -183 635 -131 l 635 -183 q 622 -261 635 -225 q 572 -325 608 -297 q 468 -368 535 -352 l 468 -368 z "},"Ň":{"ha":1042,"x_min":57,"x_max":992,"o":"m 60 27 l 170 63 l 170 856 l 57 903 l 57 931 l 275 931 l 849 173 l 816 109 l 816 867 l 697 903 l 697 931 l 992 931 l 992 903 l 883 867 l 883 -13 l 853 -13 l 214 829 l 237 854 l 237 63 l 356 27 l 356 0 l 60 0 l 60 27 z m 388 1192 l 542 1101 l 526 1101 l 681 1192 l 733 1192 l 587 1025 l 481 1025 l 335 1192 l 388 1192 z "},"Ŋ":{"ha":1042,"x_min":57,"x_max":992,"o":"m 279 931 l 857 124 l 853 -61 l 214 829 l 237 854 l 237 63 l 356 27 l 356 0 l 60 0 l 60 27 l 170 63 l 170 856 l 57 903 l 57 931 l 279 931 z m 883 867 l 883 -49 q 852 -230 883 -159 q 764 -334 821 -301 q 631 -368 708 -368 l 631 -368 q 533 -347 567 -368 q 499 -290 499 -326 l 499 -290 q 512 -248 499 -266 q 551 -229 525 -229 l 551 -229 q 579 -239 565 -229 q 609 -260 593 -248 q 643 -282 625 -272 q 683 -291 662 -291 l 683 -291 q 749 -271 719 -291 q 798 -199 779 -251 q 816 -55 816 -148 l 816 -55 l 816 867 l 697 903 l 697 931 l 992 931 l 992 903 l 883 867 z "},"Ò":{"ha":1059,"x_min":65,"x_max":994,"o":"m 528 944 l 528 944 q 715 909 630 944 q 863 811 800 874 q 959 660 925 747 q 994 467 994 572 l 994 467 q 960 273 994 361 q 863 121 926 185 q 716 21 801 56 q 531 -14 632 -14 l 531 -14 q 344 21 429 -14 q 197 120 259 56 q 100 271 134 183 q 65 464 65 359 l 65 464 q 99 657 65 569 q 196 810 133 745 q 343 909 258 874 q 528 944 428 944 z m 535 50 l 535 50 q 715 98 640 50 q 832 235 791 147 q 873 444 873 324 l 873 444 q 828 681 873 583 q 705 829 783 778 q 524 881 626 881 l 524 881 q 344 832 419 881 q 227 695 268 784 q 186 486 186 607 l 186 486 q 231 250 186 348 q 355 101 276 153 q 535 50 434 50 z m 482 1192 l 554 1025 l 514 1025 l 328 1179 l 328 1192 l 482 1192 z "},"Ó":{"ha":1059,"x_min":65,"x_max":994,"o":"m 528 944 l 528 944 q 715 909 630 944 q 863 811 800 874 q 959 660 925 747 q 994 467 994 572 l 994 467 q 960 273 994 361 q 863 121 926 185 q 716 21 801 56 q 531 -14 632 -14 l 531 -14 q 344 21 429 -14 q 197 120 259 56 q 100 271 134 183 q 65 464 65 359 l 65 464 q 99 657 65 569 q 196 810 133 745 q 343 909 258 874 q 528 944 428 944 z m 535 50 l 535 50 q 715 98 640 50 q 832 235 791 147 q 873 444 873 324 l 873 444 q 828 681 873 583 q 705 829 783 778 q 524 881 626 881 l 524 881 q 344 832 419 881 q 227 695 268 784 q 186 486 186 607 l 186 486 q 231 250 186 348 q 355 101 276 153 q 535 50 434 50 z m 544 1025 l 504 1025 l 576 1192 l 731 1192 l 731 1179 l 544 1025 z "},"Ô":{"ha":1059,"x_min":65,"x_max":994,"o":"m 528 944 l 528 944 q 715 909 630 944 q 863 811 800 874 q 959 660 925 747 q 994 467 994 572 l 994 467 q 960 273 994 361 q 863 121 926 185 q 716 21 801 56 q 531 -14 632 -14 l 531 -14 q 344 21 429 -14 q 197 120 259 56 q 100 271 134 183 q 65 464 65 359 l 65 464 q 99 657 65 569 q 196 810 133 745 q 343 909 258 874 q 528 944 428 944 z m 535 50 l 535 50 q 715 98 640 50 q 832 235 791 147 q 873 444 873 324 l 873 444 q 828 681 873 583 q 705 829 783 778 q 524 881 626 881 l 524 881 q 344 832 419 881 q 227 695 268 784 q 186 486 186 607 l 186 486 q 231 250 186 348 q 355 101 276 153 q 535 50 434 50 z m 676 1025 l 521 1115 l 538 1115 l 383 1025 l 331 1025 l 476 1192 l 582 1192 l 728 1025 l 676 1025 z "},"Õ":{"ha":1059,"x_min":65,"x_max":994,"o":"m 528 944 l 528 944 q 715 909 630 944 q 863 811 800 874 q 959 660 925 747 q 994 467 994 572 l 994 467 q 960 273 994 361 q 863 121 926 185 q 716 21 801 56 q 531 -14 632 -14 l 531 -14 q 344 21 429 -14 q 197 120 259 56 q 100 271 134 183 q 65 464 65 359 l 65 464 q 99 657 65 569 q 196 810 133 745 q 343 909 258 874 q 528 944 428 944 z m 535 50 l 535 50 q 715 98 640 50 q 832 235 791 147 q 873 444 873 324 l 873 444 q 828 681 873 583 q 705 829 783 778 q 524 881 626 881 l 524 881 q 344 832 419 881 q 227 695 268 784 q 186 486 186 607 l 186 486 q 231 250 186 348 q 355 101 276 153 q 535 50 434 50 z m 672 1192 l 717 1192 q 690 1084 703 1122 q 657 1033 676 1047 q 608 1019 638 1019 l 608 1019 q 560 1032 583 1019 q 516 1061 537 1044 q 476 1090 494 1078 q 441 1103 457 1103 l 441 1103 q 422 1097 431 1103 q 404 1075 413 1092 q 386 1025 396 1058 l 386 1025 l 342 1025 q 369 1132 356 1095 q 402 1183 383 1169 q 451 1197 421 1197 l 451 1197 q 499 1185 476 1197 q 543 1156 522 1172 q 583 1126 564 1139 q 617 1114 601 1114 l 617 1114 q 637 1119 628 1114 q 655 1142 646 1125 q 672 1192 663 1159 l 672 1192 z "},"Ö":{"ha":1059,"x_min":65,"x_max":994,"o":"m 528 944 l 528 944 q 715 909 630 944 q 863 811 800 874 q 959 660 925 747 q 994 467 994 572 l 994 467 q 960 273 994 361 q 863 121 926 185 q 716 21 801 56 q 531 -14 632 -14 l 531 -14 q 344 21 429 -14 q 197 120 259 56 q 100 271 134 183 q 65 464 65 359 l 65 464 q 99 657 65 569 q 196 810 133 745 q 343 909 258 874 q 528 944 428 944 z m 535 50 l 535 50 q 715 98 640 50 q 832 235 791 147 q 873 444 873 324 l 873 444 q 828 681 873 583 q 705 829 783 778 q 524 881 626 881 l 524 881 q 344 832 419 881 q 227 695 268 784 q 186 486 186 607 l 186 486 q 231 250 186 348 q 355 101 276 153 q 535 50 434 50 z m 403 1033 l 403 1033 q 348 1055 369 1033 q 327 1108 327 1077 l 327 1108 q 348 1162 327 1140 q 403 1184 369 1184 l 403 1184 q 459 1162 438 1184 q 480 1108 480 1140 l 480 1108 q 459 1055 480 1077 q 403 1033 438 1033 z m 655 1033 l 655 1033 q 600 1055 621 1033 q 578 1108 578 1077 l 578 1108 q 600 1162 578 1140 q 655 1184 621 1184 l 655 1184 q 710 1162 689 1184 q 731 1108 731 1140 l 731 1108 q 710 1055 731 1077 q 655 1033 689 1033 z "},"Ō":{"ha":1059,"x_min":65,"x_max":994,"o":"m 528 944 l 528 944 q 715 909 630 944 q 863 811 800 874 q 959 660 925 747 q 994 467 994 572 l 994 467 q 960 273 994 361 q 863 121 926 185 q 716 21 801 56 q 531 -14 632 -14 l 531 -14 q 344 21 429 -14 q 197 120 259 56 q 100 271 134 183 q 65 464 65 359 l 65 464 q 99 657 65 569 q 196 810 133 745 q 343 909 258 874 q 528 944 428 944 z m 535 50 l 535 50 q 715 98 640 50 q 832 235 791 147 q 873 444 873 324 l 873 444 q 828 681 873 583 q 705 829 783 778 q 524 881 626 881 l 524 881 q 344 832 419 881 q 227 695 268 784 q 186 486 186 607 l 186 486 q 231 250 186 348 q 355 101 276 153 q 535 50 434 50 z m 703 1072 l 356 1072 l 356 1145 l 703 1145 l 703 1072 z "},"Ŏ":{"ha":1059,"x_min":65,"x_max":994,"o":"m 528 944 l 528 944 q 715 909 630 944 q 863 811 800 874 q 959 660 925 747 q 994 467 994 572 l 994 467 q 960 273 994 361 q 863 121 926 185 q 716 21 801 56 q 531 -14 632 -14 l 531 -14 q 344 21 429 -14 q 197 120 259 56 q 100 271 134 183 q 65 464 65 359 l 65 464 q 99 657 65 569 q 196 810 133 745 q 343 909 258 874 q 528 944 428 944 z m 535 50 l 535 50 q 715 98 640 50 q 832 235 791 147 q 873 444 873 324 l 873 444 q 828 681 873 583 q 705 829 783 778 q 524 881 626 881 l 524 881 q 344 832 419 881 q 227 695 268 784 q 186 486 186 607 l 186 486 q 231 250 186 348 q 355 101 276 153 q 535 50 434 50 z m 529 1106 l 529 1106 q 620 1127 583 1106 q 670 1192 658 1147 l 670 1192 l 716 1192 q 676 1089 700 1126 q 617 1036 653 1051 q 529 1020 581 1020 l 529 1020 q 441 1036 477 1020 q 382 1089 406 1051 q 342 1192 358 1126 l 342 1192 l 388 1192 q 439 1127 401 1147 q 529 1106 476 1106 z "},"Ő":{"ha":1059,"x_min":65,"x_max":994,"o":"m 528 944 l 528 944 q 715 909 630 944 q 863 811 800 874 q 959 660 925 747 q 994 467 994 572 l 994 467 q 960 273 994 361 q 863 121 926 185 q 716 21 801 56 q 531 -14 632 -14 l 531 -14 q 344 21 429 -14 q 197 120 259 56 q 100 271 134 183 q 65 464 65 359 l 65 464 q 99 657 65 569 q 196 810 133 745 q 343 909 258 874 q 528 944 428 944 z m 535 50 l 535 50 q 715 98 640 50 q 832 235 791 147 q 873 444 873 324 l 873 444 q 828 681 873 583 q 705 829 783 778 q 524 881 626 881 l 524 881 q 344 832 419 881 q 227 695 268 784 q 186 486 186 607 l 186 486 q 231 250 186 348 q 355 101 276 153 q 535 50 434 50 z m 638 1025 l 593 1025 l 697 1192 l 858 1192 l 858 1181 l 638 1025 z m 463 1025 l 426 1025 l 470 1192 l 617 1192 l 617 1181 l 463 1025 z "},"Ơ":{"ha":1060,"x_min":65,"x_max":994,"o":"m 535 50 l 535 50 q 715 98 640 50 q 832 235 791 147 q 873 444 873 324 l 873 444 q 828 681 873 583 q 705 829 783 778 q 524 881 626 881 l 524 881 q 344 832 419 881 q 227 695 268 784 q 186 486 186 607 l 186 486 q 231 250 186 348 q 355 101 276 153 q 535 50 434 50 z m 528 944 l 528 944 q 603 940 566 944 q 680 930 641 935 q 760 924 719 924 l 760 924 q 840 938 818 924 q 863 974 863 952 l 863 974 q 858 1003 863 992 q 850 1024 854 1015 q 846 1047 846 1034 l 846 1047 q 861 1080 846 1067 q 898 1093 876 1093 l 898 1093 q 949 1072 931 1093 q 967 1014 967 1050 l 967 1014 q 919 905 967 944 q 765 872 872 865 l 765 872 l 765 885 q 887 783 835 845 q 966 641 938 721 q 994 467 994 560 l 994 467 q 960 273 994 361 q 863 121 926 185 q 716 21 801 56 q 531 -14 632 -14 l 531 -14 q 344 21 429 -14 q 197 120 259 56 q 100 271 134 183 q 65 464 65 359 l 65 464 q 99 657 65 569 q 196 810 133 745 q 343 909 258 874 q 528 944 428 944 z "},"Ǫ":{"ha":1059,"x_min":65,"x_max":994,"o":"m 528 944 l 528 944 q 715 909 630 944 q 863 811 800 874 q 959 660 925 747 q 994 467 994 572 l 994 467 q 960 273 994 361 q 863 121 926 185 q 716 21 801 56 q 531 -14 632 -14 l 531 -14 q 344 21 429 -14 q 197 120 259 56 q 100 271 134 183 q 65 464 65 359 l 65 464 q 99 657 65 569 q 196 810 133 745 q 343 909 258 874 q 528 944 428 944 z m 535 50 l 535 50 q 715 98 640 50 q 832 235 791 147 q 873 444 873 324 l 873 444 q 828 681 873 583 q 705 829 783 778 q 524 881 626 881 l 524 881 q 344 832 419 881 q 227 695 268 784 q 186 486 186 607 l 186 486 q 231 250 186 348 q 355 101 276 153 q 535 50 434 50 z m 605 32 l 543 -92 q 521 -144 529 -121 q 509 -188 513 -168 q 506 -225 506 -208 l 506 -225 q 527 -280 506 -260 q 581 -299 548 -299 l 581 -299 q 627 -286 603 -299 q 688 -237 652 -274 l 688 -237 l 708 -257 q 655 -321 681 -297 q 601 -357 628 -345 q 542 -368 574 -368 l 542 -368 q 458 -337 492 -368 q 424 -251 424 -306 l 424 -251 q 430 -205 424 -228 q 449 -153 435 -182 q 488 -86 463 -124 l 488 -86 l 568 32 l 605 32 z "},"Ȍ":{"ha":1059,"x_min":65,"x_max":994,"o":"m 528 944 l 528 944 q 715 909 630 944 q 863 811 800 874 q 959 660 925 747 q 994 467 994 572 l 994 467 q 960 273 994 361 q 863 121 926 185 q 716 21 801 56 q 531 -14 632 -14 l 531 -14 q 344 21 429 -14 q 197 120 259 56 q 100 271 134 183 q 65 464 65 359 l 65 464 q 99 657 65 569 q 196 810 133 745 q 343 909 258 874 q 528 944 428 944 z m 535 50 l 535 50 q 715 98 640 50 q 832 235 791 147 q 873 444 873 324 l 873 444 q 828 681 873 583 q 705 829 783 778 q 524 881 626 881 l 524 881 q 344 832 419 881 q 227 695 268 784 q 186 486 186 607 l 186 486 q 231 250 186 348 q 355 101 276 153 q 535 50 434 50 z m 361 1192 l 465 1025 l 420 1025 l 201 1181 l 201 1192 l 361 1192 z m 588 1192 l 632 1025 l 595 1025 l 442 1181 l 442 1192 l 588 1192 z "},"Ȏ":{"ha":1059,"x_min":65,"x_max":994,"o":"m 528 944 l 528 944 q 715 909 630 944 q 863 811 800 874 q 959 660 925 747 q 994 467 994 572 l 994 467 q 960 273 994 361 q 863 121 926 185 q 716 21 801 56 q 531 -14 632 -14 l 531 -14 q 344 21 429 -14 q 197 120 259 56 q 100 271 134 183 q 65 464 65 359 l 65 464 q 99 657 65 569 q 196 810 133 745 q 343 909 258 874 q 528 944 428 944 z m 535 50 l 535 50 q 715 98 640 50 q 832 235 791 147 q 873 444 873 324 l 873 444 q 828 681 873 583 q 705 829 783 778 q 524 881 626 881 l 524 881 q 344 832 419 881 q 227 695 268 784 q 186 486 186 607 l 186 486 q 231 250 186 348 q 355 101 276 153 q 535 50 434 50 z m 529 1110 l 529 1110 q 439 1090 476 1110 q 388 1025 401 1069 l 388 1025 l 342 1025 q 382 1128 358 1090 q 442 1181 406 1165 q 529 1197 478 1197 l 529 1197 q 617 1181 581 1197 q 676 1128 652 1165 q 716 1025 700 1090 l 716 1025 l 670 1025 q 620 1090 658 1069 q 529 1110 583 1110 z "},"Ȫ":{"ha":1059,"x_min":65,"x_max":994,"o":"m 528 944 l 528 944 q 715 909 630 944 q 863 811 800 874 q 959 660 925 747 q 994 467 994 572 l 994 467 q 960 273 994 361 q 863 121 926 185 q 716 21 801 56 q 531 -14 632 -14 l 531 -14 q 344 21 429 -14 q 197 120 259 56 q 100 271 134 183 q 65 464 65 359 l 65 464 q 99 657 65 569 q 196 810 133 745 q 343 909 258 874 q 528 944 428 944 z m 535 50 l 535 50 q 715 98 640 50 q 832 235 791 147 q 873 444 873 324 l 873 444 q 828 681 873 583 q 705 829 783 778 q 524 881 626 881 l 524 881 q 344 832 419 881 q 227 695 268 784 q 186 486 186 607 l 186 486 q 231 250 186 348 q 355 101 276 153 q 535 50 434 50 z m 403 1033 l 403 1033 q 348 1055 369 1033 q 327 1108 327 1077 l 327 1108 q 348 1162 327 1140 q 403 1184 369 1184 l 403 1184 q 459 1162 438 1184 q 480 1108 480 1140 l 480 1108 q 459 1055 480 1077 q 403 1033 438 1033 z m 655 1033 l 655 1033 q 600 1055 621 1033 q 578 1108 578 1077 l 578 1108 q 600 1162 578 1140 q 655 1184 621 1184 l 655 1184 q 710 1162 689 1184 q 731 1108 731 1140 l 731 1108 q 710 1055 731 1077 q 655 1033 689 1033 z m 703 1306 l 356 1306 l 356 1379 l 703 1379 l 703 1306 z "},"Ȭ":{"ha":1059,"x_min":65,"x_max":994,"o":"m 528 944 l 528 944 q 715 909 630 944 q 863 811 800 874 q 959 660 925 747 q 994 467 994 572 l 994 467 q 960 273 994 361 q 863 121 926 185 q 716 21 801 56 q 531 -14 632 -14 l 531 -14 q 344 21 429 -14 q 197 120 259 56 q 100 271 134 183 q 65 464 65 359 l 65 464 q 99 657 65 569 q 196 810 133 745 q 343 909 258 874 q 528 944 428 944 z m 535 50 l 535 50 q 715 98 640 50 q 832 235 791 147 q 873 444 873 324 l 873 444 q 828 681 873 583 q 705 829 783 778 q 524 881 626 881 l 524 881 q 344 832 419 881 q 227 695 268 784 q 186 486 186 607 l 186 486 q 231 250 186 348 q 355 101 276 153 q 535 50 434 50 z m 672 1192 l 717 1192 q 690 1084 703 1122 q 657 1033 676 1047 q 608 1019 638 1019 l 608 1019 q 560 1032 583 1019 q 516 1061 537 1044 q 476 1090 494 1078 q 441 1103 457 1103 l 441 1103 q 422 1097 431 1103 q 404 1075 413 1092 q 386 1025 396 1058 l 386 1025 l 342 1025 q 369 1132 356 1095 q 402 1183 383 1169 q 451 1197 421 1197 l 451 1197 q 499 1185 476 1197 q 543 1156 522 1172 q 583 1126 564 1139 q 617 1114 601 1114 l 617 1114 q 637 1119 628 1114 q 655 1142 646 1125 q 672 1192 663 1159 l 672 1192 z m 703 1306 l 356 1306 l 356 1379 l 703 1379 l 703 1306 z "},"Ȱ":{"ha":1059,"x_min":65,"x_max":994,"o":"m 528 944 l 528 944 q 715 909 630 944 q 863 811 800 874 q 959 660 925 747 q 994 467 994 572 l 994 467 q 960 273 994 361 q 863 121 926 185 q 716 21 801 56 q 531 -14 632 -14 l 531 -14 q 344 21 429 -14 q 197 120 259 56 q 100 271 134 183 q 65 464 65 359 l 65 464 q 99 657 65 569 q 196 810 133 745 q 343 909 258 874 q 528 944 428 944 z m 535 50 l 535 50 q 715 98 640 50 q 832 235 791 147 q 873 444 873 324 l 873 444 q 828 681 873 583 q 705 829 783 778 q 524 881 626 881 l 524 881 q 344 832 419 881 q 227 695 268 784 q 186 486 186 607 l 186 486 q 231 250 186 348 q 355 101 276 153 q 535 50 434 50 z m 529 1027 l 529 1027 q 470 1051 493 1027 q 447 1108 447 1074 l 447 1108 q 470 1166 447 1143 q 529 1190 493 1190 l 529 1190 q 589 1166 566 1190 q 611 1108 611 1143 l 611 1108 q 589 1051 611 1074 q 529 1027 566 1027 z m 703 1306 l 356 1306 l 356 1379 l 703 1379 l 703 1306 z "},"Ọ":{"ha":1059,"x_min":65,"x_max":994,"o":"m 528 944 l 528 944 q 715 909 630 944 q 863 811 800 874 q 959 660 925 747 q 994 467 994 572 l 994 467 q 960 273 994 361 q 863 121 926 185 q 716 21 801 56 q 531 -14 632 -14 l 531 -14 q 344 21 429 -14 q 197 120 259 56 q 100 271 134 183 q 65 464 65 359 l 65 464 q 99 657 65 569 q 196 810 133 745 q 343 909 258 874 q 528 944 428 944 z m 535 50 l 535 50 q 715 98 640 50 q 832 235 791 147 q 873 444 873 324 l 873 444 q 828 681 873 583 q 705 829 783 778 q 524 881 626 881 l 524 881 q 344 832 419 881 q 227 695 268 784 q 186 486 186 607 l 186 486 q 231 250 186 348 q 355 101 276 153 q 535 50 434 50 z m 529 -258 l 529 -258 q 470 -235 493 -258 q 447 -177 447 -211 l 447 -177 q 470 -119 447 -142 q 529 -96 493 -96 l 529 -96 q 589 -119 566 -96 q 611 -177 611 -142 l 611 -177 q 589 -235 611 -211 q 529 -258 566 -258 z "},"Ỏ":{"ha":1059,"x_min":65,"x_max":994,"o":"m 528 944 l 528 944 q 715 909 630 944 q 863 811 800 874 q 959 660 925 747 q 994 467 994 572 l 994 467 q 960 273 994 361 q 863 121 926 185 q 716 21 801 56 q 531 -14 632 -14 l 531 -14 q 344 21 429 -14 q 197 120 259 56 q 100 271 134 183 q 65 464 65 359 l 65 464 q 99 657 65 569 q 196 810 133 745 q 343 909 258 874 q 528 944 428 944 z m 535 50 l 535 50 q 715 98 640 50 q 832 235 791 147 q 873 444 873 324 l 873 444 q 828 681 873 583 q 705 829 783 778 q 524 881 626 881 l 524 881 q 344 832 419 881 q 227 695 268 784 q 186 486 186 607 l 186 486 q 231 250 186 348 q 355 101 276 153 q 535 50 434 50 z m 428 1153 l 428 1153 l 445 1247 q 542 1231 503 1242 q 603 1203 581 1219 q 636 1168 626 1188 q 646 1126 646 1149 l 646 1126 q 634 1074 646 1098 q 588 1031 623 1049 q 482 1002 553 1013 l 482 1002 l 475 1042 q 530 1055 510 1048 q 556 1073 549 1063 q 563 1098 563 1083 l 563 1098 q 553 1122 563 1112 q 513 1140 542 1133 q 428 1153 484 1148 z "},"Ố":{"ha":1059,"x_min":65,"x_max":994,"o":"m 528 944 l 528 944 q 715 909 630 944 q 863 811 800 874 q 959 660 925 747 q 994 467 994 572 l 994 467 q 960 273 994 361 q 863 121 926 185 q 716 21 801 56 q 531 -14 632 -14 l 531 -14 q 344 21 429 -14 q 197 120 259 56 q 100 271 134 183 q 65 464 65 359 l 65 464 q 99 657 65 569 q 196 810 133 745 q 343 909 258 874 q 528 944 428 944 z m 535 50 l 535 50 q 715 98 640 50 q 832 235 791 147 q 873 444 873 324 l 873 444 q 828 681 873 583 q 705 829 783 778 q 524 881 626 881 l 524 881 q 344 832 419 881 q 227 695 268 784 q 186 486 186 607 l 186 486 q 231 250 186 348 q 355 101 276 153 q 535 50 434 50 z m 729 1129 l 689 1129 l 751 1279 l 908 1279 l 908 1269 l 729 1129 z m 676 1025 l 521 1115 l 538 1115 l 383 1025 l 331 1025 l 476 1192 l 582 1192 l 728 1025 l 676 1025 z "},"Ồ":{"ha":1059,"x_min":65,"x_max":994,"o":"m 528 944 l 528 944 q 715 909 630 944 q 863 811 800 874 q 959 660 925 747 q 994 467 994 572 l 994 467 q 960 273 994 361 q 863 121 926 185 q 716 21 801 56 q 531 -14 632 -14 l 531 -14 q 344 21 429 -14 q 197 120 259 56 q 100 271 134 183 q 65 464 65 359 l 65 464 q 99 657 65 569 q 196 810 133 745 q 343 909 258 874 q 528 944 428 944 z m 535 50 l 535 50 q 715 98 640 50 q 832 235 791 147 q 873 444 873 324 l 873 444 q 828 681 873 583 q 705 829 783 778 q 524 881 626 881 l 524 881 q 344 832 419 881 q 227 695 268 784 q 186 486 186 607 l 186 486 q 231 250 186 348 q 355 101 276 153 q 535 50 434 50 z m 307 1279 l 369 1129 l 329 1129 l 151 1269 l 151 1279 l 307 1279 z m 521 1115 l 538 1115 l 383 1025 l 331 1025 l 476 1192 l 582 1192 l 728 1025 l 676 1025 l 521 1115 z "},"Ổ":{"ha":1059,"x_min":65,"x_max":994,"o":"m 528 944 l 528 944 q 715 909 630 944 q 863 811 800 874 q 959 660 925 747 q 994 467 994 572 l 994 467 q 960 273 994 361 q 863 121 926 185 q 716 21 801 56 q 531 -14 632 -14 l 531 -14 q 344 21 429 -14 q 197 120 259 56 q 100 271 134 183 q 65 464 65 359 l 65 464 q 99 657 65 569 q 196 810 133 745 q 343 909 258 874 q 528 944 428 944 z m 535 50 l 535 50 q 715 98 640 50 q 832 235 791 147 q 873 444 873 324 l 873 444 q 828 681 873 583 q 705 829 783 778 q 524 881 626 881 l 524 881 q 344 832 419 881 q 227 695 268 784 q 186 486 186 607 l 186 486 q 231 250 186 348 q 355 101 276 153 q 535 50 434 50 z m 521 1115 l 538 1115 l 383 1025 l 331 1025 l 476 1192 l 582 1192 l 728 1025 l 676 1025 l 521 1115 z m 699 1125 l 694 1160 q 760 1181 745 1169 q 775 1208 775 1192 l 775 1208 q 765 1229 775 1220 q 728 1245 756 1238 q 648 1256 701 1252 l 648 1256 l 665 1340 q 756 1326 719 1336 q 814 1302 792 1316 q 845 1271 835 1288 q 854 1233 854 1253 l 854 1233 q 841 1185 854 1206 q 795 1148 828 1163 q 699 1125 762 1133 l 699 1125 z "},"Ỗ":{"ha":1059,"x_min":65,"x_max":994,"o":"m 528 944 l 528 944 q 715 909 630 944 q 863 811 800 874 q 959 660 925 747 q 994 467 994 572 l 994 467 q 960 273 994 361 q 863 121 926 185 q 716 21 801 56 q 531 -14 632 -14 l 531 -14 q 344 21 429 -14 q 197 120 259 56 q 100 271 134 183 q 65 464 65 359 l 65 464 q 99 657 65 569 q 196 810 133 745 q 343 909 258 874 q 528 944 428 944 z m 535 50 l 535 50 q 715 98 640 50 q 832 235 791 147 q 873 444 873 324 l 873 444 q 828 681 873 583 q 705 829 783 778 q 524 881 626 881 l 524 881 q 344 832 419 881 q 227 695 268 784 q 186 486 186 607 l 186 486 q 231 250 186 348 q 355 101 276 153 q 535 50 434 50 z m 521 1062 l 538 1062 l 390 993 l 338 993 l 476 1129 l 583 1129 l 721 993 l 668 993 l 521 1062 z m 396 1160 l 396 1160 l 356 1160 q 391 1231 375 1203 q 426 1271 407 1258 q 474 1283 446 1283 l 474 1283 q 506 1276 489 1283 q 540 1261 522 1269 q 573 1245 557 1252 q 604 1238 590 1238 l 604 1238 q 638 1248 626 1238 q 663 1282 651 1257 l 663 1282 l 703 1282 q 668 1211 684 1238 q 632 1171 651 1184 q 585 1158 613 1158 l 585 1158 q 552 1165 569 1158 q 518 1181 535 1172 q 485 1197 501 1190 q 454 1203 469 1203 l 454 1203 q 420 1194 433 1203 q 396 1160 408 1185 z "},"Ộ":{"ha":1059,"x_min":65,"x_max":994,"o":"m 528 944 l 528 944 q 715 909 630 944 q 863 811 800 874 q 959 660 925 747 q 994 467 994 572 l 994 467 q 960 273 994 361 q 863 121 926 185 q 716 21 801 56 q 531 -14 632 -14 l 531 -14 q 344 21 429 -14 q 197 120 259 56 q 100 271 134 183 q 65 464 65 359 l 65 464 q 99 657 65 569 q 196 810 133 745 q 343 909 258 874 q 528 944 428 944 z m 535 50 l 535 50 q 715 98 640 50 q 832 235 791 147 q 873 444 873 324 l 873 444 q 828 681 873 583 q 705 829 783 778 q 524 881 626 881 l 524 881 q 344 832 419 881 q 227 695 268 784 q 186 486 186 607 l 186 486 q 231 250 186 348 q 355 101 276 153 q 535 50 434 50 z m 676 1025 l 521 1115 l 538 1115 l 383 1025 l 331 1025 l 476 1192 l 582 1192 l 728 1025 l 676 1025 z m 529 -258 l 529 -258 q 470 -235 493 -258 q 447 -177 447 -211 l 447 -177 q 470 -119 447 -142 q 529 -96 493 -96 l 529 -96 q 589 -119 566 -96 q 611 -177 611 -142 l 611 -177 q 589 -235 611 -211 q 529 -258 566 -258 z "},"Ớ":{"ha":1060,"x_min":65,"x_max":994,"o":"m 535 50 l 535 50 q 715 98 640 50 q 832 235 791 147 q 873 444 873 324 l 873 444 q 828 681 873 583 q 705 829 783 778 q 524 881 626 881 l 524 881 q 344 832 419 881 q 227 695 268 784 q 186 486 186 607 l 186 486 q 231 250 186 348 q 355 101 276 153 q 535 50 434 50 z m 528 944 l 528 944 q 603 940 566 944 q 680 930 641 935 q 760 924 719 924 l 760 924 q 840 938 818 924 q 863 974 863 952 l 863 974 q 858 1003 863 992 q 850 1024 854 1015 q 846 1047 846 1034 l 846 1047 q 861 1080 846 1067 q 898 1093 876 1093 l 898 1093 q 949 1072 931 1093 q 967 1014 967 1050 l 967 1014 q 919 905 967 944 q 765 872 872 865 l 765 872 l 765 885 q 887 783 835 845 q 966 641 938 721 q 994 467 994 560 l 994 467 q 960 273 994 361 q 863 121 926 185 q 716 21 801 56 q 531 -14 632 -14 l 531 -14 q 344 21 429 -14 q 197 120 259 56 q 100 271 134 183 q 65 464 65 359 l 65 464 q 99 657 65 569 q 196 810 133 745 q 343 909 258 874 q 528 944 428 944 z m 544 1025 l 504 1025 l 576 1192 l 731 1192 l 731 1179 l 544 1025 z "},"Ờ":{"ha":1060,"x_min":65,"x_max":994,"o":"m 535 50 l 535 50 q 715 98 640 50 q 832 235 791 147 q 873 444 873 324 l 873 444 q 828 681 873 583 q 705 829 783 778 q 524 881 626 881 l 524 881 q 344 832 419 881 q 227 695 268 784 q 186 486 186 607 l 186 486 q 231 250 186 348 q 355 101 276 153 q 535 50 434 50 z m 528 944 l 528 944 q 603 940 566 944 q 680 930 641 935 q 760 924 719 924 l 760 924 q 840 938 818 924 q 863 974 863 952 l 863 974 q 858 1003 863 992 q 850 1024 854 1015 q 846 1047 846 1034 l 846 1047 q 861 1080 846 1067 q 898 1093 876 1093 l 898 1093 q 949 1072 931 1093 q 967 1014 967 1050 l 967 1014 q 919 905 967 944 q 765 872 872 865 l 765 872 l 765 885 q 887 783 835 845 q 966 641 938 721 q 994 467 994 560 l 994 467 q 960 273 994 361 q 863 121 926 185 q 716 21 801 56 q 531 -14 632 -14 l 531 -14 q 344 21 429 -14 q 197 120 259 56 q 100 271 134 183 q 65 464 65 359 l 65 464 q 99 657 65 569 q 196 810 133 745 q 343 909 258 874 q 528 944 428 944 z m 482 1192 l 554 1025 l 514 1025 l 328 1179 l 328 1192 l 482 1192 z "},"Ở":{"ha":1060,"x_min":65,"x_max":994,"o":"m 535 50 l 535 50 q 715 98 640 50 q 832 235 791 147 q 873 444 873 324 l 873 444 q 828 681 873 583 q 705 829 783 778 q 524 881 626 881 l 524 881 q 344 832 419 881 q 227 695 268 784 q 186 486 186 607 l 186 486 q 231 250 186 348 q 355 101 276 153 q 535 50 434 50 z m 528 944 l 528 944 q 603 940 566 944 q 680 930 641 935 q 760 924 719 924 l 760 924 q 840 938 818 924 q 863 974 863 952 l 863 974 q 858 1003 863 992 q 850 1024 854 1015 q 846 1047 846 1034 l 846 1047 q 861 1080 846 1067 q 898 1093 876 1093 l 898 1093 q 949 1072 931 1093 q 967 1014 967 1050 l 967 1014 q 919 905 967 944 q 765 872 872 865 l 765 872 l 765 885 q 887 783 835 845 q 966 641 938 721 q 994 467 994 560 l 994 467 q 960 273 994 361 q 863 121 926 185 q 716 21 801 56 q 531 -14 632 -14 l 531 -14 q 344 21 429 -14 q 197 120 259 56 q 100 271 134 183 q 65 464 65 359 l 65 464 q 99 657 65 569 q 196 810 133 745 q 343 909 258 874 q 528 944 428 944 z m 428 1153 l 428 1153 l 445 1247 q 542 1231 503 1242 q 603 1203 581 1219 q 636 1168 626 1188 q 646 1126 646 1149 l 646 1126 q 634 1074 646 1098 q 588 1031 623 1049 q 482 1002 553 1013 l 482 1002 l 475 1042 q 530 1055 510 1048 q 556 1073 549 1063 q 563 1098 563 1083 l 563 1098 q 553 1122 563 1112 q 513 1140 542 1133 q 428 1153 484 1148 z "},"Ỡ":{"ha":1060,"x_min":65,"x_max":994,"o":"m 535 50 l 535 50 q 715 98 640 50 q 832 235 791 147 q 873 444 873 324 l 873 444 q 828 681 873 583 q 705 829 783 778 q 524 881 626 881 l 524 881 q 344 832 419 881 q 227 695 268 784 q 186 486 186 607 l 186 486 q 231 250 186 348 q 355 101 276 153 q 535 50 434 50 z m 528 944 l 528 944 q 603 940 566 944 q 680 930 641 935 q 760 924 719 924 l 760 924 q 840 938 818 924 q 863 974 863 952 l 863 974 q 858 1003 863 992 q 850 1024 854 1015 q 846 1047 846 1034 l 846 1047 q 861 1080 846 1067 q 898 1093 876 1093 l 898 1093 q 949 1072 931 1093 q 967 1014 967 1050 l 967 1014 q 919 905 967 944 q 765 872 872 865 l 765 872 l 765 885 q 887 783 835 845 q 966 641 938 721 q 994 467 994 560 l 994 467 q 960 273 994 361 q 863 121 926 185 q 716 21 801 56 q 531 -14 632 -14 l 531 -14 q 344 21 429 -14 q 197 120 259 56 q 100 271 134 183 q 65 464 65 359 l 65 464 q 99 657 65 569 q 196 810 133 745 q 343 909 258 874 q 528 944 428 944 z m 672 1192 l 717 1192 q 690 1084 703 1122 q 657 1033 676 1047 q 608 1019 638 1019 l 608 1019 q 560 1032 583 1019 q 516 1061 537 1044 q 476 1090 494 1078 q 441 1103 457 1103 l 441 1103 q 422 1097 431 1103 q 404 1075 413 1092 q 386 1025 396 1058 l 386 1025 l 342 1025 q 369 1132 356 1095 q 402 1183 383 1169 q 451 1197 421 1197 l 451 1197 q 499 1185 476 1197 q 543 1156 522 1172 q 583 1126 564 1139 q 617 1114 601 1114 l 617 1114 q 637 1119 628 1114 q 655 1142 646 1125 q 672 1192 663 1159 l 672 1192 z "},"Ợ":{"ha":1060,"x_min":65,"x_max":994,"o":"m 535 50 l 535 50 q 715 98 640 50 q 832 235 791 147 q 873 444 873 324 l 873 444 q 828 681 873 583 q 705 829 783 778 q 524 881 626 881 l 524 881 q 344 832 419 881 q 227 695 268 784 q 186 486 186 607 l 186 486 q 231 250 186 348 q 355 101 276 153 q 535 50 434 50 z m 528 944 l 528 944 q 603 940 566 944 q 680 930 641 935 q 760 924 719 924 l 760 924 q 840 938 818 924 q 863 974 863 952 l 863 974 q 858 1003 863 992 q 850 1024 854 1015 q 846 1047 846 1034 l 846 1047 q 861 1080 846 1067 q 898 1093 876 1093 l 898 1093 q 949 1072 931 1093 q 967 1014 967 1050 l 967 1014 q 919 905 967 944 q 765 872 872 865 l 765 872 l 765 885 q 887 783 835 845 q 966 641 938 721 q 994 467 994 560 l 994 467 q 960 273 994 361 q 863 121 926 185 q 716 21 801 56 q 531 -14 632 -14 l 531 -14 q 344 21 429 -14 q 197 120 259 56 q 100 271 134 183 q 65 464 65 359 l 65 464 q 99 657 65 569 q 196 810 133 745 q 343 909 258 874 q 528 944 428 944 z m 529 -258 l 529 -258 q 470 -235 493 -258 q 447 -177 447 -211 l 447 -177 q 470 -119 447 -142 q 529 -96 493 -96 l 529 -96 q 589 -119 566 -96 q 611 -177 611 -142 l 611 -177 q 589 -235 611 -211 q 529 -258 566 -258 z "},"Ø":{"ha":1078,"x_min":75,"x_max":1003,"o":"m 221 156 l 253 187 l 798 801 l 818 826 l 912 931 l 1003 931 l 864 775 l 831 744 l 287 129 l 267 104 l 173 0 l 81 0 l 221 156 z m 538 944 l 538 944 q 725 909 640 944 q 872 811 810 874 q 969 660 935 747 q 1003 467 1003 572 l 1003 467 q 969 273 1003 361 q 873 121 935 185 q 726 21 810 56 q 540 -14 642 -14 l 540 -14 q 354 21 439 -14 q 206 120 269 56 q 109 271 144 183 q 75 464 75 359 l 75 464 q 109 657 75 569 q 206 810 143 745 q 353 909 268 874 q 538 944 438 944 z m 545 50 l 545 50 q 725 98 649 50 q 842 235 801 147 q 883 444 883 324 l 883 444 q 838 681 883 583 q 714 829 793 778 q 533 881 635 881 l 533 881 q 353 832 429 881 q 237 695 278 784 q 196 486 196 607 l 196 486 q 241 250 196 348 q 365 101 285 153 q 545 50 444 50 z "},"Ǿ":{"ha":1078,"x_min":75,"x_max":1003,"o":"m 221 156 l 253 187 l 798 801 l 818 826 l 912 931 l 1003 931 l 864 775 l 831 744 l 287 129 l 267 104 l 173 0 l 81 0 l 221 156 z m 538 944 l 538 944 q 725 909 640 944 q 872 811 810 874 q 969 660 935 747 q 1003 467 1003 572 l 1003 467 q 969 273 1003 361 q 873 121 935 185 q 726 21 810 56 q 540 -14 642 -14 l 540 -14 q 354 21 439 -14 q 206 120 269 56 q 109 271 144 183 q 75 464 75 359 l 75 464 q 109 657 75 569 q 206 810 143 745 q 353 909 268 874 q 538 944 438 944 z m 545 50 l 545 50 q 725 98 649 50 q 842 235 801 147 q 883 444 883 324 l 883 444 q 838 681 883 583 q 714 829 793 778 q 533 881 635 881 l 533 881 q 353 832 429 881 q 237 695 278 784 q 196 486 196 607 l 196 486 q 241 250 196 348 q 365 101 285 153 q 545 50 444 50 z m 554 1025 l 514 1025 l 586 1192 l 740 1192 l 740 1179 l 554 1025 z "},"Œ":{"ha":1428,"x_min":66,"x_max":1378,"o":"m 1131 670 l 1183 670 l 1183 488 l 1183 306 l 1131 306 l 1116 456 l 779 456 l 779 521 l 1116 521 l 1131 670 z m 738 0 l 738 931 l 849 931 l 849 0 l 738 0 z m 1237 0 l 615 0 q 314 51 437 0 q 129 201 192 101 q 66 449 66 301 l 66 449 q 109 656 66 566 q 227 807 151 746 q 401 899 302 868 q 614 931 501 931 l 614 931 l 1224 931 l 1302 965 l 1313 965 l 1358 668 l 1326 662 l 1211 880 l 1249 865 l 634 865 q 405 822 506 865 q 245 688 303 779 q 187 450 187 596 l 187 450 q 245 233 187 318 q 408 107 303 148 q 649 65 512 65 l 649 65 l 1255 65 l 1224 47 l 1349 265 l 1378 257 l 1328 -41 l 1317 -41 l 1237 0 z "},"Ŕ":{"ha":861,"x_min":59,"x_max":865,"o":"m 183 503 l 428 503 q 572 550 515 503 q 629 685 629 596 l 629 685 q 603 782 629 742 q 517 844 577 822 q 356 865 457 865 l 356 865 l 183 865 l 185 931 l 425 931 q 611 899 540 931 q 715 814 682 867 q 747 697 747 761 l 747 697 q 720 589 747 636 q 642 509 694 541 q 515 466 590 478 l 515 466 l 515 471 q 590 453 560 468 q 640 407 619 438 q 681 321 661 375 l 681 321 l 748 137 q 781 69 765 90 q 816 44 796 49 q 865 39 835 39 l 865 39 l 865 0 q 764 -3 802 -5 q 704 10 726 -2 q 667 46 681 22 q 637 113 652 71 l 637 113 l 572 295 q 535 382 552 351 q 495 425 519 413 q 432 438 472 438 l 432 438 l 185 438 l 183 503 z m 59 931 l 280 931 l 280 63 l 390 27 l 390 0 l 59 0 l 59 27 l 169 63 l 169 867 l 59 903 l 59 931 z m 442 1025 l 402 1025 l 474 1192 l 628 1192 l 628 1179 l 442 1025 z "},"Ŗ":{"ha":861,"x_min":59,"x_max":865,"o":"m 183 503 l 428 503 q 572 550 515 503 q 629 685 629 596 l 629 685 q 603 782 629 742 q 517 844 577 822 q 356 865 457 865 l 356 865 l 183 865 l 185 931 l 425 931 q 611 899 540 931 q 715 814 682 867 q 747 697 747 761 l 747 697 q 720 589 747 636 q 642 509 694 541 q 515 466 590 478 l 515 466 l 515 471 q 590 453 560 468 q 640 407 619 438 q 681 321 661 375 l 681 321 l 748 137 q 781 69 765 90 q 816 44 796 49 q 865 39 835 39 l 865 39 l 865 0 q 764 -3 802 -5 q 704 10 726 -2 q 667 46 681 22 q 637 113 652 71 l 637 113 l 572 295 q 535 382 552 351 q 495 425 519 413 q 432 438 472 438 l 432 438 l 185 438 l 183 503 z m 59 931 l 280 931 l 280 63 l 390 27 l 390 0 l 59 0 l 59 27 l 169 63 l 169 867 l 59 903 l 59 931 z m 417 -368 l 402 -322 q 477 -290 457 -306 q 498 -249 498 -274 l 498 -249 q 484 -216 498 -228 q 452 -194 470 -203 q 419 -176 433 -185 q 406 -157 406 -167 l 406 -157 q 429 -98 406 -122 q 492 -75 453 -75 l 492 -75 q 557 -103 531 -75 q 584 -183 584 -131 l 584 -183 q 570 -261 584 -225 q 520 -325 556 -297 q 417 -368 484 -352 l 417 -368 z "},"Ř":{"ha":861,"x_min":59,"x_max":865,"o":"m 183 503 l 428 503 q 572 550 515 503 q 629 685 629 596 l 629 685 q 603 782 629 742 q 517 844 577 822 q 356 865 457 865 l 356 865 l 183 865 l 185 931 l 425 931 q 611 899 540 931 q 715 814 682 867 q 747 697 747 761 l 747 697 q 720 589 747 636 q 642 509 694 541 q 515 466 590 478 l 515 466 l 515 471 q 590 453 560 468 q 640 407 619 438 q 681 321 661 375 l 681 321 l 748 137 q 781 69 765 90 q 816 44 796 49 q 865 39 835 39 l 865 39 l 865 0 q 764 -3 802 -5 q 704 10 726 -2 q 667 46 681 22 q 637 113 652 71 l 637 113 l 572 295 q 535 382 552 351 q 495 425 519 413 q 432 438 472 438 l 432 438 l 185 438 l 183 503 z m 59 931 l 280 931 l 280 63 l 390 27 l 390 0 l 59 0 l 59 27 l 169 63 l 169 867 l 59 903 l 59 931 z m 281 1192 l 435 1101 l 419 1101 l 574 1192 l 626 1192 l 480 1025 l 374 1025 l 228 1192 l 281 1192 z "},"Ȑ":{"ha":861,"x_min":59,"x_max":865,"o":"m 183 503 l 428 503 q 572 550 515 503 q 629 685 629 596 l 629 685 q 603 782 629 742 q 517 844 577 822 q 356 865 457 865 l 356 865 l 183 865 l 185 931 l 425 931 q 611 899 540 931 q 715 814 682 867 q 747 697 747 761 l 747 697 q 720 589 747 636 q 642 509 694 541 q 515 466 590 478 l 515 466 l 515 471 q 590 453 560 468 q 640 407 619 438 q 681 321 661 375 l 681 321 l 748 137 q 781 69 765 90 q 816 44 796 49 q 865 39 835 39 l 865 39 l 865 0 q 764 -3 802 -5 q 704 10 726 -2 q 667 46 681 22 q 637 113 652 71 l 637 113 l 572 295 q 535 382 552 351 q 495 425 519 413 q 432 438 472 438 l 432 438 l 185 438 l 183 503 z m 59 931 l 280 931 l 280 63 l 390 27 l 390 0 l 59 0 l 59 27 l 169 63 l 169 867 l 59 903 l 59 931 z m 259 1192 l 363 1025 l 318 1025 l 99 1181 l 99 1192 l 259 1192 z m 486 1192 l 530 1025 l 493 1025 l 340 1181 l 340 1192 l 486 1192 z "},"Ȓ":{"ha":861,"x_min":59,"x_max":865,"o":"m 183 503 l 428 503 q 572 550 515 503 q 629 685 629 596 l 629 685 q 603 782 629 742 q 517 844 577 822 q 356 865 457 865 l 356 865 l 183 865 l 185 931 l 425 931 q 611 899 540 931 q 715 814 682 867 q 747 697 747 761 l 747 697 q 720 589 747 636 q 642 509 694 541 q 515 466 590 478 l 515 466 l 515 471 q 590 453 560 468 q 640 407 619 438 q 681 321 661 375 l 681 321 l 748 137 q 781 69 765 90 q 816 44 796 49 q 865 39 835 39 l 865 39 l 865 0 q 764 -3 802 -5 q 704 10 726 -2 q 667 46 681 22 q 637 113 652 71 l 637 113 l 572 295 q 535 382 552 351 q 495 425 519 413 q 432 438 472 438 l 432 438 l 185 438 l 183 503 z m 59 931 l 280 931 l 280 63 l 390 27 l 390 0 l 59 0 l 59 27 l 169 63 l 169 867 l 59 903 l 59 931 z m 427 1110 l 427 1110 q 336 1090 374 1110 q 286 1025 299 1069 l 286 1025 l 240 1025 q 280 1128 256 1090 q 340 1181 304 1165 q 427 1197 376 1197 l 427 1197 q 515 1181 479 1197 q 574 1128 550 1165 q 614 1025 598 1090 l 614 1025 l 568 1025 q 518 1090 556 1069 q 427 1110 481 1110 z "},"Ś":{"ha":741,"x_min":57,"x_max":674,"o":"m 608 887 l 608 887 l 507 914 l 592 971 l 603 971 l 647 665 l 616 659 l 496 874 l 520 842 q 447 878 484 867 q 366 889 410 889 l 366 889 q 227 847 276 889 q 178 734 178 804 l 178 734 q 197 656 178 688 q 249 601 216 624 q 325 563 283 579 q 414 529 367 546 l 414 529 q 506 493 460 513 q 590 444 552 473 q 651 372 628 415 q 674 264 674 328 l 674 264 q 632 113 674 174 q 516 18 590 51 q 344 -14 442 -14 l 344 -14 q 226 -5 278 -14 q 117 28 174 5 l 117 28 l 57 268 l 97 268 l 261 28 l 146 101 q 243 59 200 72 q 334 45 285 45 l 334 45 q 465 65 410 45 q 549 125 519 85 q 578 226 578 165 l 578 226 q 554 315 578 280 q 490 374 530 351 q 404 414 451 397 q 311 449 357 431 l 311 449 q 225 486 265 466 q 155 535 185 507 q 108 602 125 563 q 91 696 91 641 l 91 696 q 127 828 91 772 q 229 914 163 883 q 385 944 295 944 l 385 944 q 500 931 447 944 q 608 887 553 917 z m 381 1025 l 340 1025 l 413 1192 l 567 1192 l 567 1179 l 381 1025 z "},"Ŝ":{"ha":741,"x_min":57,"x_max":674,"o":"m 608 887 l 608 887 l 507 914 l 592 971 l 603 971 l 647 665 l 616 659 l 496 874 l 520 842 q 447 878 484 867 q 366 889 410 889 l 366 889 q 227 847 276 889 q 178 734 178 804 l 178 734 q 197 656 178 688 q 249 601 216 624 q 325 563 283 579 q 414 529 367 546 l 414 529 q 506 493 460 513 q 590 444 552 473 q 651 372 628 415 q 674 264 674 328 l 674 264 q 632 113 674 174 q 516 18 590 51 q 344 -14 442 -14 l 344 -14 q 226 -5 278 -14 q 117 28 174 5 l 117 28 l 57 268 l 97 268 l 261 28 l 146 101 q 243 59 200 72 q 334 45 285 45 l 334 45 q 465 65 410 45 q 549 125 519 85 q 578 226 578 165 l 578 226 q 554 315 578 280 q 490 374 530 351 q 404 414 451 397 q 311 449 357 431 l 311 449 q 225 486 265 466 q 155 535 185 507 q 108 602 125 563 q 91 696 91 641 l 91 696 q 127 828 91 772 q 229 914 163 883 q 385 944 295 944 l 385 944 q 500 931 447 944 q 608 887 553 917 z m 512 1025 l 357 1115 l 374 1115 l 219 1025 l 167 1025 l 313 1192 l 418 1192 l 564 1025 l 512 1025 z "},"Ş":{"ha":741,"x_min":57,"x_max":674,"o":"m 608 887 l 608 887 l 507 914 l 592 971 l 603 971 l 647 665 l 616 659 l 496 874 l 520 842 q 447 878 484 867 q 366 889 410 889 l 366 889 q 227 847 276 889 q 178 734 178 804 l 178 734 q 197 656 178 688 q 249 601 216 624 q 325 563 283 579 q 414 529 367 546 l 414 529 q 506 493 460 513 q 590 444 552 473 q 651 372 628 415 q 674 264 674 328 l 674 264 q 632 113 674 174 q 516 18 590 51 q 344 -14 442 -14 l 344 -14 q 226 -5 278 -14 q 117 28 174 5 l 117 28 l 57 268 l 97 268 l 261 28 l 146 101 q 243 59 200 72 q 334 45 285 45 l 334 45 q 465 65 410 45 q 549 125 519 85 q 578 226 578 165 l 578 226 q 554 315 578 280 q 490 374 530 351 q 404 414 451 397 q 311 449 357 431 l 311 449 q 225 486 265 466 q 155 535 185 507 q 108 602 125 563 q 91 696 91 641 l 91 696 q 127 828 91 772 q 229 914 163 883 q 385 944 295 944 l 385 944 q 500 931 447 944 q 608 887 553 917 z m 304 -368 l 304 -368 q 232 -350 253 -368 q 210 -310 210 -332 l 210 -310 q 220 -284 210 -294 q 247 -275 231 -275 l 247 -275 q 279 -286 267 -275 q 304 -308 291 -297 q 341 -319 317 -319 l 341 -319 q 394 -300 374 -319 q 415 -250 415 -281 l 415 -250 q 399 -207 415 -224 q 348 -177 383 -189 q 252 -159 313 -166 l 252 -159 l 252 -147 l 393 35 l 447 35 l 310 -153 l 308 -87 q 410 -117 373 -98 q 464 -161 448 -136 q 479 -216 479 -186 l 479 -216 q 454 -295 479 -261 q 389 -349 428 -330 q 304 -368 349 -368 z "},"Š":{"ha":741,"x_min":57,"x_max":674,"o":"m 608 887 l 608 887 l 507 914 l 592 971 l 603 971 l 647 665 l 616 659 l 496 874 l 520 842 q 447 878 484 867 q 366 889 410 889 l 366 889 q 227 847 276 889 q 178 734 178 804 l 178 734 q 197 656 178 688 q 249 601 216 624 q 325 563 283 579 q 414 529 367 546 l 414 529 q 506 493 460 513 q 590 444 552 473 q 651 372 628 415 q 674 264 674 328 l 674 264 q 632 113 674 174 q 516 18 590 51 q 344 -14 442 -14 l 344 -14 q 226 -5 278 -14 q 117 28 174 5 l 117 28 l 57 268 l 97 268 l 261 28 l 146 101 q 243 59 200 72 q 334 45 285 45 l 334 45 q 465 65 410 45 q 549 125 519 85 q 578 226 578 165 l 578 226 q 554 315 578 280 q 490 374 530 351 q 404 414 451 397 q 311 449 357 431 l 311 449 q 225 486 265 466 q 155 535 185 507 q 108 602 125 563 q 91 696 91 641 l 91 696 q 127 828 91 772 q 229 914 163 883 q 385 944 295 944 l 385 944 q 500 931 447 944 q 608 887 553 917 z m 219 1192 l 374 1101 l 357 1101 l 512 1192 l 564 1192 l 418 1025 l 313 1025 l 167 1192 l 219 1192 z "},"Ș":{"ha":741,"x_min":57,"x_max":674,"o":"m 608 887 l 608 887 l 507 914 l 592 971 l 603 971 l 647 665 l 616 659 l 496 874 l 520 842 q 447 878 484 867 q 366 889 410 889 l 366 889 q 227 847 276 889 q 178 734 178 804 l 178 734 q 197 656 178 688 q 249 601 216 624 q 325 563 283 579 q 414 529 367 546 l 414 529 q 506 493 460 513 q 590 444 552 473 q 651 372 628 415 q 674 264 674 328 l 674 264 q 632 113 674 174 q 516 18 590 51 q 344 -14 442 -14 l 344 -14 q 226 -5 278 -14 q 117 28 174 5 l 117 28 l 57 268 l 97 268 l 261 28 l 146 101 q 243 59 200 72 q 334 45 285 45 l 334 45 q 465 65 410 45 q 549 125 519 85 q 578 226 578 165 l 578 226 q 554 315 578 280 q 490 374 530 351 q 404 414 451 397 q 311 449 357 431 l 311 449 q 225 486 265 466 q 155 535 185 507 q 108 602 125 563 q 91 696 91 641 l 91 696 q 127 828 91 772 q 229 914 163 883 q 385 944 295 944 l 385 944 q 500 931 447 944 q 608 887 553 917 z m 299 -368 l 285 -322 q 360 -290 340 -306 q 381 -249 381 -274 l 381 -249 q 367 -216 381 -228 q 334 -194 353 -203 q 302 -176 316 -185 q 288 -157 288 -167 l 288 -157 q 312 -98 288 -122 q 374 -75 335 -75 l 374 -75 q 440 -103 413 -75 q 467 -183 467 -131 l 467 -183 q 453 -261 467 -225 q 403 -325 439 -297 q 299 -368 367 -352 l 299 -368 z "},"ẞ":{"ha":1475,"x_min":57,"x_max":1408,"o":"m 608 887 l 608 887 l 507 914 l 592 971 l 603 971 l 647 665 l 616 659 l 496 874 l 520 842 q 447 878 484 867 q 366 889 410 889 l 366 889 q 227 847 276 889 q 178 734 178 804 l 178 734 q 197 656 178 688 q 249 601 216 624 q 325 563 283 579 q 414 529 367 546 l 414 529 q 506 493 460 513 q 590 444 552 473 q 651 372 628 415 q 674 264 674 328 l 674 264 q 632 113 674 174 q 516 18 590 51 q 344 -14 442 -14 l 344 -14 q 226 -5 278 -14 q 117 28 174 5 l 117 28 l 57 268 l 97 268 l 261 28 l 146 101 q 243 59 200 72 q 334 45 285 45 l 334 45 q 465 65 410 45 q 549 125 519 85 q 578 226 578 165 l 578 226 q 554 315 578 280 q 490 374 530 351 q 404 414 451 397 q 311 449 357 431 l 311 449 q 225 486 265 466 q 155 535 185 507 q 108 602 125 563 q 91 696 91 641 l 91 696 q 127 828 91 772 q 229 914 163 883 q 385 944 295 944 l 385 944 q 500 931 447 944 q 608 887 553 917 z m 1342 887 l 1342 887 l 1241 914 l 1326 971 l 1338 971 l 1381 665 l 1350 659 l 1230 874 l 1254 842 q 1181 878 1218 867 q 1100 889 1144 889 l 1100 889 q 961 847 1010 889 q 912 734 912 804 l 912 734 q 931 656 912 688 q 983 601 950 624 q 1059 563 1017 579 q 1148 529 1101 546 l 1148 529 q 1240 493 1194 513 q 1324 444 1286 473 q 1385 372 1362 415 q 1408 264 1408 328 l 1408 264 q 1366 113 1408 174 q 1250 18 1324 51 q 1078 -14 1176 -14 l 1078 -14 q 960 -5 1012 -14 q 851 28 908 5 l 851 28 l 791 268 l 831 268 l 995 28 l 880 101 q 977 59 934 72 q 1068 45 1019 45 l 1068 45 q 1199 65 1144 45 q 1283 125 1253 85 q 1312 226 1312 165 l 1312 226 q 1288 315 1312 280 q 1224 374 1264 351 q 1138 414 1185 397 q 1045 449 1091 431 l 1045 449 q 959 486 999 466 q 889 535 919 507 q 842 602 859 563 q 825 696 825 641 l 825 696 q 861 828 825 772 q 963 914 897 883 q 1119 944 1029 944 l 1119 944 q 1234 931 1181 944 q 1342 887 1288 917 z "},"Ţ":{"ha":901,"x_min":30,"x_max":872,"o":"m 395 63 l 395 888 l 506 888 l 506 63 l 616 27 l 616 0 l 285 0 l 285 27 l 395 63 z m 746 878 l 810 865 l 92 865 l 156 878 l 62 680 l 30 686 l 58 978 l 70 978 l 168 919 l 108 931 l 794 931 l 733 919 l 831 978 l 844 978 l 872 686 l 840 680 l 746 878 z m 383 -368 l 383 -368 q 310 -350 332 -368 q 288 -310 288 -332 l 288 -310 q 299 -284 288 -294 q 325 -275 309 -275 l 325 -275 q 357 -286 345 -275 q 383 -308 369 -297 q 419 -319 396 -319 l 419 -319 q 473 -300 452 -319 q 493 -250 493 -281 l 493 -250 q 477 -207 493 -224 q 426 -177 462 -189 q 331 -159 391 -166 l 331 -159 l 331 -147 l 472 35 l 525 35 l 388 -153 l 386 -87 q 489 -117 451 -98 q 542 -161 526 -136 q 558 -216 558 -186 l 558 -216 q 532 -295 558 -261 q 467 -349 507 -330 q 383 -368 427 -368 z "},"Ť":{"ha":901,"x_min":30,"x_max":872,"o":"m 395 63 l 395 888 l 506 888 l 506 63 l 616 27 l 616 0 l 285 0 l 285 27 l 395 63 z m 746 878 l 810 865 l 92 865 l 156 878 l 62 680 l 30 686 l 58 978 l 70 978 l 168 919 l 108 931 l 794 931 l 733 919 l 831 978 l 844 978 l 872 686 l 840 680 l 746 878 z m 304 1192 l 459 1101 l 442 1101 l 597 1192 l 649 1192 l 503 1025 l 398 1025 l 252 1192 l 304 1192 z "},"Ŧ":{"ha":904,"x_min":31,"x_max":873,"o":"m 710 451 l 194 451 l 194 516 l 710 516 l 710 451 z m 397 63 l 397 888 l 508 888 l 508 63 l 617 27 l 617 0 l 287 0 l 287 27 l 397 63 z m 747 878 l 811 865 l 93 865 l 157 878 l 63 680 l 31 686 l 59 978 l 72 978 l 169 919 l 109 931 l 795 931 l 735 919 l 833 978 l 845 978 l 873 686 l 841 680 l 747 878 z "},"Ț":{"ha":901,"x_min":30,"x_max":872,"o":"m 395 63 l 395 888 l 506 888 l 506 63 l 616 27 l 616 0 l 285 0 l 285 27 l 395 63 z m 746 878 l 810 865 l 92 865 l 156 878 l 62 680 l 30 686 l 58 978 l 70 978 l 168 919 l 108 931 l 794 931 l 733 919 l 831 978 l 844 978 l 872 686 l 840 680 l 746 878 z m 378 -368 l 363 -322 q 439 -290 418 -306 q 459 -249 459 -274 l 459 -249 q 445 -216 459 -228 q 413 -194 431 -203 q 381 -176 394 -185 q 367 -157 367 -167 l 367 -157 q 390 -98 367 -122 q 453 -75 414 -75 l 453 -75 q 518 -103 492 -75 q 545 -183 545 -131 l 545 -183 q 531 -261 545 -225 q 481 -325 517 -297 q 378 -368 445 -352 l 378 -368 z "},"Ù":{"ha":1040,"x_min":38,"x_max":1001,"o":"m 825 340 l 825 340 l 825 867 l 715 903 l 715 931 l 1001 931 l 1001 903 l 892 867 l 892 353 q 849 155 892 237 q 725 29 806 72 q 526 -14 643 -14 l 526 -14 q 320 30 405 -14 q 191 161 235 74 q 147 377 147 249 l 147 377 l 147 867 l 38 903 l 38 931 l 368 931 l 368 903 l 258 867 l 258 371 q 290 203 258 270 q 385 104 322 137 q 542 71 448 71 l 542 71 q 697 102 634 71 q 792 194 760 134 q 825 340 825 254 z m 492 1192 l 564 1025 l 524 1025 l 338 1179 l 338 1192 l 492 1192 z "},"Ú":{"ha":1040,"x_min":38,"x_max":1001,"o":"m 825 340 l 825 340 l 825 867 l 715 903 l 715 931 l 1001 931 l 1001 903 l 892 867 l 892 353 q 849 155 892 237 q 725 29 806 72 q 526 -14 643 -14 l 526 -14 q 320 30 405 -14 q 191 161 235 74 q 147 377 147 249 l 147 377 l 147 867 l 38 903 l 38 931 l 368 931 l 368 903 l 258 867 l 258 371 q 290 203 258 270 q 385 104 322 137 q 542 71 448 71 l 542 71 q 697 102 634 71 q 792 194 760 134 q 825 340 825 254 z m 554 1025 l 514 1025 l 586 1192 l 740 1192 l 740 1179 l 554 1025 z "},"Û":{"ha":1040,"x_min":38,"x_max":1001,"o":"m 825 340 l 825 340 l 825 867 l 715 903 l 715 931 l 1001 931 l 1001 903 l 892 867 l 892 353 q 849 155 892 237 q 725 29 806 72 q 526 -14 643 -14 l 526 -14 q 320 30 405 -14 q 191 161 235 74 q 147 377 147 249 l 147 377 l 147 867 l 38 903 l 38 931 l 368 931 l 368 903 l 258 867 l 258 371 q 290 203 258 270 q 385 104 322 137 q 542 71 448 71 l 542 71 q 697 102 634 71 q 792 194 760 134 q 825 340 825 254 z m 685 1025 l 531 1115 l 547 1115 l 392 1025 l 340 1025 l 486 1192 l 592 1192 l 738 1025 l 685 1025 z "},"Ü":{"ha":1040,"x_min":38,"x_max":1001,"o":"m 825 340 l 825 340 l 825 867 l 715 903 l 715 931 l 1001 931 l 1001 903 l 892 867 l 892 353 q 849 155 892 237 q 725 29 806 72 q 526 -14 643 -14 l 526 -14 q 320 30 405 -14 q 191 161 235 74 q 147 377 147 249 l 147 377 l 147 867 l 38 903 l 38 931 l 368 931 l 368 903 l 258 867 l 258 371 q 290 203 258 270 q 385 104 322 137 q 542 71 448 71 l 542 71 q 697 102 634 71 q 792 194 760 134 q 825 340 825 254 z m 413 1033 l 413 1033 q 358 1055 379 1033 q 337 1108 337 1077 l 337 1108 q 358 1162 337 1140 q 413 1184 379 1184 l 413 1184 q 468 1162 447 1184 q 490 1108 490 1140 l 490 1108 q 468 1055 490 1077 q 413 1033 447 1033 z m 665 1033 l 665 1033 q 609 1055 631 1033 q 588 1108 588 1077 l 588 1108 q 609 1162 588 1140 q 665 1184 631 1184 l 665 1184 q 720 1162 699 1184 q 741 1108 741 1140 l 741 1108 q 720 1055 741 1077 q 665 1033 699 1033 z "},"Ũ":{"ha":1040,"x_min":38,"x_max":1001,"o":"m 825 340 l 825 340 l 825 867 l 715 903 l 715 931 l 1001 931 l 1001 903 l 892 867 l 892 353 q 849 155 892 237 q 725 29 806 72 q 526 -14 643 -14 l 526 -14 q 320 30 405 -14 q 191 161 235 74 q 147 377 147 249 l 147 377 l 147 867 l 38 903 l 38 931 l 368 931 l 368 903 l 258 867 l 258 371 q 290 203 258 270 q 385 104 322 137 q 542 71 448 71 l 542 71 q 697 102 634 71 q 792 194 760 134 q 825 340 825 254 z m 682 1192 l 726 1192 q 700 1084 713 1122 q 667 1033 686 1047 q 617 1019 648 1019 l 617 1019 q 569 1032 592 1019 q 525 1061 547 1044 q 485 1090 504 1078 q 451 1103 467 1103 l 451 1103 q 431 1097 440 1103 q 414 1075 422 1092 q 396 1025 406 1058 l 396 1025 l 351 1025 q 379 1132 365 1095 q 411 1183 392 1169 q 460 1197 431 1197 l 460 1197 q 508 1185 485 1197 q 552 1156 531 1172 q 592 1126 574 1139 q 627 1114 611 1114 l 627 1114 q 647 1119 638 1114 q 664 1142 656 1125 q 682 1192 673 1159 l 682 1192 z "},"Ū":{"ha":1040,"x_min":38,"x_max":1001,"o":"m 825 340 l 825 340 l 825 867 l 715 903 l 715 931 l 1001 931 l 1001 903 l 892 867 l 892 353 q 849 155 892 237 q 725 29 806 72 q 526 -14 643 -14 l 526 -14 q 320 30 405 -14 q 191 161 235 74 q 147 377 147 249 l 147 377 l 147 867 l 38 903 l 38 931 l 368 931 l 368 903 l 258 867 l 258 371 q 290 203 258 270 q 385 104 322 137 q 542 71 448 71 l 542 71 q 697 102 634 71 q 792 194 760 134 q 825 340 825 254 z m 713 1072 l 365 1072 l 365 1145 l 713 1145 l 713 1072 z "},"Ŭ":{"ha":1040,"x_min":38,"x_max":1001,"o":"m 825 340 l 825 340 l 825 867 l 715 903 l 715 931 l 1001 931 l 1001 903 l 892 867 l 892 353 q 849 155 892 237 q 725 29 806 72 q 526 -14 643 -14 l 526 -14 q 320 30 405 -14 q 191 161 235 74 q 147 377 147 249 l 147 377 l 147 867 l 38 903 l 38 931 l 368 931 l 368 903 l 258 867 l 258 371 q 290 203 258 270 q 385 104 322 137 q 542 71 448 71 l 542 71 q 697 102 634 71 q 792 194 760 134 q 825 340 825 254 z m 539 1106 l 539 1106 q 630 1127 592 1106 q 680 1192 667 1147 l 680 1192 l 726 1192 q 686 1089 710 1126 q 627 1036 663 1051 q 539 1020 591 1020 l 539 1020 q 451 1036 487 1020 q 392 1089 415 1051 q 352 1192 368 1126 l 352 1192 l 398 1192 q 448 1127 410 1147 q 539 1106 486 1106 z "},"Ů":{"ha":1040,"x_min":38,"x_max":1001,"o":"m 825 340 l 825 340 l 825 867 l 715 903 l 715 931 l 1001 931 l 1001 903 l 892 867 l 892 353 q 849 155 892 237 q 725 29 806 72 q 526 -14 643 -14 l 526 -14 q 320 30 405 -14 q 191 161 235 74 q 147 377 147 249 l 147 377 l 147 867 l 38 903 l 38 931 l 368 931 l 368 903 l 258 867 l 258 371 q 290 203 258 270 q 385 104 322 137 q 542 71 448 71 l 542 71 q 697 102 634 71 q 792 194 760 134 q 825 340 825 254 z m 539 1230 l 539 1230 q 627 1195 592 1230 q 662 1108 662 1161 l 662 1108 q 627 1021 662 1056 q 539 987 592 987 l 539 987 q 451 1021 486 987 q 416 1108 416 1056 l 416 1108 q 451 1195 416 1161 q 539 1230 486 1230 z m 539 1029 l 539 1029 q 595 1051 573 1029 q 617 1108 617 1074 l 617 1108 q 595 1165 617 1143 q 539 1188 573 1188 l 539 1188 q 483 1165 505 1188 q 461 1108 461 1143 l 461 1108 q 483 1051 461 1074 q 539 1029 505 1029 z "},"Ű":{"ha":1040,"x_min":38,"x_max":1001,"o":"m 825 340 l 825 340 l 825 867 l 715 903 l 715 931 l 1001 931 l 1001 903 l 892 867 l 892 353 q 849 155 892 237 q 725 29 806 72 q 526 -14 643 -14 l 526 -14 q 320 30 405 -14 q 191 161 235 74 q 147 377 147 249 l 147 377 l 147 867 l 38 903 l 38 931 l 368 931 l 368 903 l 258 867 l 258 371 q 290 203 258 270 q 385 104 322 137 q 542 71 448 71 l 542 71 q 697 102 634 71 q 792 194 760 134 q 825 340 825 254 z m 648 1025 l 603 1025 l 707 1192 l 867 1192 l 867 1181 l 648 1025 z m 473 1025 l 436 1025 l 480 1192 l 626 1192 l 626 1181 l 473 1025 z "},"Ų":{"ha":1040,"x_min":38,"x_max":1001,"o":"m 825 340 l 825 340 l 825 867 l 715 903 l 715 931 l 1001 931 l 1001 903 l 892 867 l 892 353 q 849 155 892 237 q 725 29 806 72 q 526 -14 643 -14 l 526 -14 q 320 30 405 -14 q 191 161 235 74 q 147 377 147 249 l 147 377 l 147 867 l 38 903 l 38 931 l 368 931 l 368 903 l 258 867 l 258 371 q 290 203 258 270 q 385 104 322 137 q 542 71 448 71 l 542 71 q 697 102 634 71 q 792 194 760 134 q 825 340 825 254 z m 612 32 l 550 -92 q 528 -144 536 -121 q 516 -188 519 -168 q 513 -225 513 -208 l 513 -225 q 534 -280 513 -260 q 588 -299 555 -299 l 588 -299 q 634 -286 610 -299 q 694 -237 659 -274 l 694 -237 l 715 -257 q 662 -321 688 -297 q 608 -357 635 -345 q 549 -368 581 -368 l 549 -368 q 465 -337 499 -368 q 431 -251 431 -306 l 431 -251 q 436 -205 431 -228 q 456 -153 442 -182 q 495 -86 469 -124 l 495 -86 l 575 32 l 612 32 z "},"Ư":{"ha":1044,"x_min":38,"x_max":1120,"o":"m 1015 974 l 1015 974 q 1011 1002 1015 992 q 1003 1021 1007 1012 q 999 1047 999 1031 l 999 1047 q 1014 1080 999 1067 q 1051 1093 1028 1093 l 1051 1093 q 1102 1072 1083 1093 q 1120 1014 1120 1050 l 1120 1014 q 1099 942 1120 974 q 1028 893 1078 911 q 892 872 978 874 l 892 872 l 892 353 q 849 155 892 237 q 725 29 806 72 q 526 -14 643 -14 l 526 -14 q 320 30 405 -14 q 191 161 235 74 q 147 377 147 249 l 147 377 l 147 867 l 38 903 l 38 931 l 368 931 l 368 903 l 258 867 l 258 371 q 290 203 258 270 q 385 104 322 137 q 542 71 448 71 l 542 71 q 697 102 634 71 q 792 194 760 134 q 825 340 825 254 l 825 340 l 825 867 l 715 903 l 715 931 l 933 931 q 984 936 966 931 q 1008 951 1001 942 q 1015 974 1015 961 z "},"Ȕ":{"ha":1040,"x_min":38,"x_max":1001,"o":"m 825 340 l 825 340 l 825 867 l 715 903 l 715 931 l 1001 931 l 1001 903 l 892 867 l 892 353 q 849 155 892 237 q 725 29 806 72 q 526 -14 643 -14 l 526 -14 q 320 30 405 -14 q 191 161 235 74 q 147 377 147 249 l 147 377 l 147 867 l 38 903 l 38 931 l 368 931 l 368 903 l 258 867 l 258 371 q 290 203 258 270 q 385 104 322 137 q 542 71 448 71 l 542 71 q 697 102 634 71 q 792 194 760 134 q 825 340 825 254 z m 371 1192 l 475 1025 l 430 1025 l 210 1181 l 210 1192 l 371 1192 z m 598 1192 l 642 1025 l 605 1025 l 451 1181 l 451 1192 l 598 1192 z "},"Ȗ":{"ha":1040,"x_min":38,"x_max":1001,"o":"m 825 340 l 825 340 l 825 867 l 715 903 l 715 931 l 1001 931 l 1001 903 l 892 867 l 892 353 q 849 155 892 237 q 725 29 806 72 q 526 -14 643 -14 l 526 -14 q 320 30 405 -14 q 191 161 235 74 q 147 377 147 249 l 147 377 l 147 867 l 38 903 l 38 931 l 368 931 l 368 903 l 258 867 l 258 371 q 290 203 258 270 q 385 104 322 137 q 542 71 448 71 l 542 71 q 697 102 634 71 q 792 194 760 134 q 825 340 825 254 z m 539 1110 l 539 1110 q 448 1090 486 1110 q 398 1025 410 1069 l 398 1025 l 352 1025 q 392 1128 368 1090 q 452 1181 416 1165 q 539 1197 488 1197 l 539 1197 q 626 1181 591 1197 q 686 1128 662 1165 q 726 1025 710 1090 l 726 1025 l 680 1025 q 630 1090 667 1069 q 539 1110 592 1110 z "},"Ụ":{"ha":1040,"x_min":38,"x_max":1001,"o":"m 825 340 l 825 340 l 825 867 l 715 903 l 715 931 l 1001 931 l 1001 903 l 892 867 l 892 353 q 849 155 892 237 q 725 29 806 72 q 526 -14 643 -14 l 526 -14 q 320 30 405 -14 q 191 161 235 74 q 147 377 147 249 l 147 377 l 147 867 l 38 903 l 38 931 l 368 931 l 368 903 l 258 867 l 258 371 q 290 203 258 270 q 385 104 322 137 q 542 71 448 71 l 542 71 q 697 102 634 71 q 792 194 760 134 q 825 340 825 254 z m 539 -258 l 539 -258 q 480 -235 503 -258 q 457 -177 457 -211 l 457 -177 q 480 -119 457 -142 q 539 -96 503 -96 l 539 -96 q 598 -119 576 -96 q 621 -177 621 -142 l 621 -177 q 598 -235 621 -211 q 539 -258 576 -258 z "},"Ủ":{"ha":1040,"x_min":38,"x_max":1001,"o":"m 825 340 l 825 340 l 825 867 l 715 903 l 715 931 l 1001 931 l 1001 903 l 892 867 l 892 353 q 849 155 892 237 q 725 29 806 72 q 526 -14 643 -14 l 526 -14 q 320 30 405 -14 q 191 161 235 74 q 147 377 147 249 l 147 377 l 147 867 l 38 903 l 38 931 l 368 931 l 368 903 l 258 867 l 258 371 q 290 203 258 270 q 385 104 322 137 q 542 71 448 71 l 542 71 q 697 102 634 71 q 792 194 760 134 q 825 340 825 254 z m 438 1153 l 438 1153 l 455 1247 q 552 1231 513 1242 q 613 1203 590 1219 q 646 1168 636 1188 q 656 1126 656 1149 l 656 1126 q 644 1074 656 1098 q 598 1031 633 1049 q 492 1002 563 1013 l 492 1002 l 485 1042 q 539 1055 520 1048 q 566 1073 558 1063 q 573 1098 573 1083 l 573 1098 q 563 1122 573 1112 q 523 1140 552 1133 q 438 1153 494 1148 z "},"Ứ":{"ha":1044,"x_min":38,"x_max":1120,"o":"m 1015 974 l 1015 974 q 1011 1002 1015 992 q 1003 1021 1007 1012 q 999 1047 999 1031 l 999 1047 q 1014 1080 999 1067 q 1051 1093 1028 1093 l 1051 1093 q 1102 1072 1083 1093 q 1120 1014 1120 1050 l 1120 1014 q 1099 942 1120 974 q 1028 893 1078 911 q 892 872 978 874 l 892 872 l 892 353 q 849 155 892 237 q 725 29 806 72 q 526 -14 643 -14 l 526 -14 q 320 30 405 -14 q 191 161 235 74 q 147 377 147 249 l 147 377 l 147 867 l 38 903 l 38 931 l 368 931 l 368 903 l 258 867 l 258 371 q 290 203 258 270 q 385 104 322 137 q 542 71 448 71 l 542 71 q 697 102 634 71 q 792 194 760 134 q 825 340 825 254 l 825 340 l 825 867 l 715 903 l 715 931 l 933 931 q 984 936 966 931 q 1008 951 1001 942 q 1015 974 1015 961 z m 554 1025 l 514 1025 l 586 1192 l 740 1192 l 740 1179 l 554 1025 z "},"Ừ":{"ha":1044,"x_min":38,"x_max":1120,"o":"m 1015 974 l 1015 974 q 1011 1002 1015 992 q 1003 1021 1007 1012 q 999 1047 999 1031 l 999 1047 q 1014 1080 999 1067 q 1051 1093 1028 1093 l 1051 1093 q 1102 1072 1083 1093 q 1120 1014 1120 1050 l 1120 1014 q 1099 942 1120 974 q 1028 893 1078 911 q 892 872 978 874 l 892 872 l 892 353 q 849 155 892 237 q 725 29 806 72 q 526 -14 643 -14 l 526 -14 q 320 30 405 -14 q 191 161 235 74 q 147 377 147 249 l 147 377 l 147 867 l 38 903 l 38 931 l 368 931 l 368 903 l 258 867 l 258 371 q 290 203 258 270 q 385 104 322 137 q 542 71 448 71 l 542 71 q 697 102 634 71 q 792 194 760 134 q 825 340 825 254 l 825 340 l 825 867 l 715 903 l 715 931 l 933 931 q 984 936 966 931 q 1008 951 1001 942 q 1015 974 1015 961 z m 492 1192 l 564 1025 l 524 1025 l 338 1179 l 338 1192 l 492 1192 z "},"Ử":{"ha":1044,"x_min":38,"x_max":1120,"o":"m 1015 974 l 1015 974 q 1011 1002 1015 992 q 1003 1021 1007 1012 q 999 1047 999 1031 l 999 1047 q 1014 1080 999 1067 q 1051 1093 1028 1093 l 1051 1093 q 1102 1072 1083 1093 q 1120 1014 1120 1050 l 1120 1014 q 1099 942 1120 974 q 1028 893 1078 911 q 892 872 978 874 l 892 872 l 892 353 q 849 155 892 237 q 725 29 806 72 q 526 -14 643 -14 l 526 -14 q 320 30 405 -14 q 191 161 235 74 q 147 377 147 249 l 147 377 l 147 867 l 38 903 l 38 931 l 368 931 l 368 903 l 258 867 l 258 371 q 290 203 258 270 q 385 104 322 137 q 542 71 448 71 l 542 71 q 697 102 634 71 q 792 194 760 134 q 825 340 825 254 l 825 340 l 825 867 l 715 903 l 715 931 l 933 931 q 984 936 966 931 q 1008 951 1001 942 q 1015 974 1015 961 z m 438 1153 l 438 1153 l 455 1247 q 552 1231 513 1242 q 613 1203 590 1219 q 646 1168 636 1188 q 656 1126 656 1149 l 656 1126 q 644 1074 656 1098 q 598 1031 633 1049 q 492 1002 563 1013 l 492 1002 l 485 1042 q 539 1055 520 1048 q 566 1073 558 1063 q 573 1098 573 1083 l 573 1098 q 563 1122 573 1112 q 523 1140 552 1133 q 438 1153 494 1148 z "},"Ữ":{"ha":1044,"x_min":38,"x_max":1120,"o":"m 1015 974 l 1015 974 q 1011 1002 1015 992 q 1003 1021 1007 1012 q 999 1047 999 1031 l 999 1047 q 1014 1080 999 1067 q 1051 1093 1028 1093 l 1051 1093 q 1102 1072 1083 1093 q 1120 1014 1120 1050 l 1120 1014 q 1099 942 1120 974 q 1028 893 1078 911 q 892 872 978 874 l 892 872 l 892 353 q 849 155 892 237 q 725 29 806 72 q 526 -14 643 -14 l 526 -14 q 320 30 405 -14 q 191 161 235 74 q 147 377 147 249 l 147 377 l 147 867 l 38 903 l 38 931 l 368 931 l 368 903 l 258 867 l 258 371 q 290 203 258 270 q 385 104 322 137 q 542 71 448 71 l 542 71 q 697 102 634 71 q 792 194 760 134 q 825 340 825 254 l 825 340 l 825 867 l 715 903 l 715 931 l 933 931 q 984 936 966 931 q 1008 951 1001 942 q 1015 974 1015 961 z m 682 1192 l 726 1192 q 700 1084 713 1122 q 667 1033 686 1047 q 617 1019 648 1019 l 617 1019 q 569 1032 592 1019 q 525 1061 547 1044 q 485 1090 504 1078 q 451 1103 467 1103 l 451 1103 q 431 1097 440 1103 q 414 1075 422 1092 q 396 1025 406 1058 l 396 1025 l 351 1025 q 379 1132 365 1095 q 411 1183 392 1169 q 460 1197 431 1197 l 460 1197 q 508 1185 485 1197 q 552 1156 531 1172 q 592 1126 574 1139 q 627 1114 611 1114 l 627 1114 q 647 1119 638 1114 q 664 1142 656 1125 q 682 1192 673 1159 l 682 1192 z "},"Ự":{"ha":1044,"x_min":38,"x_max":1120,"o":"m 1015 974 l 1015 974 q 1011 1002 1015 992 q 1003 1021 1007 1012 q 999 1047 999 1031 l 999 1047 q 1014 1080 999 1067 q 1051 1093 1028 1093 l 1051 1093 q 1102 1072 1083 1093 q 1120 1014 1120 1050 l 1120 1014 q 1099 942 1120 974 q 1028 893 1078 911 q 892 872 978 874 l 892 872 l 892 353 q 849 155 892 237 q 725 29 806 72 q 526 -14 643 -14 l 526 -14 q 320 30 405 -14 q 191 161 235 74 q 147 377 147 249 l 147 377 l 147 867 l 38 903 l 38 931 l 368 931 l 368 903 l 258 867 l 258 371 q 290 203 258 270 q 385 104 322 137 q 542 71 448 71 l 542 71 q 697 102 634 71 q 792 194 760 134 q 825 340 825 254 l 825 340 l 825 867 l 715 903 l 715 931 l 933 931 q 984 936 966 931 q 1008 951 1001 942 q 1015 974 1015 961 z m 539 -258 l 539 -258 q 480 -235 503 -258 q 457 -177 457 -211 l 457 -177 q 480 -119 457 -142 q 539 -96 503 -96 l 539 -96 q 598 -119 576 -96 q 621 -177 621 -142 l 621 -177 q 598 -235 621 -211 q 539 -258 576 -258 z "},"Ŵ":{"ha":1299,"x_min":-6,"x_max":1301,"o":"m 631 797 l 675 821 l 351 -14 l 318 -14 l 97 866 l -6 903 l -6 931 l 331 931 l 331 903 l 211 867 l 387 156 l 360 156 l 658 944 l 692 944 l 1018 128 l 963 103 l 1135 867 l 1016 903 l 1016 931 l 1301 931 l 1301 903 l 1201 867 l 990 -14 l 957 -14 l 631 797 z m 816 1025 l 661 1115 l 678 1115 l 523 1025 l 471 1025 l 617 1192 l 722 1192 l 868 1025 l 816 1025 z "},"Ẁ":{"ha":1299,"x_min":-6,"x_max":1301,"o":"m 631 797 l 675 821 l 351 -14 l 318 -14 l 97 866 l -6 903 l -6 931 l 331 931 l 331 903 l 211 867 l 387 156 l 360 156 l 658 944 l 692 944 l 1018 128 l 963 103 l 1135 867 l 1016 903 l 1016 931 l 1301 931 l 1301 903 l 1201 867 l 990 -14 l 957 -14 l 631 797 z m 622 1192 l 694 1025 l 654 1025 l 468 1179 l 468 1192 l 622 1192 z "},"Ẃ":{"ha":1299,"x_min":-6,"x_max":1301,"o":"m 631 797 l 675 821 l 351 -14 l 318 -14 l 97 866 l -6 903 l -6 931 l 331 931 l 331 903 l 211 867 l 387 156 l 360 156 l 658 944 l 692 944 l 1018 128 l 963 103 l 1135 867 l 1016 903 l 1016 931 l 1301 931 l 1301 903 l 1201 867 l 990 -14 l 957 -14 l 631 797 z m 685 1025 l 644 1025 l 717 1192 l 871 1192 l 871 1179 l 685 1025 z "},"Ẅ":{"ha":1299,"x_min":-6,"x_max":1301,"o":"m 631 797 l 675 821 l 351 -14 l 318 -14 l 97 866 l -6 903 l -6 931 l 331 931 l 331 903 l 211 867 l 387 156 l 360 156 l 658 944 l 692 944 l 1018 128 l 963 103 l 1135 867 l 1016 903 l 1016 931 l 1301 931 l 1301 903 l 1201 867 l 990 -14 l 957 -14 l 631 797 z m 544 1033 l 544 1033 q 489 1055 510 1033 q 467 1108 467 1077 l 467 1108 q 489 1162 467 1140 q 544 1184 510 1184 l 544 1184 q 599 1162 578 1184 q 620 1108 620 1140 l 620 1108 q 599 1055 620 1077 q 544 1033 578 1033 z m 795 1033 l 795 1033 q 740 1055 761 1033 q 719 1108 719 1077 l 719 1108 q 740 1162 719 1140 q 795 1184 761 1184 l 795 1184 q 850 1162 829 1184 q 872 1108 872 1140 l 872 1108 q 850 1055 872 1077 q 795 1033 829 1033 z "},"Ý":{"ha":922,"x_min":-8,"x_max":915,"o":"m 421 403 l 95 866 l -8 903 l -8 931 l 349 931 l 349 903 l 233 867 l 534 433 l 490 435 l 731 867 l 617 903 l 617 931 l 915 931 l 915 903 l 808 867 l 532 408 l 532 63 l 642 27 l 642 0 l 311 0 l 311 27 l 421 63 l 421 403 z m 490 1025 l 449 1025 l 522 1192 l 676 1192 l 676 1179 l 490 1025 z "},"Ŷ":{"ha":922,"x_min":-8,"x_max":915,"o":"m 421 403 l 95 866 l -8 903 l -8 931 l 349 931 l 349 903 l 233 867 l 534 433 l 490 435 l 731 867 l 617 903 l 617 931 l 915 931 l 915 903 l 808 867 l 532 408 l 532 63 l 642 27 l 642 0 l 311 0 l 311 27 l 421 63 l 421 403 z m 621 1025 l 466 1115 l 483 1115 l 328 1025 l 276 1025 l 422 1192 l 527 1192 l 673 1025 l 621 1025 z "},"Ÿ":{"ha":922,"x_min":-8,"x_max":915,"o":"m 421 403 l 95 866 l -8 903 l -8 931 l 349 931 l 349 903 l 233 867 l 534 433 l 490 435 l 731 867 l 617 903 l 617 931 l 915 931 l 915 903 l 808 867 l 532 408 l 532 63 l 642 27 l 642 0 l 311 0 l 311 27 l 421 63 l 421 403 z m 349 1033 l 349 1033 q 293 1055 315 1033 q 272 1108 272 1077 l 272 1108 q 293 1162 272 1140 q 349 1184 315 1184 l 349 1184 q 404 1162 383 1184 q 425 1108 425 1140 l 425 1108 q 404 1055 425 1077 q 349 1033 383 1033 z m 600 1033 l 600 1033 q 545 1055 566 1033 q 524 1108 524 1077 l 524 1108 q 545 1162 524 1140 q 600 1184 566 1184 l 600 1184 q 655 1162 634 1184 q 676 1108 676 1140 l 676 1108 q 655 1055 676 1077 q 600 1033 634 1033 z "},"Ȳ":{"ha":922,"x_min":-8,"x_max":915,"o":"m 421 403 l 95 866 l -8 903 l -8 931 l 349 931 l 349 903 l 233 867 l 534 433 l 490 435 l 731 867 l 617 903 l 617 931 l 915 931 l 915 903 l 808 867 l 532 408 l 532 63 l 642 27 l 642 0 l 311 0 l 311 27 l 421 63 l 421 403 z m 648 1072 l 301 1072 l 301 1145 l 648 1145 l 648 1072 z "},"Ỳ":{"ha":922,"x_min":-8,"x_max":915,"o":"m 421 403 l 95 866 l -8 903 l -8 931 l 349 931 l 349 903 l 233 867 l 534 433 l 490 435 l 731 867 l 617 903 l 617 931 l 915 931 l 915 903 l 808 867 l 532 408 l 532 63 l 642 27 l 642 0 l 311 0 l 311 27 l 421 63 l 421 403 z m 427 1192 l 499 1025 l 459 1025 l 273 1179 l 273 1192 l 427 1192 z "},"Ỵ":{"ha":922,"x_min":-8,"x_max":915,"o":"m 421 403 l 95 866 l -8 903 l -8 931 l 349 931 l 349 903 l 233 867 l 534 433 l 490 435 l 731 867 l 617 903 l 617 931 l 915 931 l 915 903 l 808 867 l 532 408 l 532 63 l 642 27 l 642 0 l 311 0 l 311 27 l 421 63 l 421 403 z m 474 -258 l 474 -258 q 415 -235 438 -258 q 392 -177 392 -211 l 392 -177 q 415 -119 392 -142 q 474 -96 438 -96 l 474 -96 q 534 -119 511 -96 q 556 -177 556 -142 l 556 -177 q 534 -235 556 -211 q 474 -258 511 -258 z "},"Ỷ":{"ha":922,"x_min":-8,"x_max":915,"o":"m 421 403 l 95 866 l -8 903 l -8 931 l 349 931 l 349 903 l 233 867 l 534 433 l 490 435 l 731 867 l 617 903 l 617 931 l 915 931 l 915 903 l 808 867 l 532 408 l 532 63 l 642 27 l 642 0 l 311 0 l 311 27 l 421 63 l 421 403 z m 373 1153 l 373 1153 l 390 1247 q 487 1231 449 1242 q 549 1203 526 1219 q 581 1168 572 1188 q 591 1126 591 1149 l 591 1126 q 580 1074 591 1098 q 533 1031 568 1049 q 427 1002 498 1013 l 427 1002 l 420 1042 q 475 1055 456 1048 q 501 1073 494 1063 q 508 1098 508 1083 l 508 1098 q 498 1122 508 1112 q 458 1140 488 1133 q 373 1153 429 1148 z "},"Ỹ":{"ha":922,"x_min":-8,"x_max":915,"o":"m 421 403 l 95 866 l -8 903 l -8 931 l 349 931 l 349 903 l 233 867 l 534 433 l 490 435 l 731 867 l 617 903 l 617 931 l 915 931 l 915 903 l 808 867 l 532 408 l 532 63 l 642 27 l 642 0 l 311 0 l 311 27 l 421 63 l 421 403 z m 617 1192 l 662 1192 q 635 1084 649 1122 q 602 1033 622 1047 q 553 1019 583 1019 l 553 1019 q 505 1032 528 1019 q 461 1061 482 1044 q 421 1090 440 1078 q 386 1103 402 1103 l 386 1103 q 367 1097 376 1103 q 349 1075 358 1092 q 331 1025 341 1058 l 331 1025 l 287 1025 q 314 1132 301 1095 q 347 1183 328 1169 q 396 1197 366 1197 l 396 1197 q 444 1185 421 1197 q 488 1156 467 1172 q 528 1126 509 1139 q 563 1114 547 1114 l 563 1114 q 582 1119 573 1114 q 600 1142 591 1125 q 617 1192 608 1159 l 617 1192 z "},"Ź":{"ha":863,"x_min":47,"x_max":823,"o":"m 196 931 l 794 931 l 794 917 l 210 48 l 201 65 l 696 65 l 792 245 l 823 240 l 781 -34 l 769 -34 l 692 0 l 72 0 l 72 14 l 651 883 l 660 865 l 197 865 l 76 665 l 47 672 l 99 972 l 113 972 l 196 931 z m 465 1025 l 425 1025 l 497 1192 l 651 1192 l 651 1179 l 465 1025 z "},"Ż":{"ha":863,"x_min":47,"x_max":823,"o":"m 196 931 l 794 931 l 794 917 l 210 48 l 201 65 l 696 65 l 792 245 l 823 240 l 781 -34 l 769 -34 l 692 0 l 72 0 l 72 14 l 651 883 l 660 865 l 197 865 l 76 665 l 47 672 l 99 972 l 113 972 l 196 931 z m 450 1027 l 450 1027 q 391 1051 414 1027 q 368 1108 368 1074 l 368 1108 q 391 1166 368 1143 q 450 1190 414 1190 l 450 1190 q 509 1166 487 1190 q 532 1108 532 1143 l 532 1108 q 509 1051 532 1074 q 450 1027 487 1027 z "},"Ž":{"ha":863,"x_min":47,"x_max":823,"o":"m 196 931 l 794 931 l 794 917 l 210 48 l 201 65 l 696 65 l 792 245 l 823 240 l 781 -34 l 769 -34 l 692 0 l 72 0 l 72 14 l 651 883 l 660 865 l 197 865 l 76 665 l 47 672 l 99 972 l 113 972 l 196 931 z m 303 1192 l 458 1101 l 442 1101 l 597 1192 l 649 1192 l 503 1025 l 397 1025 l 251 1192 l 303 1192 z "},"Þ":{"ha":839,"x_min":59,"x_max":785,"o":"m 667 481 l 667 481 q 640 588 667 544 q 550 655 613 632 q 379 678 487 678 l 379 678 l 176 678 l 185 743 l 439 743 q 639 709 563 743 q 750 618 715 676 q 785 489 785 560 l 785 489 q 749 353 785 415 q 637 255 713 292 q 439 217 560 217 l 439 217 l 185 217 l 176 283 l 456 283 q 564 305 517 283 q 640 372 612 328 q 667 481 667 416 z m 280 63 l 390 27 l 390 0 l 59 0 l 59 27 l 169 63 l 169 867 l 59 903 l 59 931 l 390 931 l 390 903 l 280 867 l 280 63 z "},"Ð":{"ha":1040,"x_min":60,"x_max":974,"o":"m 507 440 l 60 440 l 60 506 l 507 506 l 507 440 z m 853 478 l 853 478 q 731 770 853 675 q 397 865 609 865 l 397 865 l 212 865 l 212 931 l 431 931 q 734 883 613 931 q 914 738 854 835 q 974 493 974 640 l 974 493 q 903 227 974 337 q 709 58 832 117 q 433 0 587 0 l 433 0 l 212 0 l 212 65 l 413 65 q 643 108 544 65 q 798 241 742 150 q 853 478 853 332 z m 281 0 l 60 0 l 60 27 l 170 63 l 170 867 l 60 903 l 60 931 l 281 931 l 281 0 z "},"Ə":{"ha":943,"x_min":57,"x_max":876,"o":"m 822 317 l 163 317 l 199 325 q 238 174 206 235 q 323 82 269 113 q 453 50 377 50 l 453 50 q 574 76 518 50 q 670 150 629 101 q 735 271 712 199 q 758 434 758 342 l 758 434 q 718 660 758 567 q 605 800 678 752 q 431 848 532 848 l 431 848 q 305 834 363 848 q 194 795 246 821 q 97 735 143 770 l 97 735 l 65 776 q 199 873 138 836 q 324 927 261 910 q 461 944 387 944 l 461 944 q 684 883 592 944 q 827 717 777 822 q 876 476 876 611 l 876 476 q 846 287 876 376 q 758 131 815 199 q 620 25 701 63 q 438 -14 539 -14 l 438 -14 q 244 32 326 -14 q 116 167 163 78 q 57 382 68 256 l 57 382 l 824 382 l 822 317 z "},"Ǆ":{"ha":1878,"x_min":59,"x_max":1838,"o":"m 851 478 l 851 478 q 730 770 851 675 q 396 865 608 865 l 396 865 l 210 865 l 210 931 l 430 931 q 732 883 612 931 q 913 738 853 835 q 972 493 972 640 l 972 493 q 901 227 972 337 q 708 58 831 117 q 431 0 585 0 l 431 0 l 210 0 l 210 65 l 411 65 q 642 108 543 65 q 796 241 741 150 q 851 478 851 332 z m 280 0 l 59 0 l 59 27 l 169 63 l 169 867 l 59 903 l 59 931 l 280 931 l 280 0 z m 1211 931 l 1809 931 l 1809 917 l 1225 48 l 1216 65 l 1711 65 l 1808 245 l 1838 240 l 1796 -34 l 1785 -34 l 1707 0 l 1087 0 l 1087 14 l 1667 883 l 1676 865 l 1212 865 l 1092 665 l 1063 672 l 1114 972 l 1128 972 l 1211 931 z m 1319 1192 l 1474 1101 l 1457 1101 l 1612 1192 l 1664 1192 l 1518 1025 l 1413 1025 l 1267 1192 l 1319 1192 z "},"ǅ":{"ha":1572,"x_min":59,"x_max":1541,"o":"m 851 478 l 851 478 q 730 770 851 675 q 396 865 608 865 l 396 865 l 210 865 l 210 931 l 430 931 q 732 883 612 931 q 913 738 853 835 q 972 493 972 640 l 972 493 q 901 227 972 337 q 708 58 831 117 q 431 0 585 0 l 431 0 l 210 0 l 210 65 l 411 65 q 642 108 543 65 q 796 241 741 150 q 851 478 851 332 z m 280 0 l 59 0 l 59 27 l 169 63 l 169 867 l 59 903 l 59 931 l 280 931 l 280 0 z m 1497 0 l 1049 0 l 1049 17 l 1407 563 l 1439 536 l 1109 536 l 1179 574 l 1085 406 l 1056 406 l 1083 606 l 1106 606 l 1154 592 l 1527 592 l 1527 575 l 1166 28 l 1144 56 l 1442 56 l 1406 22 l 1509 187 l 1541 187 l 1497 0 z m 1167 931 l 1322 788 l 1304 788 l 1460 931 l 1505 931 l 1369 701 l 1257 701 l 1122 931 l 1167 931 z "},"Ǉ":{"ha":1399,"x_min":59,"x_max":1358,"o":"m 786 272 l 730 -41 l 715 -41 l 633 0 l 210 0 l 210 65 l 719 65 l 620 45 l 757 279 l 786 272 z m 390 903 l 280 867 l 280 0 l 59 0 l 59 27 l 169 63 l 169 867 l 59 903 l 59 931 l 390 931 l 390 903 z m 1249 867 l 1251 299 q 1226 166 1251 224 q 1158 68 1201 108 q 1057 7 1114 28 q 935 -14 1000 -14 l 935 -14 q 876 -5 902 -14 q 835 21 850 4 q 821 61 821 38 l 821 61 q 835 101 821 84 q 879 118 849 118 l 879 118 q 907 108 892 118 q 939 86 922 99 q 977 64 957 74 q 1019 54 997 54 l 1019 54 q 1103 96 1069 54 q 1138 240 1138 138 l 1138 240 l 1138 867 l 1028 903 l 1028 931 l 1358 931 l 1358 903 l 1249 867 z "},"ǈ":{"ha":1120,"x_min":59,"x_max":1047,"o":"m 786 272 l 730 -41 l 715 -41 l 633 0 l 210 0 l 210 65 l 719 65 l 620 45 l 757 279 l 786 272 z m 390 903 l 280 867 l 280 0 l 59 0 l 59 27 l 169 63 l 169 867 l 59 903 l 59 931 l 390 931 l 390 903 z m 964 820 l 964 820 q 904 844 927 820 q 881 903 881 868 l 881 903 q 904 961 881 938 q 964 985 927 985 l 964 985 q 1024 961 1001 985 q 1047 903 1047 938 l 1047 903 q 1024 844 1047 868 q 964 820 1001 820 z m 920 -107 l 920 476 q 896 495 913 485 q 859 515 880 505 q 817 531 839 524 l 817 531 l 817 552 l 1013 606 l 1026 606 l 1022 493 l 1022 -74 q 1018 -141 1022 -112 q 1005 -192 1015 -169 q 975 -240 995 -216 q 919 -294 954 -264 q 833 -368 885 -325 l 833 -368 l 800 -332 q 864 -262 840 -292 q 900 -209 888 -233 q 916 -161 912 -185 q 920 -107 920 -137 l 920 -107 z "},"Ǌ":{"ha":1612,"x_min":57,"x_max":1572,"o":"m 60 27 l 170 63 l 170 856 l 57 903 l 57 931 l 275 931 l 849 173 l 816 109 l 816 867 l 697 903 l 697 931 l 992 931 l 992 903 l 883 867 l 883 -13 l 853 -13 l 214 829 l 237 854 l 237 63 l 356 27 l 356 0 l 60 0 l 60 27 z m 1463 867 l 1465 299 q 1440 166 1465 224 q 1371 68 1415 108 q 1270 7 1327 28 q 1149 -14 1213 -14 l 1149 -14 q 1089 -5 1115 -14 q 1049 21 1063 4 q 1034 61 1034 38 l 1034 61 q 1048 101 1034 84 q 1092 118 1063 118 l 1092 118 q 1120 108 1105 118 q 1152 86 1135 99 q 1190 64 1170 74 q 1233 54 1210 54 l 1233 54 q 1317 96 1282 54 q 1351 240 1351 138 l 1351 240 l 1351 867 l 1242 903 l 1242 931 l 1572 931 l 1572 903 l 1463 867 z "},"ǋ":{"ha":1333,"x_min":57,"x_max":1260,"o":"m 60 27 l 170 63 l 170 856 l 57 903 l 57 931 l 275 931 l 849 173 l 816 109 l 816 867 l 697 903 l 697 931 l 992 931 l 992 903 l 883 867 l 883 -13 l 853 -13 l 214 829 l 237 854 l 237 63 l 356 27 l 356 0 l 60 0 l 60 27 z m 1177 820 l 1177 820 q 1117 844 1140 820 q 1094 903 1094 868 l 1094 903 q 1117 961 1094 938 q 1177 985 1140 985 l 1177 985 q 1237 961 1214 985 q 1260 903 1260 938 l 1260 903 q 1237 844 1260 868 q 1177 820 1214 820 z m 1133 -107 l 1133 476 q 1109 495 1126 485 q 1073 515 1093 505 q 1031 531 1052 524 l 1031 531 l 1031 552 l 1226 606 l 1239 606 l 1235 493 l 1235 -74 q 1232 -141 1235 -112 q 1218 -192 1228 -169 q 1188 -240 1208 -216 q 1133 -294 1167 -264 q 1046 -368 1098 -325 l 1046 -368 l 1013 -332 q 1077 -262 1053 -292 q 1113 -209 1101 -233 q 1129 -161 1125 -185 q 1133 -107 1133 -137 l 1133 -107 z "},"a":{"ha":600,"x_min":58,"x_max":604,"o":"m 418 377 l 418 377 l 429 328 q 295 291 347 310 q 214 251 243 272 q 173 209 185 231 q 162 159 162 186 l 162 159 q 190 87 162 112 q 258 62 218 62 l 258 62 q 318 78 291 62 q 361 122 345 95 q 378 181 378 149 l 378 181 l 378 431 q 352 510 378 481 q 267 540 326 540 l 267 540 q 219 534 247 540 q 167 514 192 527 l 167 514 l 202 546 q 196 507 200 526 q 187 472 192 488 q 174 449 182 457 l 174 449 q 147 431 163 437 q 113 426 130 426 l 113 426 q 79 436 92 426 q 67 461 67 446 l 67 461 q 88 507 67 483 q 144 552 109 531 q 222 586 179 573 q 310 599 265 599 l 310 599 q 408 581 370 599 q 462 527 445 563 q 479 439 479 491 l 479 439 l 479 122 q 485 86 479 100 q 504 64 492 72 q 534 57 516 57 l 534 57 q 568 63 550 57 q 604 80 587 69 l 604 80 l 604 48 q 544 2 576 17 q 485 -12 513 -12 l 485 -12 q 428 2 452 -12 q 392 45 404 17 q 379 112 379 74 l 379 112 l 383 119 q 350 50 374 80 q 291 3 325 20 q 217 -14 256 -14 l 217 -14 q 103 25 148 -14 q 58 137 58 64 l 58 137 q 73 208 58 176 q 128 268 89 240 q 239 323 168 296 q 418 377 309 349 z "},"b":{"ha":726,"x_min":-6,"x_max":674,"o":"m 144 40 l 144 40 l 217 40 l 108 -11 l 85 -3 l 101 142 l 101 846 q 77 868 92 857 q 42 891 63 879 q -6 913 21 902 l -6 913 l -6 927 l 195 985 l 209 985 l 202 874 l 202 178 q 222 110 202 140 q 280 61 242 79 q 370 44 318 44 l 370 44 q 470 74 429 44 q 534 161 512 105 q 556 293 556 217 l 556 293 q 532 423 556 369 q 463 503 507 476 q 362 531 419 531 l 362 531 q 284 524 321 531 q 216 503 247 517 q 157 467 184 489 l 157 467 l 157 517 q 228 556 194 540 q 293 584 263 573 q 352 600 324 594 q 406 606 381 606 l 406 606 q 553 570 494 606 q 643 472 613 535 q 674 326 674 409 l 674 326 q 649 188 674 250 q 579 80 624 125 q 473 10 534 35 q 340 -14 413 -14 l 340 -14 q 281 -8 311 -14 q 216 9 250 -3 q 144 40 183 20 z "},"c":{"ha":576,"x_min":52,"x_max":542,"o":"m 379 606 l 379 606 q 470 593 436 606 q 518 561 503 580 q 533 524 533 542 l 533 524 q 525 490 533 505 q 503 468 517 476 q 469 460 488 460 l 469 460 q 433 468 449 460 q 404 490 417 477 q 377 516 390 503 q 347 537 363 528 q 311 546 331 546 l 311 546 q 237 523 273 546 q 178 454 201 501 q 155 337 155 408 l 155 337 q 183 195 155 255 q 261 102 210 135 q 381 69 312 69 l 381 69 q 455 85 419 69 q 526 131 492 101 l 526 131 l 542 113 q 474 41 509 69 q 401 0 440 13 q 317 -14 362 -14 l 317 -14 q 179 25 239 -14 q 86 130 119 63 q 52 279 52 196 l 52 279 q 74 404 52 345 q 136 508 95 463 q 239 580 178 553 q 379 606 300 606 z "},"d":{"ha":738,"x_min":53,"x_max":714,"o":"m 524 94 l 524 414 q 483 510 524 472 q 363 548 442 548 l 363 548 q 258 517 301 548 q 192 431 215 487 q 170 299 170 375 l 170 299 q 195 169 170 222 q 263 89 219 116 q 365 61 307 61 l 365 61 q 467 78 418 61 q 563 131 516 95 l 563 131 l 563 82 q 478 33 513 52 q 417 4 443 14 q 368 -10 390 -6 q 320 -14 345 -14 l 320 -14 q 174 22 233 -14 q 83 120 114 57 q 53 265 53 183 l 53 265 q 79 408 53 345 q 150 515 105 471 q 255 582 196 559 q 378 606 313 606 l 378 606 q 444 600 412 606 q 510 583 476 594 q 583 552 544 572 l 583 552 l 524 513 l 524 865 q 503 885 516 876 q 473 902 490 894 q 435 919 456 911 l 435 919 l 435 932 l 619 985 l 632 985 l 626 873 l 626 97 q 642 84 632 90 q 665 71 653 77 q 690 60 678 65 q 714 55 703 56 l 714 55 l 714 34 l 548 -11 l 534 -11 l 524 94 z "},"e":{"ha":610,"x_min":52,"x_max":565,"o":"m 329 606 l 329 606 q 446 576 397 606 q 525 489 495 546 q 561 349 554 431 l 561 349 l 136 349 l 138 395 l 494 412 l 447 383 q 427 470 442 433 q 386 530 413 508 q 319 551 360 551 l 319 551 q 233 524 270 551 q 176 446 197 497 q 156 320 156 394 l 156 320 q 186 187 156 243 q 270 100 216 131 q 397 69 324 69 l 397 69 q 448 76 423 69 q 499 97 474 83 q 547 131 524 111 l 547 131 l 565 113 q 494 41 530 69 q 417 0 458 13 q 331 -14 377 -14 l 331 -14 q 187 25 250 -14 q 88 133 124 65 q 52 288 52 201 l 52 288 q 85 447 52 375 q 181 563 119 519 q 329 606 243 606 z "},"f":{"ha":450,"x_min":27,"x_max":633,"o":"m 423 528 l 172 528 l 145 511 l 27 528 l 27 549 l 155 592 l 188 592 l 435 592 l 423 528 z m 247 690 l 247 59 l 365 26 l 365 0 l 40 0 l 40 26 l 145 59 l 145 617 q 176 787 145 717 q 260 901 208 857 q 376 965 313 944 q 505 985 440 985 l 505 985 q 564 980 540 985 q 603 965 588 974 q 626 943 619 956 q 633 917 633 931 l 633 917 q 614 872 633 890 q 567 854 594 854 l 567 854 q 528 864 544 854 q 498 886 512 874 q 465 908 483 899 q 419 918 447 918 l 419 918 q 336 897 376 918 q 272 826 297 876 q 247 690 247 776 l 247 690 z "},"g":{"ha":660,"x_min":14,"x_max":667,"o":"m 294 -368 l 294 -368 q 176 -357 228 -368 q 88 -326 124 -347 q 33 -275 51 -305 q 14 -205 14 -244 l 14 -205 q 28 -152 14 -177 q 74 -106 43 -127 q 152 -66 105 -84 q 267 -35 200 -49 l 267 -35 l 302 -35 l 302 -51 q 190 -84 231 -63 q 132 -134 149 -106 q 115 -197 115 -162 l 115 -197 q 135 -262 115 -235 q 198 -305 156 -290 q 308 -319 241 -319 l 308 -319 q 421 -300 372 -319 q 498 -248 470 -281 q 525 -177 525 -215 l 525 -177 q 513 -131 525 -150 q 473 -100 500 -112 q 400 -80 445 -87 q 290 -68 356 -72 l 290 -68 q 183 -52 225 -64 q 117 -21 141 -40 q 84 20 94 -3 q 75 68 75 43 l 75 68 q 119 148 75 115 q 237 196 163 181 l 237 196 l 254 183 q 197 160 217 178 q 176 111 176 142 l 176 111 q 182 81 176 94 q 206 57 188 67 q 260 39 224 47 q 356 28 296 32 l 356 28 q 466 13 417 24 q 550 -18 515 2 q 605 -69 585 -38 q 624 -143 624 -99 l 624 -143 q 584 -253 624 -201 q 470 -336 544 -304 q 294 -368 396 -368 z m 298 169 l 298 169 q 174 198 230 169 q 86 275 119 226 q 54 387 54 324 l 54 387 q 86 501 54 451 q 174 578 119 550 q 298 606 230 606 l 298 606 q 393 590 349 606 q 471 544 438 574 q 523 475 504 515 q 542 388 542 435 l 542 388 q 509 275 542 324 q 422 197 477 225 q 298 169 367 169 z m 303 216 l 303 216 q 397 260 363 216 q 431 381 431 303 l 431 381 q 393 511 431 464 q 292 559 355 559 l 292 559 q 199 516 233 559 q 165 394 165 472 l 165 394 q 203 264 165 312 q 303 216 241 216 z m 383 556 l 383 556 l 361 596 q 443 589 406 589 q 510 593 480 590 q 567 601 540 597 q 617 606 593 606 l 617 606 q 654 592 641 606 q 667 552 667 579 l 667 552 q 649 509 667 526 q 608 491 632 491 l 608 491 q 570 501 588 491 q 530 524 553 511 q 472 547 507 538 q 383 556 437 557 z "},"h":{"ha":745,"x_min":18,"x_max":734,"o":"m 418 0 l 418 26 l 526 59 l 526 388 q 510 452 526 425 q 463 495 494 480 q 386 510 431 510 l 386 510 q 284 489 331 510 q 219 440 238 469 l 219 440 l 192 463 q 262 530 229 502 q 327 574 295 557 q 392 598 358 590 q 462 606 425 606 l 462 606 q 586 552 546 606 q 627 381 627 498 l 627 381 l 627 59 l 734 26 l 734 0 l 418 0 z m 334 26 l 334 0 l 19 0 l 19 26 l 125 59 l 125 846 q 101 868 116 857 q 66 891 87 879 q 18 913 45 902 l 18 913 l 18 927 l 219 985 l 233 985 l 226 874 l 226 59 l 334 26 z "},"i":{"ha":371,"x_min":36,"x_max":351,"o":"m 185 820 l 185 820 q 125 844 149 820 q 102 903 102 868 l 102 903 q 125 961 102 938 q 185 985 149 985 l 185 985 q 245 961 222 985 q 269 903 269 938 l 269 903 q 245 844 269 868 q 185 820 222 820 z m 235 606 l 247 606 l 243 493 l 243 59 l 351 26 l 351 0 l 36 0 l 36 26 l 142 59 l 142 476 q 118 495 134 485 q 81 515 101 505 q 39 531 60 524 l 39 531 l 39 552 l 235 606 z "},"j":{"ha":326,"x_min":6,"x_max":253,"o":"m 169 820 l 169 820 q 109 844 133 820 q 86 903 86 868 l 86 903 q 109 961 86 938 q 169 985 133 985 l 169 985 q 230 961 206 985 q 253 903 253 938 l 253 903 q 230 844 253 868 q 169 820 206 820 z m 126 -107 l 126 476 q 102 495 118 485 q 65 515 85 505 q 23 531 44 524 l 23 531 l 23 552 l 219 606 l 231 606 l 227 493 l 227 -74 q 224 -141 227 -112 q 211 -192 221 -169 q 180 -240 201 -216 q 125 -294 160 -264 q 38 -368 90 -325 l 38 -368 l 6 -332 q 69 -262 45 -292 q 105 -209 93 -233 q 122 -161 117 -185 q 126 -107 126 -137 l 126 -107 z "},"k":{"ha":717,"x_min":18,"x_max":725,"o":"m 578 536 l 368 326 l 378 354 l 639 58 l 725 26 l 725 0 l 433 0 l 433 26 l 514 55 l 299 298 l 208 298 l 208 353 l 326 353 l 503 536 l 413 562 l 413 592 l 667 592 l 667 562 l 578 536 z m 226 874 l 226 59 l 334 26 l 334 0 l 19 0 l 19 26 l 125 59 l 125 846 q 101 868 116 857 q 66 891 87 879 q 18 913 45 902 l 18 913 l 18 927 l 219 985 l 233 985 l 226 874 z "},"l":{"ha":356,"x_min":20,"x_max":336,"o":"m 228 874 l 228 59 l 336 26 l 336 0 l 22 0 l 22 26 l 127 59 l 127 846 q 103 868 118 857 q 68 891 89 879 q 20 913 47 902 l 20 913 l 20 927 l 222 985 l 235 985 l 228 874 z "},"m":{"ha":1105,"x_min":35,"x_max":1093,"o":"m 221 606 l 242 478 l 242 59 l 342 26 l 342 0 l 35 0 l 35 26 l 140 59 l 140 468 q 107 491 129 480 q 38 517 85 502 l 38 517 l 38 535 l 206 606 l 221 606 z m 614 440 l 614 440 l 614 59 l 714 26 l 714 0 l 412 0 l 412 26 l 513 59 l 513 397 q 496 460 513 435 q 451 497 480 485 q 385 510 422 510 l 385 510 q 293 492 338 510 q 233 446 249 474 l 233 446 l 207 472 q 272 534 242 508 q 333 575 303 560 q 393 598 363 591 q 459 606 424 606 l 459 606 q 549 581 515 606 q 599 519 583 557 q 614 440 614 481 z m 986 399 l 986 399 l 986 59 l 1093 26 l 1093 0 l 784 0 l 784 26 l 885 59 l 885 397 q 868 460 885 435 q 823 497 852 485 q 757 510 794 510 l 757 510 q 666 492 710 510 q 605 446 622 474 l 605 446 l 579 472 q 644 534 614 508 q 705 575 675 560 q 766 598 735 591 q 831 606 797 606 l 831 606 q 950 552 914 606 q 986 399 986 498 z "},"n":{"ha":760,"x_min":35,"x_max":749,"o":"m 221 606 l 242 478 l 242 59 l 349 26 l 349 0 l 35 0 l 35 26 l 140 59 l 140 468 q 107 491 129 480 q 38 517 85 502 l 38 517 l 38 535 l 206 606 l 221 606 z m 433 0 l 433 26 l 541 59 l 541 388 q 525 452 541 425 q 478 495 509 480 q 401 510 447 510 l 401 510 q 300 489 347 510 q 235 440 253 469 l 235 440 l 208 463 q 277 530 244 502 q 342 574 310 557 q 407 598 374 590 q 477 606 440 606 l 477 606 q 602 552 561 606 q 642 381 642 498 l 642 381 l 642 59 l 749 26 l 749 0 l 433 0 z "},"o":{"ha":701,"x_min":52,"x_max":649,"o":"m 353 40 l 353 40 q 446 65 405 40 q 510 143 487 90 q 534 279 534 197 l 534 279 q 511 429 534 368 q 446 521 488 490 q 348 552 404 552 l 348 552 q 255 527 296 552 q 190 448 214 501 q 167 313 167 395 l 167 313 q 190 163 167 224 q 255 71 213 102 q 353 40 297 40 z m 349 -14 l 349 -14 q 194 25 261 -14 q 90 132 127 63 q 52 289 52 200 l 52 289 q 91 452 52 381 q 198 565 131 524 q 352 606 266 606 l 352 606 q 507 567 440 606 q 611 460 574 528 q 649 303 649 392 l 649 303 q 609 140 649 211 q 502 27 570 68 q 349 -14 435 -14 z "},"p":{"ha":751,"x_min":19,"x_max":698,"o":"m 581 293 l 581 293 q 527 469 581 408 q 386 531 473 531 l 386 531 q 309 524 346 531 q 241 503 273 517 q 181 467 209 489 l 181 467 l 181 517 q 255 558 220 541 q 322 585 290 574 q 380 601 353 596 q 431 606 408 606 l 431 606 q 577 570 518 606 q 667 472 637 535 q 698 326 698 409 l 698 326 q 653 145 698 222 q 534 27 608 69 q 372 -14 460 -14 l 372 -14 q 307 -8 339 -14 q 241 9 275 -3 q 168 40 207 20 l 168 40 l 226 40 l 226 -295 l 344 -328 l 344 -354 l 19 -354 l 19 -328 l 125 -295 l 125 468 q 102 485 116 478 q 68 501 88 493 q 22 517 48 509 l 22 517 l 22 535 l 191 606 l 206 606 l 226 520 l 226 178 q 247 109 226 140 q 305 61 267 78 q 394 44 343 44 l 394 44 q 495 74 453 44 q 558 161 536 105 q 581 293 581 217 z "},"q":{"ha":725,"x_min":53,"x_max":731,"o":"m 170 299 l 170 299 q 195 169 170 222 q 263 89 219 116 q 365 61 307 61 l 365 61 q 478 77 426 61 q 569 124 529 92 l 569 124 l 569 75 q 498 35 532 52 q 433 8 464 19 q 375 -8 403 -3 q 320 -14 347 -14 l 320 -14 q 174 22 233 -14 q 83 120 114 57 q 53 265 53 183 l 53 265 q 96 444 53 367 q 215 563 140 521 q 386 606 290 606 l 386 606 q 446 600 416 606 q 510 583 476 594 q 583 552 544 572 l 583 552 l 510 552 l 619 603 l 641 594 l 626 449 l 626 -295 l 731 -328 l 731 -354 l 406 -354 l 406 -328 l 524 -295 l 524 414 q 480 509 524 471 q 356 548 435 548 l 356 548 q 256 517 298 548 q 192 431 215 487 q 170 299 170 375 z "},"r":{"ha":524,"x_min":35,"x_max":510,"o":"m 443 601 l 443 601 q 494 584 478 601 q 510 540 510 567 l 510 540 q 490 490 510 509 q 435 471 470 471 l 435 471 q 404 477 419 471 q 372 488 389 483 q 335 494 355 494 l 335 494 q 299 489 319 494 q 261 476 280 485 q 228 457 242 468 l 228 457 l 213 481 q 289 534 254 512 q 351 571 323 556 q 403 593 380 586 q 443 601 426 601 z m 235 606 l 242 478 l 242 59 l 349 26 l 349 0 l 35 0 l 35 26 l 140 59 l 140 468 q 117 485 131 478 q 83 501 103 493 q 38 517 63 509 l 38 517 l 38 535 l 220 606 l 235 606 z "},"s":{"ha":491,"x_min":52,"x_max":433,"o":"m 265 606 l 265 606 q 335 598 303 606 q 408 570 367 590 l 408 570 l 418 406 l 388 406 l 320 575 l 367 517 q 318 547 342 537 q 267 557 295 557 l 267 557 q 184 534 215 557 q 154 470 154 511 l 154 470 q 173 415 154 436 q 222 377 192 393 q 288 346 253 362 l 288 346 q 340 319 314 334 q 386 283 365 304 q 420 233 407 263 q 433 163 433 204 l 433 163 q 405 67 433 106 q 328 7 376 27 q 218 -14 280 -14 l 218 -14 q 146 -8 178 -14 q 83 11 115 -2 l 83 11 l 52 178 l 85 178 l 178 6 l 93 60 q 137 41 119 47 q 169 33 155 35 q 199 31 184 31 l 199 31 q 304 58 265 31 q 342 136 342 84 l 342 136 q 329 185 342 165 q 293 218 315 204 q 244 244 270 233 q 192 269 217 256 l 192 269 q 131 308 159 286 q 87 362 103 329 q 70 443 70 394 l 70 443 q 95 531 70 494 q 165 586 121 567 q 265 606 209 606 z "},"t":{"ha":447,"x_min":36,"x_max":435,"o":"m 213 571 l 213 167 q 241 97 213 120 q 321 74 269 74 l 321 74 q 374 78 345 74 q 435 93 402 83 l 435 93 l 435 60 q 365 16 395 32 q 310 -5 335 1 q 263 -11 286 -11 l 263 -11 q 183 6 217 -11 q 130 57 149 23 q 111 140 111 90 l 111 140 l 111 498 l 36 550 l 36 563 q 66 585 51 574 q 97 608 81 597 q 127 632 112 620 q 158 657 142 644 q 191 683 174 669 l 191 683 l 213 683 l 213 571 z m 404 528 l 173 528 l 173 592 l 415 592 l 404 528 z "},"u":{"ha":710,"x_min":19,"x_max":681,"o":"m 219 525 l 219 196 q 230 129 219 153 q 270 93 242 104 q 347 83 298 83 l 347 83 q 439 101 394 83 q 500 147 483 119 l 500 147 l 526 120 q 461 57 492 83 q 403 16 431 31 q 344 -7 374 0 q 280 -14 315 -14 l 280 -14 q 157 39 197 -14 q 117 199 117 92 l 117 199 l 117 524 l 19 565 l 19 592 l 225 602 l 219 525 z m 515 -11 l 501 -11 l 491 115 l 491 524 l 392 565 l 392 592 l 600 602 l 593 525 l 593 97 q 610 84 599 90 q 633 71 620 77 q 658 60 645 65 q 681 55 670 56 l 681 55 l 681 34 l 515 -11 z "},"v":{"ha":691,"x_min":-3,"x_max":670,"o":"m 670 562 l 596 536 l 373 -14 l 340 -14 l 83 529 l -3 562 l -3 592 l 282 592 l 282 562 l 192 533 l 388 118 l 378 118 l 539 536 l 449 562 l 449 592 l 670 592 l 670 562 z "},"w":{"ha":992,"x_min":3,"x_max":976,"o":"m 717 118 l 844 536 l 754 562 l 754 592 l 976 592 l 976 562 l 901 536 l 724 -14 l 690 -14 l 484 471 l 510 471 l 307 -14 l 274 -14 l 90 529 l 3 562 l 3 592 l 285 592 l 285 562 l 195 533 l 334 118 l 308 118 l 511 606 l 535 606 l 743 118 l 717 118 z "},"x":{"ha":670,"x_min":15,"x_max":660,"o":"m 372 331 l 574 63 l 660 30 l 660 0 l 379 0 l 379 30 l 465 59 l 314 260 l 298 277 l 110 529 l 24 562 l 24 592 l 304 592 l 304 562 l 219 533 l 355 349 l 372 331 z m 363 297 l 338 275 l 156 56 l 240 30 l 240 0 l 15 0 l 15 30 l 89 56 l 308 313 l 334 335 l 499 536 l 419 562 l 419 592 l 640 592 l 640 562 l 566 536 l 363 297 z "},"y":{"ha":693,"x_min":6,"x_max":680,"o":"m 201 533 l 399 102 l 346 -26 l 92 529 l 6 562 l 6 592 l 292 592 l 292 562 l 201 533 z m 153 -368 l 153 -368 q 94 -348 117 -368 q 70 -294 70 -328 l 70 -294 q 77 -263 70 -276 q 97 -241 85 -249 q 124 -233 110 -233 l 124 -233 q 150 -240 138 -233 q 174 -252 161 -246 q 201 -258 186 -258 l 201 -258 q 228 -252 216 -258 q 253 -230 241 -246 q 276 -183 265 -213 l 276 -183 l 358 24 l 391 113 l 547 536 l 456 562 l 456 592 l 680 592 l 680 562 l 607 536 l 343 -153 q 282 -283 311 -236 q 222 -349 253 -330 q 153 -368 190 -368 z "},"z":{"ha":567,"x_min":44,"x_max":537,"o":"m 492 0 l 44 0 l 44 17 l 403 563 l 435 536 l 105 536 l 175 574 l 81 406 l 51 406 l 79 606 l 101 606 l 150 592 l 523 592 l 523 575 l 162 28 l 140 56 l 438 56 l 401 22 l 505 187 l 537 187 l 492 0 z "},"à":{"ha":600,"x_min":58,"x_max":604,"o":"m 418 377 l 418 377 l 429 328 q 295 291 347 310 q 214 251 243 272 q 173 209 185 231 q 162 159 162 186 l 162 159 q 190 87 162 112 q 258 62 218 62 l 258 62 q 318 78 291 62 q 361 122 345 95 q 378 181 378 149 l 378 181 l 378 431 q 352 510 378 481 q 267 540 326 540 l 267 540 q 219 534 247 540 q 167 514 192 527 l 167 514 l 202 546 q 196 507 200 526 q 187 472 192 488 q 174 449 182 457 l 174 449 q 147 431 163 437 q 113 426 130 426 l 113 426 q 79 436 92 426 q 67 461 67 446 l 67 461 q 88 507 67 483 q 144 552 109 531 q 222 586 179 573 q 310 599 265 599 l 310 599 q 408 581 370 599 q 462 527 445 563 q 479 439 479 491 l 479 439 l 479 122 q 485 86 479 100 q 504 64 492 72 q 534 57 516 57 l 534 57 q 568 63 550 57 q 604 80 587 69 l 604 80 l 604 48 q 544 2 576 17 q 485 -12 513 -12 l 485 -12 q 428 2 452 -12 q 392 45 404 17 q 379 112 379 74 l 379 112 l 383 119 q 350 50 374 80 q 291 3 325 20 q 217 -14 256 -14 l 217 -14 q 103 25 148 -14 q 58 137 58 64 l 58 137 q 73 208 58 176 q 128 268 89 240 q 239 323 168 296 q 418 377 309 349 z m 213 931 l 322 701 l 278 701 l 63 917 l 63 931 l 213 931 z "},"á":{"ha":600,"x_min":58,"x_max":604,"o":"m 418 377 l 418 377 l 429 328 q 295 291 347 310 q 214 251 243 272 q 173 209 185 231 q 162 159 162 186 l 162 159 q 190 87 162 112 q 258 62 218 62 l 258 62 q 318 78 291 62 q 361 122 345 95 q 378 181 378 149 l 378 181 l 378 431 q 352 510 378 481 q 267 540 326 540 l 267 540 q 219 534 247 540 q 167 514 192 527 l 167 514 l 202 546 q 196 507 200 526 q 187 472 192 488 q 174 449 182 457 l 174 449 q 147 431 163 437 q 113 426 130 426 l 113 426 q 79 436 92 426 q 67 461 67 446 l 67 461 q 88 507 67 483 q 144 552 109 531 q 222 586 179 573 q 310 599 265 599 l 310 599 q 408 581 370 599 q 462 527 445 563 q 479 439 479 491 l 479 439 l 479 122 q 485 86 479 100 q 504 64 492 72 q 534 57 516 57 l 534 57 q 568 63 550 57 q 604 80 587 69 l 604 80 l 604 48 q 544 2 576 17 q 485 -12 513 -12 l 485 -12 q 428 2 452 -12 q 392 45 404 17 q 379 112 379 74 l 379 112 l 383 119 q 350 50 374 80 q 291 3 325 20 q 217 -14 256 -14 l 217 -14 q 103 25 148 -14 q 58 137 58 64 l 58 137 q 73 208 58 176 q 128 268 89 240 q 239 323 168 296 q 418 377 309 349 z m 283 701 l 239 701 l 348 931 l 499 931 l 499 917 l 283 701 z "},"â":{"ha":600,"x_min":58,"x_max":604,"o":"m 418 377 l 418 377 l 429 328 q 295 291 347 310 q 214 251 243 272 q 173 209 185 231 q 162 159 162 186 l 162 159 q 190 87 162 112 q 258 62 218 62 l 258 62 q 318 78 291 62 q 361 122 345 95 q 378 181 378 149 l 378 181 l 378 431 q 352 510 378 481 q 267 540 326 540 l 267 540 q 219 534 247 540 q 167 514 192 527 l 167 514 l 202 546 q 196 507 200 526 q 187 472 192 488 q 174 449 182 457 l 174 449 q 147 431 163 437 q 113 426 130 426 l 113 426 q 79 436 92 426 q 67 461 67 446 l 67 461 q 88 507 67 483 q 144 552 109 531 q 222 586 179 573 q 310 599 265 599 l 310 599 q 408 581 370 599 q 462 527 445 563 q 479 439 479 491 l 479 439 l 479 122 q 485 86 479 100 q 504 64 492 72 q 534 57 516 57 l 534 57 q 568 63 550 57 q 604 80 587 69 l 604 80 l 604 48 q 544 2 576 17 q 485 -12 513 -12 l 485 -12 q 428 2 452 -12 q 392 45 404 17 q 379 112 379 74 l 379 112 l 383 119 q 350 50 374 80 q 291 3 325 20 q 217 -14 256 -14 l 217 -14 q 103 25 148 -14 q 58 137 58 64 l 58 137 q 73 208 58 176 q 128 268 89 240 q 239 323 168 296 q 418 377 309 349 z m 134 701 l 89 701 l 224 931 l 337 931 l 472 701 l 427 701 l 272 843 l 290 843 l 134 701 z "},"ã":{"ha":600,"x_min":58,"x_max":604,"o":"m 418 377 l 418 377 l 429 328 q 295 291 347 310 q 214 251 243 272 q 173 209 185 231 q 162 159 162 186 l 162 159 q 190 87 162 112 q 258 62 218 62 l 258 62 q 318 78 291 62 q 361 122 345 95 q 378 181 378 149 l 378 181 l 378 431 q 352 510 378 481 q 267 540 326 540 l 267 540 q 219 534 247 540 q 167 514 192 527 l 167 514 l 202 546 q 196 507 200 526 q 187 472 192 488 q 174 449 182 457 l 174 449 q 147 431 163 437 q 113 426 130 426 l 113 426 q 79 436 92 426 q 67 461 67 446 l 67 461 q 88 507 67 483 q 144 552 109 531 q 222 586 179 573 q 310 599 265 599 l 310 599 q 408 581 370 599 q 462 527 445 563 q 479 439 479 491 l 479 439 l 479 122 q 485 86 479 100 q 504 64 492 72 q 534 57 516 57 l 534 57 q 568 63 550 57 q 604 80 587 69 l 604 80 l 604 48 q 544 2 576 17 q 485 -12 513 -12 l 485 -12 q 428 2 452 -12 q 392 45 404 17 q 379 112 379 74 l 379 112 l 383 119 q 350 50 374 80 q 291 3 325 20 q 217 -14 256 -14 l 217 -14 q 103 25 148 -14 q 58 137 58 64 l 58 137 q 73 208 58 176 q 128 268 89 240 q 239 323 168 296 q 418 377 309 349 z m 424 921 l 468 921 q 444 796 456 844 q 414 726 433 748 q 362 703 395 703 l 362 703 q 307 722 331 703 q 265 766 284 741 q 228 809 247 790 q 190 828 210 828 l 190 828 q 173 819 181 828 q 156 784 164 810 q 138 710 147 759 l 138 710 l 93 710 q 117 836 106 788 q 148 906 129 883 q 199 928 167 928 l 199 928 q 254 909 231 928 q 296 866 277 890 q 333 822 315 841 q 371 803 351 803 l 371 803 q 389 813 381 803 q 406 847 397 822 q 424 921 414 872 l 424 921 z "},"ä":{"ha":600,"x_min":58,"x_max":604,"o":"m 418 377 l 418 377 l 429 328 q 295 291 347 310 q 214 251 243 272 q 173 209 185 231 q 162 159 162 186 l 162 159 q 190 87 162 112 q 258 62 218 62 l 258 62 q 318 78 291 62 q 361 122 345 95 q 378 181 378 149 l 378 181 l 378 431 q 352 510 378 481 q 267 540 326 540 l 267 540 q 219 534 247 540 q 167 514 192 527 l 167 514 l 202 546 q 196 507 200 526 q 187 472 192 488 q 174 449 182 457 l 174 449 q 147 431 163 437 q 113 426 130 426 l 113 426 q 79 436 92 426 q 67 461 67 446 l 67 461 q 88 507 67 483 q 144 552 109 531 q 222 586 179 573 q 310 599 265 599 l 310 599 q 408 581 370 599 q 462 527 445 563 q 479 439 479 491 l 479 439 l 479 122 q 485 86 479 100 q 504 64 492 72 q 534 57 516 57 l 534 57 q 568 63 550 57 q 604 80 587 69 l 604 80 l 604 48 q 544 2 576 17 q 485 -12 513 -12 l 485 -12 q 428 2 452 -12 q 392 45 404 17 q 379 112 379 74 l 379 112 l 383 119 q 350 50 374 80 q 291 3 325 20 q 217 -14 256 -14 l 217 -14 q 103 25 148 -14 q 58 137 58 64 l 58 137 q 73 208 58 176 q 128 268 89 240 q 239 323 168 296 q 418 377 309 349 z m 155 740 l 155 740 q 100 763 121 740 q 78 816 78 785 l 78 816 q 100 869 78 847 q 155 892 121 892 l 155 892 q 210 869 189 892 q 231 816 231 847 l 231 816 q 210 763 231 785 q 155 740 189 740 z m 406 740 l 406 740 q 351 763 372 740 q 330 816 330 785 l 330 816 q 351 869 330 847 q 406 892 372 892 l 406 892 q 461 869 440 892 q 483 816 483 847 l 483 816 q 461 763 483 785 q 406 740 440 740 z "},"å":{"ha":600,"x_min":58,"x_max":604,"o":"m 418 377 l 418 377 l 429 328 q 295 291 347 310 q 214 251 243 272 q 173 209 185 231 q 162 159 162 186 l 162 159 q 190 87 162 112 q 258 62 218 62 l 258 62 q 318 78 291 62 q 361 122 345 95 q 378 181 378 149 l 378 181 l 378 431 q 352 510 378 481 q 267 540 326 540 l 267 540 q 219 534 247 540 q 167 514 192 527 l 167 514 l 202 546 q 196 507 200 526 q 187 472 192 488 q 174 449 182 457 l 174 449 q 147 431 163 437 q 113 426 130 426 l 113 426 q 79 436 92 426 q 67 461 67 446 l 67 461 q 88 507 67 483 q 144 552 109 531 q 222 586 179 573 q 310 599 265 599 l 310 599 q 408 581 370 599 q 462 527 445 563 q 479 439 479 491 l 479 439 l 479 122 q 485 86 479 100 q 504 64 492 72 q 534 57 516 57 l 534 57 q 568 63 550 57 q 604 80 587 69 l 604 80 l 604 48 q 544 2 576 17 q 485 -12 513 -12 l 485 -12 q 428 2 452 -12 q 392 45 404 17 q 379 112 379 74 l 379 112 l 383 119 q 350 50 374 80 q 291 3 325 20 q 217 -14 256 -14 l 217 -14 q 103 25 148 -14 q 58 137 58 64 l 58 137 q 73 208 58 176 q 128 268 89 240 q 239 323 168 296 q 418 377 309 349 z m 281 938 l 281 938 q 369 903 334 938 q 403 816 403 869 l 403 816 q 369 729 403 763 q 281 694 334 694 l 281 694 q 193 729 228 694 q 158 816 158 763 l 158 816 q 193 903 158 869 q 281 938 228 938 z m 281 737 l 281 737 q 336 759 315 737 q 358 816 358 781 l 358 816 q 336 873 358 851 q 281 895 315 895 l 281 895 q 225 873 247 895 q 203 816 203 851 l 203 816 q 225 759 203 781 q 281 737 247 737 z "},"ā":{"ha":600,"x_min":58,"x_max":604,"o":"m 418 377 l 418 377 l 429 328 q 295 291 347 310 q 214 251 243 272 q 173 209 185 231 q 162 159 162 186 l 162 159 q 190 87 162 112 q 258 62 218 62 l 258 62 q 318 78 291 62 q 361 122 345 95 q 378 181 378 149 l 378 181 l 378 431 q 352 510 378 481 q 267 540 326 540 l 267 540 q 219 534 247 540 q 167 514 192 527 l 167 514 l 202 546 q 196 507 200 526 q 187 472 192 488 q 174 449 182 457 l 174 449 q 147 431 163 437 q 113 426 130 426 l 113 426 q 79 436 92 426 q 67 461 67 446 l 67 461 q 88 507 67 483 q 144 552 109 531 q 222 586 179 573 q 310 599 265 599 l 310 599 q 408 581 370 599 q 462 527 445 563 q 479 439 479 491 l 479 439 l 479 122 q 485 86 479 100 q 504 64 492 72 q 534 57 516 57 l 534 57 q 568 63 550 57 q 604 80 587 69 l 604 80 l 604 48 q 544 2 576 17 q 485 -12 513 -12 l 485 -12 q 428 2 452 -12 q 392 45 404 17 q 379 112 379 74 l 379 112 l 383 119 q 350 50 374 80 q 291 3 325 20 q 217 -14 256 -14 l 217 -14 q 103 25 148 -14 q 58 137 58 64 l 58 137 q 73 208 58 176 q 128 268 89 240 q 239 323 168 296 q 418 377 309 349 z m 454 779 l 107 779 l 107 853 l 454 853 l 454 779 z "},"ă":{"ha":600,"x_min":58,"x_max":604,"o":"m 418 377 l 418 377 l 429 328 q 295 291 347 310 q 214 251 243 272 q 173 209 185 231 q 162 159 162 186 l 162 159 q 190 87 162 112 q 258 62 218 62 l 258 62 q 318 78 291 62 q 361 122 345 95 q 378 181 378 149 l 378 181 l 378 431 q 352 510 378 481 q 267 540 326 540 l 267 540 q 219 534 247 540 q 167 514 192 527 l 167 514 l 202 546 q 196 507 200 526 q 187 472 192 488 q 174 449 182 457 l 174 449 q 147 431 163 437 q 113 426 130 426 l 113 426 q 79 436 92 426 q 67 461 67 446 l 67 461 q 88 507 67 483 q 144 552 109 531 q 222 586 179 573 q 310 599 265 599 l 310 599 q 408 581 370 599 q 462 527 445 563 q 479 439 479 491 l 479 439 l 479 122 q 485 86 479 100 q 504 64 492 72 q 534 57 516 57 l 534 57 q 568 63 550 57 q 604 80 587 69 l 604 80 l 604 48 q 544 2 576 17 q 485 -12 513 -12 l 485 -12 q 428 2 452 -12 q 392 45 404 17 q 379 112 379 74 l 379 112 l 383 119 q 350 50 374 80 q 291 3 325 20 q 217 -14 256 -14 l 217 -14 q 103 25 148 -14 q 58 137 58 64 l 58 137 q 73 208 58 176 q 128 268 89 240 q 239 323 168 296 q 418 377 309 349 z m 281 788 l 281 788 q 348 803 318 788 q 398 850 377 819 q 428 931 419 882 l 428 931 l 471 931 q 430 789 453 841 q 369 716 406 738 q 281 694 333 694 l 281 694 q 192 716 228 694 q 132 789 156 738 q 90 931 108 841 l 90 931 l 133 931 q 163 850 142 882 q 214 803 184 819 q 281 788 244 788 z "},"ą":{"ha":600,"x_min":58,"x_max":624,"o":"m 604 80 l 604 48 l 494 -84 q 453 -141 468 -116 q 432 -187 438 -167 q 426 -225 426 -208 l 426 -225 q 447 -280 426 -260 q 497 -299 467 -299 l 497 -299 q 544 -286 519 -299 q 604 -237 569 -274 l 604 -237 l 624 -257 q 572 -321 598 -297 q 518 -357 545 -345 q 459 -368 490 -368 l 459 -368 q 378 -337 411 -368 q 344 -251 344 -306 l 344 -251 q 353 -200 344 -226 q 383 -144 362 -174 q 441 -78 404 -115 l 441 -78 l 528 10 l 536 -1 q 510 -10 523 -7 q 485 -12 497 -12 l 485 -12 q 428 2 452 -12 q 392 45 404 17 q 379 112 379 74 l 379 112 l 383 119 q 350 50 374 80 q 291 3 325 20 q 217 -14 256 -14 l 217 -14 q 103 25 148 -14 q 58 137 58 64 l 58 137 q 73 208 58 176 q 128 268 89 240 q 239 323 168 296 q 418 377 309 349 l 418 377 l 429 328 q 295 291 347 310 q 214 251 243 272 q 173 209 185 231 q 162 159 162 186 l 162 159 q 190 87 162 112 q 258 62 218 62 l 258 62 q 318 78 291 62 q 361 122 345 95 q 378 181 378 149 l 378 181 l 378 431 q 352 510 378 481 q 267 540 326 540 l 267 540 q 219 534 247 540 q 167 514 192 527 l 167 514 l 202 546 q 192 489 199 517 q 174 449 186 460 l 174 449 q 147 431 163 437 q 113 426 130 426 l 113 426 q 79 436 92 426 q 67 461 67 446 l 67 461 q 88 507 67 483 q 144 552 109 531 q 222 586 179 573 q 310 599 265 599 l 310 599 q 408 581 370 599 q 462 527 445 563 q 479 439 479 491 l 479 439 l 479 122 q 485 86 479 100 q 504 64 492 72 q 534 57 516 57 l 534 57 q 568 63 550 57 q 604 80 587 69 l 604 80 z "},"ǻ":{"ha":600,"x_min":58,"x_max":604,"o":"m 418 377 l 418 377 l 429 328 q 295 291 347 310 q 214 251 243 272 q 173 209 185 231 q 162 159 162 186 l 162 159 q 190 87 162 112 q 258 62 218 62 l 258 62 q 318 78 291 62 q 361 122 345 95 q 378 181 378 149 l 378 181 l 378 431 q 352 510 378 481 q 267 540 326 540 l 267 540 q 219 534 247 540 q 167 514 192 527 l 167 514 l 202 546 q 196 507 200 526 q 187 472 192 488 q 174 449 182 457 l 174 449 q 147 431 163 437 q 113 426 130 426 l 113 426 q 79 436 92 426 q 67 461 67 446 l 67 461 q 88 507 67 483 q 144 552 109 531 q 222 586 179 573 q 310 599 265 599 l 310 599 q 408 581 370 599 q 462 527 445 563 q 479 439 479 491 l 479 439 l 479 122 q 485 86 479 100 q 504 64 492 72 q 534 57 516 57 l 534 57 q 568 63 550 57 q 604 80 587 69 l 604 80 l 604 48 q 544 2 576 17 q 485 -12 513 -12 l 485 -12 q 428 2 452 -12 q 392 45 404 17 q 379 112 379 74 l 379 112 l 383 119 q 350 50 374 80 q 291 3 325 20 q 217 -14 256 -14 l 217 -14 q 103 25 148 -14 q 58 137 58 64 l 58 137 q 73 208 58 176 q 128 268 89 240 q 239 323 168 296 q 418 377 309 349 z m 281 938 l 281 938 q 369 903 334 938 q 403 816 403 869 l 403 816 q 369 729 403 763 q 281 694 334 694 l 281 694 q 193 729 228 694 q 158 816 158 763 l 158 816 q 193 903 158 869 q 281 938 228 938 z m 281 737 l 281 737 q 336 759 315 737 q 358 816 358 781 l 358 816 q 336 873 358 851 q 281 895 315 895 l 281 895 q 225 873 247 895 q 203 816 203 851 l 203 816 q 225 759 203 781 q 281 737 247 737 z m 283 1040 l 239 1040 l 348 1269 l 499 1269 l 499 1256 l 283 1040 z "},"ȁ":{"ha":600,"x_min":-16,"x_max":604,"o":"m 418 377 l 418 377 l 429 328 q 295 291 347 310 q 214 251 243 272 q 173 209 185 231 q 162 159 162 186 l 162 159 q 190 87 162 112 q 258 62 218 62 l 258 62 q 318 78 291 62 q 361 122 345 95 q 378 181 378 149 l 378 181 l 378 431 q 352 510 378 481 q 267 540 326 540 l 267 540 q 219 534 247 540 q 167 514 192 527 l 167 514 l 202 546 q 196 507 200 526 q 187 472 192 488 q 174 449 182 457 l 174 449 q 147 431 163 437 q 113 426 130 426 l 113 426 q 79 436 92 426 q 67 461 67 446 l 67 461 q 88 507 67 483 q 144 552 109 531 q 222 586 179 573 q 310 599 265 599 l 310 599 q 408 581 370 599 q 462 527 445 563 q 479 439 479 491 l 479 439 l 479 122 q 485 86 479 100 q 504 64 492 72 q 534 57 516 57 l 534 57 q 568 63 550 57 q 604 80 587 69 l 604 80 l 604 48 q 544 2 576 17 q 485 -12 513 -12 l 485 -12 q 428 2 452 -12 q 392 45 404 17 q 379 112 379 74 l 379 112 l 383 119 q 350 50 374 80 q 291 3 325 20 q 217 -14 256 -14 l 217 -14 q 103 25 148 -14 q 58 137 58 64 l 58 137 q 73 208 58 176 q 128 268 89 240 q 239 323 168 296 q 418 377 309 349 z m 131 931 l 231 701 l 185 701 l -16 917 l -16 931 l 131 931 z m 349 931 l 397 701 l 360 701 l 211 917 l 211 931 l 349 931 z "},"ȃ":{"ha":600,"x_min":58,"x_max":604,"o":"m 418 377 l 418 377 l 429 328 q 295 291 347 310 q 214 251 243 272 q 173 209 185 231 q 162 159 162 186 l 162 159 q 190 87 162 112 q 258 62 218 62 l 258 62 q 318 78 291 62 q 361 122 345 95 q 378 181 378 149 l 378 181 l 378 431 q 352 510 378 481 q 267 540 326 540 l 267 540 q 219 534 247 540 q 167 514 192 527 l 167 514 l 202 546 q 196 507 200 526 q 187 472 192 488 q 174 449 182 457 l 174 449 q 147 431 163 437 q 113 426 130 426 l 113 426 q 79 436 92 426 q 67 461 67 446 l 67 461 q 88 507 67 483 q 144 552 109 531 q 222 586 179 573 q 310 599 265 599 l 310 599 q 408 581 370 599 q 462 527 445 563 q 479 439 479 491 l 479 439 l 479 122 q 485 86 479 100 q 504 64 492 72 q 534 57 516 57 l 534 57 q 568 63 550 57 q 604 80 587 69 l 604 80 l 604 48 q 544 2 576 17 q 485 -12 513 -12 l 485 -12 q 428 2 452 -12 q 392 45 404 17 q 379 112 379 74 l 379 112 l 383 119 q 350 50 374 80 q 291 3 325 20 q 217 -14 256 -14 l 217 -14 q 103 25 148 -14 q 58 137 58 64 l 58 137 q 73 208 58 176 q 128 268 89 240 q 239 323 168 296 q 418 377 309 349 z m 281 843 l 281 843 q 214 828 244 843 q 163 781 184 813 q 133 701 142 750 l 133 701 l 90 701 q 132 842 108 791 q 192 916 156 894 q 281 938 228 938 l 281 938 q 369 916 333 938 q 430 842 406 894 q 471 701 453 791 l 471 701 l 428 701 q 398 781 419 750 q 348 828 377 813 q 281 843 318 843 z "},"ạ":{"ha":600,"x_min":58,"x_max":604,"o":"m 418 377 l 418 377 l 429 328 q 295 291 347 310 q 214 251 243 272 q 173 209 185 231 q 162 159 162 186 l 162 159 q 190 87 162 112 q 258 62 218 62 l 258 62 q 318 78 291 62 q 361 122 345 95 q 378 181 378 149 l 378 181 l 378 431 q 352 510 378 481 q 267 540 326 540 l 267 540 q 219 534 247 540 q 167 514 192 527 l 167 514 l 202 546 q 196 507 200 526 q 187 472 192 488 q 174 449 182 457 l 174 449 q 147 431 163 437 q 113 426 130 426 l 113 426 q 79 436 92 426 q 67 461 67 446 l 67 461 q 88 507 67 483 q 144 552 109 531 q 222 586 179 573 q 310 599 265 599 l 310 599 q 408 581 370 599 q 462 527 445 563 q 479 439 479 491 l 479 439 l 479 122 q 485 86 479 100 q 504 64 492 72 q 534 57 516 57 l 534 57 q 568 63 550 57 q 604 80 587 69 l 604 80 l 604 48 q 544 2 576 17 q 485 -12 513 -12 l 485 -12 q 428 2 452 -12 q 392 45 404 17 q 379 112 379 74 l 379 112 l 383 119 q 350 50 374 80 q 291 3 325 20 q 217 -14 256 -14 l 217 -14 q 103 25 148 -14 q 58 137 58 64 l 58 137 q 73 208 58 176 q 128 268 89 240 q 239 323 168 296 q 418 377 309 349 z m 322 -258 l 322 -258 q 263 -235 285 -258 q 240 -177 240 -211 l 240 -177 q 263 -119 240 -142 q 322 -96 285 -96 l 322 -96 q 381 -119 358 -96 q 403 -177 403 -142 l 403 -177 q 381 -235 403 -211 q 322 -258 358 -258 z "},"ả":{"ha":600,"x_min":58,"x_max":604,"o":"m 418 377 l 418 377 l 429 328 q 295 291 347 310 q 214 251 243 272 q 173 209 185 231 q 162 159 162 186 l 162 159 q 190 87 162 112 q 258 62 218 62 l 258 62 q 318 78 291 62 q 361 122 345 95 q 378 181 378 149 l 378 181 l 378 431 q 352 510 378 481 q 267 540 326 540 l 267 540 q 219 534 247 540 q 167 514 192 527 l 167 514 l 202 546 q 196 507 200 526 q 187 472 192 488 q 174 449 182 457 l 174 449 q 147 431 163 437 q 113 426 130 426 l 113 426 q 79 436 92 426 q 67 461 67 446 l 67 461 q 88 507 67 483 q 144 552 109 531 q 222 586 179 573 q 310 599 265 599 l 310 599 q 408 581 370 599 q 462 527 445 563 q 479 439 479 491 l 479 439 l 479 122 q 485 86 479 100 q 504 64 492 72 q 534 57 516 57 l 534 57 q 568 63 550 57 q 604 80 587 69 l 604 80 l 604 48 q 544 2 576 17 q 485 -12 513 -12 l 485 -12 q 428 2 452 -12 q 392 45 404 17 q 379 112 379 74 l 379 112 l 383 119 q 350 50 374 80 q 291 3 325 20 q 217 -14 256 -14 l 217 -14 q 103 25 148 -14 q 58 137 58 64 l 58 137 q 73 208 58 176 q 128 268 89 240 q 239 323 168 296 q 418 377 309 349 z m 172 865 l 172 865 l 193 959 q 298 940 257 952 q 360 913 338 928 q 391 876 383 897 q 400 832 400 856 l 400 832 q 388 777 400 803 q 338 727 375 750 q 227 686 301 703 l 227 686 l 217 725 q 278 746 257 735 q 306 771 299 758 q 314 799 314 785 l 314 799 q 305 828 314 815 q 266 850 296 841 q 172 865 235 860 z "},"ấ":{"ha":600,"x_min":58,"x_max":653,"o":"m 418 377 l 418 377 l 429 328 q 295 291 347 310 q 214 251 243 272 q 173 209 185 231 q 162 159 162 186 l 162 159 q 190 87 162 112 q 258 62 218 62 l 258 62 q 318 78 291 62 q 361 122 345 95 q 378 181 378 149 l 378 181 l 378 431 q 352 510 378 481 q 267 540 326 540 l 267 540 q 219 534 247 540 q 167 514 192 527 l 167 514 l 202 546 q 196 507 200 526 q 187 472 192 488 q 174 449 182 457 l 174 449 q 147 431 163 437 q 113 426 130 426 l 113 426 q 79 436 92 426 q 67 461 67 446 l 67 461 q 88 507 67 483 q 144 552 109 531 q 222 586 179 573 q 310 599 265 599 l 310 599 q 408 581 370 599 q 462 527 445 563 q 479 439 479 491 l 479 439 l 479 122 q 485 86 479 100 q 504 64 492 72 q 534 57 516 57 l 534 57 q 568 63 550 57 q 604 80 587 69 l 604 80 l 604 48 q 544 2 576 17 q 485 -12 513 -12 l 485 -12 q 428 2 452 -12 q 392 45 404 17 q 379 112 379 74 l 379 112 l 383 119 q 350 50 374 80 q 291 3 325 20 q 217 -14 256 -14 l 217 -14 q 103 25 148 -14 q 58 137 58 64 l 58 137 q 73 208 58 176 q 128 268 89 240 q 239 323 168 296 q 418 377 309 349 z m 476 840 l 435 840 l 502 1028 l 653 1028 l 653 1014 l 476 840 z m 427 701 l 272 843 l 290 843 l 134 701 l 89 701 l 224 931 l 337 931 l 472 701 l 427 701 z "},"ầ":{"ha":600,"x_min":-92,"x_max":604,"o":"m 418 377 l 418 377 l 429 328 q 295 291 347 310 q 214 251 243 272 q 173 209 185 231 q 162 159 162 186 l 162 159 q 190 87 162 112 q 258 62 218 62 l 258 62 q 318 78 291 62 q 361 122 345 95 q 378 181 378 149 l 378 181 l 378 431 q 352 510 378 481 q 267 540 326 540 l 267 540 q 219 534 247 540 q 167 514 192 527 l 167 514 l 202 546 q 196 507 200 526 q 187 472 192 488 q 174 449 182 457 l 174 449 q 147 431 163 437 q 113 426 130 426 l 113 426 q 79 436 92 426 q 67 461 67 446 l 67 461 q 88 507 67 483 q 144 552 109 531 q 222 586 179 573 q 310 599 265 599 l 310 599 q 408 581 370 599 q 462 527 445 563 q 479 439 479 491 l 479 439 l 479 122 q 485 86 479 100 q 504 64 492 72 q 534 57 516 57 l 534 57 q 568 63 550 57 q 604 80 587 69 l 604 80 l 604 48 q 544 2 576 17 q 485 -12 513 -12 l 485 -12 q 428 2 452 -12 q 392 45 404 17 q 379 112 379 74 l 379 112 l 383 119 q 350 50 374 80 q 291 3 325 20 q 217 -14 256 -14 l 217 -14 q 103 25 148 -14 q 58 137 58 64 l 58 137 q 73 208 58 176 q 128 268 89 240 q 239 323 168 296 q 418 377 309 349 z m 59 1028 l 126 840 l 85 840 l -92 1014 l -92 1028 l 59 1028 z m 272 843 l 290 843 l 134 701 l 89 701 l 224 931 l 337 931 l 472 701 l 427 701 l 272 843 z "},"ẩ":{"ha":600,"x_min":58,"x_max":622,"o":"m 418 377 l 418 377 l 429 328 q 295 291 347 310 q 214 251 243 272 q 173 209 185 231 q 162 159 162 186 l 162 159 q 190 87 162 112 q 258 62 218 62 l 258 62 q 318 78 291 62 q 361 122 345 95 q 378 181 378 149 l 378 181 l 378 431 q 352 510 378 481 q 267 540 326 540 l 267 540 q 219 534 247 540 q 167 514 192 527 l 167 514 l 202 546 q 196 507 200 526 q 187 472 192 488 q 174 449 182 457 l 174 449 q 147 431 163 437 q 113 426 130 426 l 113 426 q 79 436 92 426 q 67 461 67 446 l 67 461 q 88 507 67 483 q 144 552 109 531 q 222 586 179 573 q 310 599 265 599 l 310 599 q 408 581 370 599 q 462 527 445 563 q 479 439 479 491 l 479 439 l 479 122 q 485 86 479 100 q 504 64 492 72 q 534 57 516 57 l 534 57 q 568 63 550 57 q 604 80 587 69 l 604 80 l 604 48 q 544 2 576 17 q 485 -12 513 -12 l 485 -12 q 428 2 452 -12 q 392 45 404 17 q 379 112 379 74 l 379 112 l 383 119 q 350 50 374 80 q 291 3 325 20 q 217 -14 256 -14 l 217 -14 q 103 25 148 -14 q 58 137 58 64 l 58 137 q 73 208 58 176 q 128 268 89 240 q 239 323 168 296 q 418 377 309 349 z m 272 843 l 290 843 l 134 701 l 89 701 l 224 931 l 337 931 l 472 701 l 427 701 l 272 843 z m 449 839 l 439 878 q 517 911 499 892 q 536 951 536 930 l 536 951 q 527 981 536 967 q 488 1003 518 994 q 394 1017 458 1013 l 394 1017 l 415 1112 q 520 1093 479 1105 q 583 1065 560 1081 q 614 1029 605 1049 q 622 985 622 1009 l 622 985 q 610 930 622 956 q 560 880 597 903 q 449 839 524 856 l 449 839 z "},"ẫ":{"ha":600,"x_min":58,"x_max":604,"o":"m 418 377 l 418 377 l 429 328 q 295 291 347 310 q 214 251 243 272 q 173 209 185 231 q 162 159 162 186 l 162 159 q 190 87 162 112 q 258 62 218 62 l 258 62 q 318 78 291 62 q 361 122 345 95 q 378 181 378 149 l 378 181 l 378 431 q 352 510 378 481 q 267 540 326 540 l 267 540 q 219 534 247 540 q 167 514 192 527 l 167 514 l 202 546 q 196 507 200 526 q 187 472 192 488 q 174 449 182 457 l 174 449 q 147 431 163 437 q 113 426 130 426 l 113 426 q 79 436 92 426 q 67 461 67 446 l 67 461 q 88 507 67 483 q 144 552 109 531 q 222 586 179 573 q 310 599 265 599 l 310 599 q 408 581 370 599 q 462 527 445 563 q 479 439 479 491 l 479 439 l 479 122 q 485 86 479 100 q 504 64 492 72 q 534 57 516 57 l 534 57 q 568 63 550 57 q 604 80 587 69 l 604 80 l 604 48 q 544 2 576 17 q 485 -12 513 -12 l 485 -12 q 428 2 452 -12 q 392 45 404 17 q 379 112 379 74 l 379 112 l 383 119 q 350 50 374 80 q 291 3 325 20 q 217 -14 256 -14 l 217 -14 q 103 25 148 -14 q 58 137 58 64 l 58 137 q 73 208 58 176 q 128 268 89 240 q 239 323 168 296 q 418 377 309 349 z m 273 751 l 288 751 l 139 672 l 89 672 l 233 836 l 328 836 l 472 672 l 422 672 l 273 751 z m 147 885 l 147 885 l 105 885 q 127 968 116 937 q 154 1015 138 1000 q 198 1030 170 1030 l 198 1030 q 242 1022 219 1030 q 288 1002 265 1013 q 331 982 311 990 q 366 974 351 974 l 366 974 q 395 985 384 974 q 415 1025 407 996 l 415 1025 l 456 1025 q 434 942 445 974 q 408 896 424 910 q 363 881 392 881 l 363 881 q 319 890 342 881 q 273 909 296 898 q 230 928 250 920 q 195 937 210 937 l 195 937 q 166 926 177 937 q 147 885 154 915 z "},"ậ":{"ha":600,"x_min":58,"x_max":604,"o":"m 418 377 l 418 377 l 429 328 q 295 291 347 310 q 214 251 243 272 q 173 209 185 231 q 162 159 162 186 l 162 159 q 190 87 162 112 q 258 62 218 62 l 258 62 q 318 78 291 62 q 361 122 345 95 q 378 181 378 149 l 378 181 l 378 431 q 352 510 378 481 q 267 540 326 540 l 267 540 q 219 534 247 540 q 167 514 192 527 l 167 514 l 202 546 q 196 507 200 526 q 187 472 192 488 q 174 449 182 457 l 174 449 q 147 431 163 437 q 113 426 130 426 l 113 426 q 79 436 92 426 q 67 461 67 446 l 67 461 q 88 507 67 483 q 144 552 109 531 q 222 586 179 573 q 310 599 265 599 l 310 599 q 408 581 370 599 q 462 527 445 563 q 479 439 479 491 l 479 439 l 479 122 q 485 86 479 100 q 504 64 492 72 q 534 57 516 57 l 534 57 q 568 63 550 57 q 604 80 587 69 l 604 80 l 604 48 q 544 2 576 17 q 485 -12 513 -12 l 485 -12 q 428 2 452 -12 q 392 45 404 17 q 379 112 379 74 l 379 112 l 383 119 q 350 50 374 80 q 291 3 325 20 q 217 -14 256 -14 l 217 -14 q 103 25 148 -14 q 58 137 58 64 l 58 137 q 73 208 58 176 q 128 268 89 240 q 239 323 168 296 q 418 377 309 349 z m 134 701 l 89 701 l 224 931 l 337 931 l 472 701 l 427 701 l 272 843 l 290 843 l 134 701 z m 322 -258 l 322 -258 q 263 -235 285 -258 q 240 -177 240 -211 l 240 -177 q 263 -119 240 -142 q 322 -96 285 -96 l 322 -96 q 381 -119 358 -96 q 403 -177 403 -142 l 403 -177 q 381 -235 403 -211 q 322 -258 358 -258 z "},"ắ":{"ha":600,"x_min":58,"x_max":604,"o":"m 418 377 l 418 377 l 429 328 q 295 291 347 310 q 214 251 243 272 q 173 209 185 231 q 162 159 162 186 l 162 159 q 190 87 162 112 q 258 62 218 62 l 258 62 q 318 78 291 62 q 361 122 345 95 q 378 181 378 149 l 378 181 l 378 431 q 352 510 378 481 q 267 540 326 540 l 267 540 q 219 534 247 540 q 167 514 192 527 l 167 514 l 202 546 q 196 507 200 526 q 187 472 192 488 q 174 449 182 457 l 174 449 q 147 431 163 437 q 113 426 130 426 l 113 426 q 79 436 92 426 q 67 461 67 446 l 67 461 q 88 507 67 483 q 144 552 109 531 q 222 586 179 573 q 310 599 265 599 l 310 599 q 408 581 370 599 q 462 527 445 563 q 479 439 479 491 l 479 439 l 479 122 q 485 86 479 100 q 504 64 492 72 q 534 57 516 57 l 534 57 q 568 63 550 57 q 604 80 587 69 l 604 80 l 604 48 q 544 2 576 17 q 485 -12 513 -12 l 485 -12 q 428 2 452 -12 q 392 45 404 17 q 379 112 379 74 l 379 112 l 383 119 q 350 50 374 80 q 291 3 325 20 q 217 -14 256 -14 l 217 -14 q 103 25 148 -14 q 58 137 58 64 l 58 137 q 73 208 58 176 q 128 268 89 240 q 239 323 168 296 q 418 377 309 349 z m 293 826 l 253 826 l 315 1025 l 462 1025 l 462 1011 l 293 826 z m 281 754 l 281 754 q 368 772 335 754 q 415 838 401 789 l 415 838 l 457 838 q 419 728 441 766 q 364 678 397 691 q 281 665 331 665 l 281 665 q 198 678 231 665 q 142 728 165 691 q 104 838 120 766 l 104 838 l 146 838 q 193 772 160 790 q 281 754 226 754 z "},"ằ":{"ha":600,"x_min":58,"x_max":604,"o":"m 418 377 l 418 377 l 429 328 q 295 291 347 310 q 214 251 243 272 q 173 209 185 231 q 162 159 162 186 l 162 159 q 190 87 162 112 q 258 62 218 62 l 258 62 q 318 78 291 62 q 361 122 345 95 q 378 181 378 149 l 378 181 l 378 431 q 352 510 378 481 q 267 540 326 540 l 267 540 q 219 534 247 540 q 167 514 192 527 l 167 514 l 202 546 q 196 507 200 526 q 187 472 192 488 q 174 449 182 457 l 174 449 q 147 431 163 437 q 113 426 130 426 l 113 426 q 79 436 92 426 q 67 461 67 446 l 67 461 q 88 507 67 483 q 144 552 109 531 q 222 586 179 573 q 310 599 265 599 l 310 599 q 408 581 370 599 q 462 527 445 563 q 479 439 479 491 l 479 439 l 479 122 q 485 86 479 100 q 504 64 492 72 q 534 57 516 57 l 534 57 q 568 63 550 57 q 604 80 587 69 l 604 80 l 604 48 q 544 2 576 17 q 485 -12 513 -12 l 485 -12 q 428 2 452 -12 q 392 45 404 17 q 379 112 379 74 l 379 112 l 383 119 q 350 50 374 80 q 291 3 325 20 q 217 -14 256 -14 l 217 -14 q 103 25 148 -14 q 58 137 58 64 l 58 137 q 73 208 58 176 q 128 268 89 240 q 239 323 168 296 q 418 377 309 349 z m 247 1025 l 308 826 l 268 826 l 99 1011 l 99 1025 l 247 1025 z m 281 754 l 281 754 q 368 772 335 754 q 415 838 401 790 l 415 838 l 457 838 q 419 728 441 766 q 364 678 397 691 q 281 665 331 665 l 281 665 q 198 678 231 665 q 142 728 165 691 q 104 838 120 766 l 104 838 l 146 838 q 193 772 160 789 q 281 754 226 754 z "},"ẳ":{"ha":600,"x_min":58,"x_max":604,"o":"m 418 377 l 418 377 l 429 328 q 295 291 347 310 q 214 251 243 272 q 173 209 185 231 q 162 159 162 186 l 162 159 q 190 87 162 112 q 258 62 218 62 l 258 62 q 318 78 291 62 q 361 122 345 95 q 378 181 378 149 l 378 181 l 378 431 q 352 510 378 481 q 267 540 326 540 l 267 540 q 219 534 247 540 q 167 514 192 527 l 167 514 l 202 546 q 196 507 200 526 q 187 472 192 488 q 174 449 182 457 l 174 449 q 147 431 163 437 q 113 426 130 426 l 113 426 q 79 436 92 426 q 67 461 67 446 l 67 461 q 88 507 67 483 q 144 552 109 531 q 222 586 179 573 q 310 599 265 599 l 310 599 q 408 581 370 599 q 462 527 445 563 q 479 439 479 491 l 479 439 l 479 122 q 485 86 479 100 q 504 64 492 72 q 534 57 516 57 l 534 57 q 568 63 550 57 q 604 80 587 69 l 604 80 l 604 48 q 544 2 576 17 q 485 -12 513 -12 l 485 -12 q 428 2 452 -12 q 392 45 404 17 q 379 112 379 74 l 379 112 l 383 119 q 350 50 374 80 q 291 3 325 20 q 217 -14 256 -14 l 217 -14 q 103 25 148 -14 q 58 137 58 64 l 58 137 q 73 208 58 176 q 128 268 89 240 q 239 323 168 296 q 418 377 309 349 z m 237 824 l 237 824 l 227 866 q 297 892 281 877 q 314 924 314 907 l 314 924 q 306 947 314 937 q 271 965 298 958 q 187 976 244 973 l 187 976 l 203 1062 q 328 1040 285 1056 q 387 1002 372 1024 q 403 951 403 979 l 403 951 q 391 903 403 927 q 344 859 379 879 q 237 824 308 839 z m 281 754 l 281 754 q 368 772 335 754 q 415 838 401 790 l 415 838 l 457 838 q 419 728 441 766 q 364 678 397 691 q 281 665 331 665 l 281 665 q 198 678 231 665 q 142 728 165 691 q 104 838 120 766 l 104 838 l 146 838 q 193 772 160 789 q 281 754 226 754 z "},"ẵ":{"ha":600,"x_min":58,"x_max":604,"o":"m 418 377 l 418 377 l 429 328 q 295 291 347 310 q 214 251 243 272 q 173 209 185 231 q 162 159 162 186 l 162 159 q 190 87 162 112 q 258 62 218 62 l 258 62 q 318 78 291 62 q 361 122 345 95 q 378 181 378 149 l 378 181 l 378 431 q 352 510 378 481 q 267 540 326 540 l 267 540 q 219 534 247 540 q 167 514 192 527 l 167 514 l 202 546 q 196 507 200 526 q 187 472 192 488 q 174 449 182 457 l 174 449 q 147 431 163 437 q 113 426 130 426 l 113 426 q 79 436 92 426 q 67 461 67 446 l 67 461 q 88 507 67 483 q 144 552 109 531 q 222 586 179 573 q 310 599 265 599 l 310 599 q 408 581 370 599 q 462 527 445 563 q 479 439 479 491 l 479 439 l 479 122 q 485 86 479 100 q 504 64 492 72 q 534 57 516 57 l 534 57 q 568 63 550 57 q 604 80 587 69 l 604 80 l 604 48 q 544 2 576 17 q 485 -12 513 -12 l 485 -12 q 428 2 452 -12 q 392 45 404 17 q 379 112 379 74 l 379 112 l 383 119 q 350 50 374 80 q 291 3 325 20 q 217 -14 256 -14 l 217 -14 q 103 25 148 -14 q 58 137 58 64 l 58 137 q 73 208 58 176 q 128 268 89 240 q 239 323 168 296 q 418 377 309 349 z m 147 885 l 147 885 l 105 885 q 127 968 116 937 q 154 1015 138 1000 q 198 1030 170 1030 l 198 1030 q 242 1022 219 1030 q 288 1003 265 1014 q 331 985 311 993 q 366 977 351 977 l 366 977 q 395 988 384 977 q 415 1025 407 999 l 415 1025 l 456 1025 q 434 942 445 974 q 408 896 424 910 q 363 881 392 881 l 363 881 q 319 889 342 881 q 273 907 296 897 q 230 925 250 917 q 195 933 210 933 l 195 933 q 166 923 177 933 q 147 885 154 912 z m 281 754 l 281 754 q 368 772 335 754 q 415 838 401 790 l 415 838 l 457 838 q 419 728 441 766 q 364 678 397 691 q 281 665 331 665 l 281 665 q 198 678 231 665 q 142 728 165 691 q 104 838 120 766 l 104 838 l 146 838 q 193 772 160 789 q 281 754 226 754 z "},"ặ":{"ha":600,"x_min":58,"x_max":604,"o":"m 418 377 l 418 377 l 429 328 q 295 291 347 310 q 214 251 243 272 q 173 209 185 231 q 162 159 162 186 l 162 159 q 190 87 162 112 q 258 62 218 62 l 258 62 q 318 78 291 62 q 361 122 345 95 q 378 181 378 149 l 378 181 l 378 431 q 352 510 378 481 q 267 540 326 540 l 267 540 q 219 534 247 540 q 167 514 192 527 l 167 514 l 202 546 q 196 507 200 526 q 187 472 192 488 q 174 449 182 457 l 174 449 q 147 431 163 437 q 113 426 130 426 l 113 426 q 79 436 92 426 q 67 461 67 446 l 67 461 q 88 507 67 483 q 144 552 109 531 q 222 586 179 573 q 310 599 265 599 l 310 599 q 408 581 370 599 q 462 527 445 563 q 479 439 479 491 l 479 439 l 479 122 q 485 86 479 100 q 504 64 492 72 q 534 57 516 57 l 534 57 q 568 63 550 57 q 604 80 587 69 l 604 80 l 604 48 q 544 2 576 17 q 485 -12 513 -12 l 485 -12 q 428 2 452 -12 q 392 45 404 17 q 379 112 379 74 l 379 112 l 383 119 q 350 50 374 80 q 291 3 325 20 q 217 -14 256 -14 l 217 -14 q 103 25 148 -14 q 58 137 58 64 l 58 137 q 73 208 58 176 q 128 268 89 240 q 239 323 168 296 q 418 377 309 349 z m 281 788 l 281 788 q 348 803 318 788 q 398 850 377 819 q 428 931 419 882 l 428 931 l 471 931 q 430 789 453 841 q 369 716 406 738 q 281 694 333 694 l 281 694 q 192 716 228 694 q 132 789 156 738 q 90 931 108 841 l 90 931 l 133 931 q 163 850 142 882 q 214 803 184 819 q 281 788 244 788 z m 322 -258 l 322 -258 q 263 -235 285 -258 q 240 -177 240 -211 l 240 -177 q 263 -119 240 -142 q 322 -96 285 -96 l 322 -96 q 381 -119 358 -96 q 403 -177 403 -142 l 403 -177 q 381 -235 403 -211 q 322 -258 358 -258 z "},"æ":{"ha":933,"x_min":56,"x_max":887,"o":"m 287 540 l 287 540 q 228 535 262 540 q 165 514 195 529 l 165 514 l 201 546 q 195 507 199 526 q 186 472 191 488 q 173 449 181 457 l 173 449 q 145 431 162 437 q 112 426 128 426 l 112 426 q 78 436 90 426 q 65 461 65 446 l 65 461 q 88 507 65 483 q 149 552 111 531 q 234 586 188 573 q 329 599 281 599 l 329 599 q 412 586 381 599 q 461 547 444 572 q 484 483 478 521 l 484 483 l 442 483 q 527 572 470 538 q 651 606 585 606 l 651 606 q 772 573 722 606 q 849 480 821 541 q 883 329 877 418 l 883 329 l 479 329 l 481 376 l 817 392 l 769 383 q 750 470 765 433 q 708 530 735 508 q 641 551 682 551 l 641 551 q 566 524 599 551 q 516 446 534 497 q 499 320 499 394 l 499 320 q 526 187 499 243 q 603 100 553 131 q 719 69 653 69 l 719 69 q 770 76 745 69 q 821 97 796 83 q 869 131 846 111 l 869 131 l 887 113 q 813 39 851 67 q 733 -1 775 11 q 643 -14 692 -14 l 643 -14 q 537 11 585 -14 q 454 80 489 35 q 399 184 419 125 l 399 184 l 417 182 q 382 72 408 116 q 316 7 356 28 q 222 -14 276 -14 l 222 -14 q 103 26 151 -14 q 56 137 56 65 l 56 137 q 70 202 56 172 q 124 259 84 232 q 239 315 163 287 q 438 373 314 342 l 438 373 l 449 328 q 293 286 351 307 q 207 244 235 265 q 169 202 178 224 q 160 159 160 181 l 160 159 q 189 87 160 112 q 257 62 217 62 l 257 62 q 329 78 297 62 q 379 125 360 94 q 397 199 397 156 l 397 199 l 397 431 q 372 510 397 481 q 287 540 346 540 z "},"ǽ":{"ha":933,"x_min":56,"x_max":887,"o":"m 287 540 l 287 540 q 228 535 262 540 q 165 514 195 529 l 165 514 l 201 546 q 195 507 199 526 q 186 472 191 488 q 173 449 181 457 l 173 449 q 145 431 162 437 q 112 426 128 426 l 112 426 q 78 436 90 426 q 65 461 65 446 l 65 461 q 88 507 65 483 q 149 552 111 531 q 234 586 188 573 q 329 599 281 599 l 329 599 q 412 586 381 599 q 461 547 444 572 q 484 483 478 521 l 484 483 l 442 483 q 527 572 470 538 q 651 606 585 606 l 651 606 q 772 573 722 606 q 849 480 821 541 q 883 329 877 418 l 883 329 l 479 329 l 481 376 l 817 392 l 769 383 q 750 470 765 433 q 708 530 735 508 q 641 551 682 551 l 641 551 q 566 524 599 551 q 516 446 534 497 q 499 320 499 394 l 499 320 q 526 187 499 243 q 603 100 553 131 q 719 69 653 69 l 719 69 q 770 76 745 69 q 821 97 796 83 q 869 131 846 111 l 869 131 l 887 113 q 813 39 851 67 q 733 -1 775 11 q 643 -14 692 -14 l 643 -14 q 537 11 585 -14 q 454 80 489 35 q 399 184 419 125 l 399 184 l 417 182 q 382 72 408 116 q 316 7 356 28 q 222 -14 276 -14 l 222 -14 q 103 26 151 -14 q 56 137 56 65 l 56 137 q 70 202 56 172 q 124 259 84 232 q 239 315 163 287 q 438 373 314 342 l 438 373 l 449 328 q 293 286 351 307 q 207 244 235 265 q 169 202 178 224 q 160 159 160 181 l 160 159 q 189 87 160 112 q 257 62 217 62 l 257 62 q 329 78 297 62 q 379 125 360 94 q 397 199 397 156 l 397 199 l 397 431 q 372 510 397 481 q 287 540 346 540 z m 476 701 l 433 701 l 542 931 l 692 931 l 692 917 l 476 701 z "},"ç":{"ha":576,"x_min":52,"x_max":542,"o":"m 379 606 l 379 606 q 470 593 436 606 q 518 561 503 580 q 533 524 533 542 l 533 524 q 525 490 533 505 q 503 468 517 476 q 469 460 488 460 l 469 460 q 433 468 449 460 q 404 490 417 477 q 377 516 390 503 q 347 537 363 528 q 311 546 331 546 l 311 546 q 237 523 273 546 q 178 454 201 501 q 155 337 155 408 l 155 337 q 183 195 155 255 q 261 102 210 135 q 381 69 312 69 l 381 69 q 455 85 419 69 q 526 131 492 101 l 526 131 l 542 113 q 474 41 509 69 q 401 0 440 13 q 317 -14 362 -14 l 317 -14 q 179 25 239 -14 q 86 130 119 63 q 52 279 52 196 l 52 279 q 74 404 52 345 q 136 508 95 463 q 239 580 178 553 q 379 606 300 606 z m 248 -368 l 248 -368 q 175 -350 197 -368 q 153 -310 153 -332 l 153 -310 q 164 -284 153 -294 q 190 -275 174 -275 l 190 -275 q 223 -286 210 -275 q 248 -308 235 -297 q 285 -319 261 -319 l 285 -319 q 338 -300 317 -319 q 358 -250 358 -281 l 358 -250 q 343 -207 358 -224 q 292 -177 327 -189 q 196 -159 256 -166 l 196 -159 l 196 -147 l 337 35 l 390 35 l 253 -153 l 251 -87 q 354 -117 317 -98 q 407 -161 392 -136 q 423 -216 423 -186 l 423 -216 q 398 -295 423 -261 q 332 -349 372 -330 q 248 -368 292 -368 z "},"ć":{"ha":576,"x_min":52,"x_max":544,"o":"m 379 606 l 379 606 q 470 593 436 606 q 518 561 503 580 q 533 524 533 542 l 533 524 q 525 490 533 505 q 503 468 517 476 q 469 460 488 460 l 469 460 q 433 468 449 460 q 404 490 417 477 q 377 516 390 503 q 347 537 363 528 q 311 546 331 546 l 311 546 q 237 523 273 546 q 178 454 201 501 q 155 337 155 408 l 155 337 q 183 195 155 255 q 261 102 210 135 q 381 69 312 69 l 381 69 q 455 85 419 69 q 526 131 492 101 l 526 131 l 542 113 q 474 41 509 69 q 401 0 440 13 q 317 -14 362 -14 l 317 -14 q 179 25 239 -14 q 86 130 119 63 q 52 279 52 196 l 52 279 q 74 404 52 345 q 136 508 95 463 q 239 580 178 553 q 379 606 300 606 z m 328 701 l 284 701 l 393 931 l 544 931 l 544 917 l 328 701 z "},"ĉ":{"ha":576,"x_min":52,"x_max":542,"o":"m 379 606 l 379 606 q 470 593 436 606 q 518 561 503 580 q 533 524 533 542 l 533 524 q 525 490 533 505 q 503 468 517 476 q 469 460 488 460 l 469 460 q 433 468 449 460 q 404 490 417 477 q 377 516 390 503 q 347 537 363 528 q 311 546 331 546 l 311 546 q 237 523 273 546 q 178 454 201 501 q 155 337 155 408 l 155 337 q 183 195 155 255 q 261 102 210 135 q 381 69 312 69 l 381 69 q 455 85 419 69 q 526 131 492 101 l 526 131 l 542 113 q 474 41 509 69 q 401 0 440 13 q 317 -14 362 -14 l 317 -14 q 179 25 239 -14 q 86 130 119 63 q 52 279 52 196 l 52 279 q 74 404 52 345 q 136 508 95 463 q 239 580 178 553 q 379 606 300 606 z m 179 701 l 134 701 l 269 931 l 382 931 l 517 701 l 472 701 l 317 843 l 335 843 l 179 701 z "},"ċ":{"ha":576,"x_min":52,"x_max":542,"o":"m 379 606 l 379 606 q 470 593 436 606 q 518 561 503 580 q 533 524 533 542 l 533 524 q 525 490 533 505 q 503 468 517 476 q 469 460 488 460 l 469 460 q 433 468 449 460 q 404 490 417 477 q 377 516 390 503 q 347 537 363 528 q 311 546 331 546 l 311 546 q 237 523 273 546 q 178 454 201 501 q 155 337 155 408 l 155 337 q 183 195 155 255 q 261 102 210 135 q 381 69 312 69 l 381 69 q 455 85 419 69 q 526 131 492 101 l 526 131 l 542 113 q 474 41 509 69 q 401 0 440 13 q 317 -14 362 -14 l 317 -14 q 179 25 239 -14 q 86 130 119 63 q 52 279 52 196 l 52 279 q 74 404 52 345 q 136 508 95 463 q 239 580 178 553 q 379 606 300 606 z m 326 735 l 326 735 q 267 758 290 735 q 244 816 244 782 l 244 816 q 267 874 244 851 q 326 897 290 897 l 326 897 q 385 874 363 897 q 408 816 408 851 l 408 816 q 385 758 408 782 q 326 735 363 735 z "},"č":{"ha":576,"x_min":52,"x_max":542,"o":"m 379 606 l 379 606 q 470 593 436 606 q 518 561 503 580 q 533 524 533 542 l 533 524 q 525 490 533 505 q 503 468 517 476 q 469 460 488 460 l 469 460 q 433 468 449 460 q 404 490 417 477 q 377 516 390 503 q 347 537 363 528 q 311 546 331 546 l 311 546 q 237 523 273 546 q 178 454 201 501 q 155 337 155 408 l 155 337 q 183 195 155 255 q 261 102 210 135 q 381 69 312 69 l 381 69 q 455 85 419 69 q 526 131 492 101 l 526 131 l 542 113 q 474 41 509 69 q 401 0 440 13 q 317 -14 362 -14 l 317 -14 q 179 25 239 -14 q 86 130 119 63 q 52 279 52 196 l 52 279 q 74 404 52 345 q 136 508 95 463 q 239 580 178 553 q 379 606 300 606 z m 179 931 l 335 788 l 317 788 l 472 931 l 517 931 l 382 701 l 269 701 l 134 931 l 179 931 z "},"ď":{"ha":739,"x_min":53,"x_max":876,"o":"m 524 94 l 524 414 q 483 510 524 472 q 363 548 442 548 l 363 548 q 258 517 301 548 q 192 431 215 487 q 170 299 170 375 l 170 299 q 195 169 170 222 q 263 89 219 116 q 365 61 307 61 l 365 61 q 467 78 418 61 q 563 131 516 95 l 563 131 l 563 82 q 478 33 513 52 q 417 4 443 14 q 368 -10 390 -6 q 320 -14 345 -14 l 320 -14 q 174 22 233 -14 q 83 120 114 57 q 53 265 53 183 l 53 265 q 79 408 53 345 q 150 515 105 471 q 255 582 196 559 q 378 606 313 606 l 378 606 q 444 600 412 606 q 510 583 476 594 q 583 552 544 572 l 583 552 l 524 513 l 524 865 q 503 885 516 876 q 473 902 490 894 q 435 919 456 911 l 435 919 l 435 932 l 619 985 l 632 985 l 626 873 l 626 97 q 642 84 632 90 q 665 71 653 77 q 690 60 678 65 q 714 55 703 56 l 714 55 l 714 34 l 548 -11 l 534 -11 l 524 94 z m 758 721 l 714 721 l 745 972 l 876 972 l 876 958 l 758 721 z "},"đ":{"ha":738,"x_min":53,"x_max":758,"o":"m 524 94 l 524 414 q 483 510 524 472 q 363 548 442 548 l 363 548 q 258 517 301 548 q 192 431 215 487 q 170 299 170 375 l 170 299 q 195 169 170 222 q 263 89 219 116 q 365 61 307 61 l 365 61 q 467 78 418 61 q 563 131 516 95 l 563 131 l 563 82 q 478 33 513 52 q 417 4 443 14 q 368 -10 390 -6 q 320 -14 345 -14 l 320 -14 q 174 22 233 -14 q 83 120 114 57 q 53 265 53 183 l 53 265 q 79 408 53 345 q 150 515 105 471 q 255 582 196 559 q 378 606 313 606 l 378 606 q 444 600 412 606 q 510 583 476 594 q 583 552 544 572 l 583 552 l 524 513 l 524 865 q 503 885 516 876 q 473 902 490 894 q 435 919 456 911 l 435 919 l 435 932 l 619 985 l 632 985 l 626 873 l 626 97 q 642 84 632 90 q 665 71 653 77 q 690 60 678 65 q 714 55 703 56 l 714 55 l 714 34 l 548 -11 l 534 -11 l 524 94 z m 758 713 l 347 713 l 347 776 l 758 776 l 758 713 z "},"è":{"ha":610,"x_min":52,"x_max":565,"o":"m 329 606 l 329 606 q 446 576 397 606 q 525 489 495 546 q 561 349 554 431 l 561 349 l 136 349 l 138 395 l 494 412 l 447 383 q 427 470 442 433 q 386 530 413 508 q 319 551 360 551 l 319 551 q 233 524 270 551 q 176 446 197 497 q 156 320 156 394 l 156 320 q 186 187 156 243 q 270 100 216 131 q 397 69 324 69 l 397 69 q 448 76 423 69 q 499 97 474 83 q 547 131 524 111 l 547 131 l 565 113 q 494 41 530 69 q 417 0 458 13 q 331 -14 377 -14 l 331 -14 q 187 25 250 -14 q 88 133 124 65 q 52 288 52 201 l 52 288 q 85 447 52 375 q 181 563 119 519 q 329 606 243 606 z m 258 931 l 367 701 l 323 701 l 107 917 l 107 931 l 258 931 z "},"é":{"ha":610,"x_min":52,"x_max":565,"o":"m 329 606 l 329 606 q 446 576 397 606 q 525 489 495 546 q 561 349 554 431 l 561 349 l 136 349 l 138 395 l 494 412 l 447 383 q 427 470 442 433 q 386 530 413 508 q 319 551 360 551 l 319 551 q 233 524 270 551 q 176 446 197 497 q 156 320 156 394 l 156 320 q 186 187 156 243 q 270 100 216 131 q 397 69 324 69 l 397 69 q 448 76 423 69 q 499 97 474 83 q 547 131 524 111 l 547 131 l 565 113 q 494 41 530 69 q 417 0 458 13 q 331 -14 377 -14 l 331 -14 q 187 25 250 -14 q 88 133 124 65 q 52 288 52 201 l 52 288 q 85 447 52 375 q 181 563 119 519 q 329 606 243 606 z m 327 701 l 283 701 l 392 931 l 543 931 l 543 917 l 327 701 z "},"ê":{"ha":610,"x_min":52,"x_max":565,"o":"m 329 606 l 329 606 q 446 576 397 606 q 525 489 495 546 q 561 349 554 431 l 561 349 l 136 349 l 138 395 l 494 412 l 447 383 q 427 470 442 433 q 386 530 413 508 q 319 551 360 551 l 319 551 q 233 524 270 551 q 176 446 197 497 q 156 320 156 394 l 156 320 q 186 187 156 243 q 270 100 216 131 q 397 69 324 69 l 397 69 q 448 76 423 69 q 499 97 474 83 q 547 131 524 111 l 547 131 l 565 113 q 494 41 530 69 q 417 0 458 13 q 331 -14 377 -14 l 331 -14 q 187 25 250 -14 q 88 133 124 65 q 52 288 52 201 l 52 288 q 85 447 52 375 q 181 563 119 519 q 329 606 243 606 z m 178 701 l 133 701 l 269 931 l 381 931 l 517 701 l 472 701 l 316 843 l 334 843 l 178 701 z "},"ë":{"ha":610,"x_min":52,"x_max":565,"o":"m 329 606 l 329 606 q 446 576 397 606 q 525 489 495 546 q 561 349 554 431 l 561 349 l 136 349 l 138 395 l 494 412 l 447 383 q 427 470 442 433 q 386 530 413 508 q 319 551 360 551 l 319 551 q 233 524 270 551 q 176 446 197 497 q 156 320 156 394 l 156 320 q 186 187 156 243 q 270 100 216 131 q 397 69 324 69 l 397 69 q 448 76 423 69 q 499 97 474 83 q 547 131 524 111 l 547 131 l 565 113 q 494 41 530 69 q 417 0 458 13 q 331 -14 377 -14 l 331 -14 q 187 25 250 -14 q 88 133 124 65 q 52 288 52 201 l 52 288 q 85 447 52 375 q 181 563 119 519 q 329 606 243 606 z m 199 740 l 199 740 q 144 763 165 740 q 123 816 123 785 l 123 816 q 144 869 123 847 q 199 892 165 892 l 199 892 q 255 869 233 892 q 276 816 276 847 l 276 816 q 255 763 276 785 q 199 740 233 740 z m 451 740 l 451 740 q 395 763 417 740 q 374 816 374 785 l 374 816 q 395 869 374 847 q 451 892 417 892 l 451 892 q 506 869 485 892 q 527 816 527 847 l 527 816 q 506 763 527 785 q 451 740 485 740 z "},"ē":{"ha":610,"x_min":52,"x_max":565,"o":"m 329 606 l 329 606 q 446 576 397 606 q 525 489 495 546 q 561 349 554 431 l 561 349 l 136 349 l 138 395 l 494 412 l 447 383 q 427 470 442 433 q 386 530 413 508 q 319 551 360 551 l 319 551 q 233 524 270 551 q 176 446 197 497 q 156 320 156 394 l 156 320 q 186 187 156 243 q 270 100 216 131 q 397 69 324 69 l 397 69 q 448 76 423 69 q 499 97 474 83 q 547 131 524 111 l 547 131 l 565 113 q 494 41 530 69 q 417 0 458 13 q 331 -14 377 -14 l 331 -14 q 187 25 250 -14 q 88 133 124 65 q 52 288 52 201 l 52 288 q 85 447 52 375 q 181 563 119 519 q 329 606 243 606 z m 499 779 l 151 779 l 151 853 l 499 853 l 499 779 z "}}}
